<?xml version="1.0" encoding="UTF-8"?>
<svg width="24px" height="24px" viewBox="0 0 24 24" version="1.1" xmlns="http://www.w3.org/2000/svg" xmlns:xlink="http://www.w3.org/1999/xlink">
    <!-- Generator: Sketch 52.1 (67048) - http://www.bohemiancoding.com/sketch -->
    <title>18.icon_refresh</title>
    <desc>Created with Sketch.</desc>
    <g id="18.icon_refresh" stroke="none" stroke-width="1" fill="none" fill-rule="evenodd">
        <g id="刷新-(2)" fill="#525768" fill-rule="nonzero">
            <path d="M18.2601333,3.65938667 C16.5176,2.35008 14.3509867,1.57426667 12.00368,1.57426667 C6.24557333,1.57426667 1.57794667,6.24138667 1.57794667,11.9999733 C1.57794667,13.63 1.95208,15.1725067 2.61896,16.54704 L1.32365333,17.4541333 C0.48648,15.8180267 0.0140533333,13.964 0.0140533333,12 C0.0140533333,5.37805333 5.38194667,0.0104 12.0036533,0.0104 C14.7501067,0.0104 17.28016,0.933866667 19.3016533,2.48650667 L19.3016533,0.790266667 C19.3016533,0.3596 19.6488533,0.0103733333 20.0836,0.0103733333 C20.5157867,0.0103733333 20.86552,0.360613333 20.86552,0.790266667 L20.86552,4.44232 C20.8660505,4.64920776 20.7841583,4.84778725 20.6379467,4.99416 C20.4949067,5.13570667 20.29992,5.22325333 20.0850933,5.22325333 L16.4330933,5.22325333 C16.0024267,5.22325333 15.6526933,4.87605333 15.6526933,4.44133333 C15.6526933,4.00968 16.0029333,3.65944 16.4330933,3.65944 L18.2601333,3.65944 L18.2601333,3.65938667 Z M5.7472,20.34056 C7.48970667,21.6498933 9.65605333,22.42576 12.0036267,22.42576 C17.7617333,22.42576 22.42936,17.7575733 22.42936,12 C22.42936,10.67848 22.1834933,9.41496 21.7354933,8.25226667 L23.0504267,7.33184 C23.65784,8.7664 23.9933067,10.3434933 23.9933067,12 C23.9933067,18.62096 18.6251467,23.9896267 12.0037067,23.9896267 C9.25754667,23.9896267 6.72722667,23.06616 4.70570667,21.5134933 L4.70570667,23.20872 C4.70570667,23.6403733 4.35850667,23.9896267 3.92376,23.9896267 C3.49184,23.9896267 3.14184,23.63936 3.14184,23.20872 L3.14184,19.55664 C3.14184,19.3417867 3.2284,19.1463733 3.36917333,19.0057867 C3.51245333,18.8642933 3.70741333,18.77672 3.92224,18.77672 L7.57432,18.77672 C8.00525333,18.77672 8.35474667,19.12392 8.35474667,19.55864 C8.35474667,19.99032 8.00448,20.3405333 7.57432,20.3405333 L5.74725333,20.3405333 L5.7472,20.34056 Z" id="Shape"></path>
        </g>
    </g>
</svg>