<?xml version="1.0" encoding="UTF-8"?>
<svg width="16px" height="16px" viewBox="0 0 16 16" version="1.1" xmlns="http://www.w3.org/2000/svg" xmlns:xlink="http://www.w3.org/1999/xlink">
    <!-- Generator: Sketch 52.1 (67048) - http://www.bohemiancoding.com/sketch -->
    <title>56.icon_editor</title>
    <desc>Created with Sketch.</desc>
    <g id="56.icon_editor" stroke="none" stroke-width="1" fill="none" fill-rule="evenodd">
        <g fill="#0077FF" fill-rule="nonzero" id="Shape">
            <path d="M12.4271233,4.19540913 L9.91767141,1.61487484 L11.1729246,0.324584124 C11.5888664,-0.102557986 12.2623101,-0.102557986 12.6782289,0.324584124 L13.681895,1.35669882 C14.0977909,1.78440674 14.0977909,2.47802347 13.681895,2.90568422 L12.4271233,4.19540913 Z M5.13678275,11.6921326 L2.62726212,9.11157473 L9.44952772,2.1511011 L11.9589566,4.73163537 L5.13678275,11.6921326 Z M0.611241046,13.8083933 L2.13807263,9.61460658 L4.62654742,12.1740407 L0.611241046,13.8083933 Z M14.5165566,15.344082 C14.5165566,15.7047175 14.2321169,15.997196 13.8808486,15.997196 L0.640861093,15.997196 C0.290143078,15.997196 0.00568044073,15.7047175 0.00568044088,15.344082 C0.00568044088,14.9828336 0.290120137,14.6902845 0.640861093,14.6902845 L13.8808486,14.6902845 C14.2321169,14.6902845 14.5165566,14.9828337 14.5165566,15.344082 Z"></path>
        </g>
    </g>
</svg>