<?xml version="1.0" encoding="UTF-8"?>
<svg width="12px" height="12px" viewBox="0 0 12 12" version="1.1" xmlns="http://www.w3.org/2000/svg" xmlns:xlink="http://www.w3.org/1999/xlink">
    <!-- Generator: Sketch 52.1 (67048) - http://www.bohemiancoding.com/sketch -->
    <title>34icon_warning</title>
    <desc>Created with Sketch.</desc>
    <g id="34icon_warning" stroke="none" stroke-width="1" fill="none" fill-rule="evenodd">
        <g id="警告" fill="#9EABBE" fill-rule="nonzero">
            <path d="M6,0.00585365854 C2.70321951,0.00585365854 0.00585365854,2.70321951 0.00585365854,6 C0.00585365854,9.29678049 2.70321951,11.9941463 6,11.9941463 C9.29678049,11.9941463 11.9941463,9.29678049 11.9941463,6 C11.9941463,2.70321951 9.29678049,0.00585365854 6,0.00585365854 Z M6,9.74634146 C5.55043902,9.74634146 5.25073171,9.44663415 5.25073171,8.99707317 C5.25073171,8.5475122 5.55043902,8.24780488 6,8.24780488 C6.44956098,8.24780488 6.74926829,8.5475122 6.74926829,8.99707317 C6.74926829,9.44663415 6.44956098,9.74634146 6,9.74634146 Z M6.74926829,6.74926829 C6.74926829,7.19882927 6.44956098,7.49853659 6,7.49853659 C5.55043902,7.49853659 5.25073171,7.19882927 5.25073171,6.74926829 L5.25073171,3.75219512 C5.25073171,3.30263415 5.55043902,3.00292683 6,3.00292683 C6.44956098,3.00292683 6.74926829,3.30263415 6.74926829,3.75219512 L6.74926829,6.74926829 Z" id="Shape"></path>
        </g>
    </g>
</svg>