<?xml version="1.0" encoding="UTF-8"?>
<svg width="30px" height="30px" viewBox="0 0 30 30" version="1.1" xmlns="http://www.w3.org/2000/svg" xmlns:xlink="http://www.w3.org/1999/xlink">
    <!-- Generator: Sketch 52.1 (67048) - http://www.bohemiancoding.com/sketch -->
    <title>61.graphics3</title>
    <desc>Created with Sketch.</desc>
    <g id="61.graphics3" stroke="none" stroke-width="1" fill="none" fill-rule="evenodd">
        <g id="Group-8" fill="#CFEBDE" stroke="#0F9D58">
            <path d="M16.5307337,0.634050671 L24.075868,3.75934761 C25.0559803,4.16532344 25.8346766,4.94401967 26.2406524,5.92413201 L29.3659493,13.4692663 C29.7719252,14.4493786 29.7719252,15.5506214 29.3659493,16.5307337 L26.2406524,24.075868 C25.8346766,25.0559803 25.0559803,25.8346766 24.075868,26.2406524 L16.5307337,29.3659493 C15.5506214,29.7719252 14.4493786,29.7719252 13.4692663,29.3659493 L5.92413201,26.2406524 C4.94401967,25.8346766 4.16532344,25.0559803 3.75934761,24.075868 L0.634050671,16.5307337 C0.228074845,15.5506214 0.228074845,14.4493786 0.634050671,13.4692663 L3.75934761,5.92413201 C4.16532344,4.94401967 4.94401967,4.16532344 5.92413201,3.75934761 L13.4692663,0.634050671 C14.4493786,0.228074845 15.5506214,0.228074845 16.5307337,0.634050671 Z" id="Polygon"></path>
        </g>
    </g>
</svg>