<?xml version="1.0" encoding="UTF-8"?>
<svg width="34px" height="34px" viewBox="0 0 34 34" version="1.1" xmlns="http://www.w3.org/2000/svg" xmlns:xlink="http://www.w3.org/1999/xlink">
    <!-- Generator: Sketch 52.2 (67145) - http://www.bohemiancoding.com/sketch -->
    <title>18.icon_Shared</title>
    <desc>Created with Sketch.</desc>
    <g id="18.icon_Shared" stroke="none" stroke-width="1" fill="none" fill-rule="evenodd">
        <path d="M31.2611048,6.29505369 L24.6141862,6.29505369 L24.6141862,2.8374228 C24.6141862,1.82256718 23.8349737,1 22.8736076,1 L2.74057854,1 C1.77921249,1 1,1.82256718 1,2.8374228 L1,25.869304 C1,26.8841596 1.77921249,27.7067268 2.74057854,27.7067268 L9.38749716,27.7067268 L9.38749716,31.1625772 C9.38749716,32.1774328 10.1667096,33 11.1280757,33 L31.2594182,33 C32.2207842,33 32.9999967,32.1774328 32.9999967,31.1625772 L32.9999967,8.13247649 C33.0008933,7.64518073 32.818031,7.17754503 32.4917796,6.83280726 C32.1655282,6.48806949 31.7227175,6.29457967 31.2611048,6.29505369 Z M29.5188396,29.3251544 L12.8703408,29.3251544 L12.8703408,9.91292494 C12.8703409,9.25647698 12.5385885,8.64989404 12.0000516,8.32167006 C11.4615147,7.99344607 10.7980099,7.99344607 10.259473,8.32167006 C9.72093613,8.64989404 9.38918374,9.25647698 9.38918377,9.91292494 L9.38918377,24.0318812 L4.48284368,24.0318812 L4.48284368,4.67662605 L21.1313425,4.67662605 L21.1313425,24.0888555 C21.1313425,25.1036361 21.910626,25.9262783 22.871921,25.9262783 C23.833216,25.9262783 24.6124996,25.1036361 24.6124996,24.0888555 L24.6124996,9.96989929 L29.5188396,9.96989929 L29.5188396,29.3251544 Z" id="Shape" fill="#18C2E9" fill-rule="nonzero"></path>
    </g>
</svg>