<?xml version="1.0" encoding="UTF-8"?>
<svg width="24px" height="24px" viewBox="0 0 24 24" version="1.1" xmlns="http://www.w3.org/2000/svg" xmlns:xlink="http://www.w3.org/1999/xlink">
    <!-- Generator: Sketch 52.1 (67048) - http://www.bohemiancoding.com/sketch -->
    <title>18.icon_copy copy</title>
    <desc>Created with Sketch.</desc>
    <g id="18.icon_copy-copy" stroke="none" stroke-width="1" fill="none" fill-rule="evenodd">
        <g id="11.icon_copy" transform="translate(2.000000, 2.000000)" fill="#0077FF" fill-rule="nonzero">
            <path d="M16.4429679,1.42857143 C16.8682171,1.42857143 17.1517165,1.14285714 17.1517165,0.714285714 C17.1517165,0.285714286 16.8682171,0 16.4429679,0 L0.850498339,0 C0.425249169,0 0,0.285714286 0,0.714285714 L0,16.4285714 C0,16.8571429 0.425249169,17.1428571 0.708748616,17.1428571 C1.13399779,17.1428571 1.41749723,16.8571429 1.41749723,16.4285714 L1.41749723,1.42857143 L16.4429679,1.42857143 Z" id="Shape"></path>
            <path d="M18.5692137,2.85714286 L4.39424142,2.85714286 C3.6854928,2.85714286 2.97674419,3.57142857 2.97674419,4.28571429 L2.97674419,18.5714286 C2.97674419,19.2857143 3.6854928,20 4.39424142,20 L18.5692137,20 C19.2779623,20 19.986711,19.2857143 19.986711,18.5714286 L19.986711,4.28571429 C19.986711,3.57142857 19.2779623,2.85714286 18.5692137,2.85714286 Z M18.5692137,17.8571429 C18.5692137,18.2857143 18.2857143,18.5714286 17.8604651,18.5714286 L5.10299003,18.5714286 C4.67774086,18.5714286 4.39424142,18.2857143 4.39424142,17.8571429 L4.39424142,5 C4.39424142,4.57142857 4.67774086,4.28571429 5.10299003,4.28571429 L17.8604651,4.28571429 C18.2857143,4.28571429 18.5692137,4.57142857 18.5692137,5 L18.5692137,17.8571429 Z" id="Shape"></path>
        </g>
    </g>
</svg>