<?xml version="1.0" encoding="UTF-8"?>
<svg width="10px" height="10px" viewBox="0 0 10 10" version="1.1" xmlns="http://www.w3.org/2000/svg" xmlns:xlink="http://www.w3.org/1999/xlink">
    <!-- Generator: Sketch 52.1 (67048) - http://www.bohemiancoding.com/sketch -->
    <title>icon_Shut down</title>
    <desc>Created with Sketch.</desc>
    <defs>
        <path d="M5.86477255,5.00038841 L9.82068002,1.0448225 C10.0597733,0.805562029 10.0597733,0.418705818 9.82068002,0.18099899 C9.58158671,-0.0582614775 9.19500078,-0.0582614775 8.95746002,0.18099899 L5,4.13501126 L1.04253998,0.179445351 C0.80344667,-0.0598151169 0.416860736,-0.0598151169 0.179319981,0.179445351 C-0.0597733271,0.418705818 -0.0597733271,0.805562029 0.179319981,1.04326886 L4.13522745,4.99883477 L0.179319981,8.95595432 C-0.0597733271,9.19521479 -0.0597733271,9.582071 0.179319981,9.81977783 C0.298866636,9.93940806 0.455674585,9.99844636 0.61092998,9.99844636 C0.767737929,9.99844636 0.922993324,9.93940806 1.04253998,9.81977783 L5,5.86421192 L8.95746002,9.82133147 C9.07700668,9.9409617 9.23226207,10 9.38907002,10 C9.54587797,10 9.70113336,9.9409617 9.82068002,9.82133147 C10.0597733,9.582071 10.0597733,9.19521479 9.82068002,8.95750796 L5.86477255,5.00038841 Z" id="path-1"></path>
    </defs>
    <g id="0.6.0" stroke="none" stroke-width="1" fill="none" fill-rule="evenodd">
        <g id="33联名钱包-签名交易" transform="translate(-702.000000, -169.000000)">
            <g id="Modal/Default-Copy-3" transform="translate(249.000000, 152.000000)">
                <g id="Icon" transform="translate(453.000000, 17.000000)">
                    <mask id="mask-2" fill="white">
                        <use xlink:href="#path-1"></use>
                    </mask>
                    <use id="icon_Shut-down" fill="#000000" fill-rule="nonzero" xlink:href="#path-1"></use>
                </g>
            </g>
        </g>
    </g>
</svg>