<?xml version="1.0" encoding="UTF-8"?>
<svg width="40px" height="40px" viewBox="0 0 40 40" version="1.1" xmlns="http://www.w3.org/2000/svg" xmlns:xlink="http://www.w3.org/1999/xlink">
    <!-- Generator: Sketch 52.1 (67048) - http://www.bohemiancoding.com/sketch -->
    <title>Profile pic8</title>
    <desc>Created with Sketch.</desc>
    <g id="Profile-pic8" stroke="none" stroke-width="1" fill="none" fill-rule="evenodd">
        <circle id="Profile-pic" stroke="#F4B400" fill="#FDF0CC" cx="20" cy="20" r="19"></circle>
        <g id="18.icon_Shared" transform="translate(28.000000, 28.000000)">
            <circle id="Profile-pic" stroke="#F4B400" fill="#FDF0CC" cx="5.5" cy="5.5" r="5.5"></circle>
            <path d="M9,7.24758404 C9,7.76413555 8.58,8.18413538 8.06344827,8.18413538 C7.54689655,8.18413538 7.12689655,7.76413555 7.12689655,7.24758404 C7.12725252,6.98708368 7.23597924,6.73847642 7.42700941,6.56136607 C7.61803957,6.38425572 7.87414747,6.29461279 8.13393103,6.31392925 C8.32952919,5.23184831 7.8391433,4.1409512 6.9,3.56896487 C6.79068031,3.499413 6.75746531,3.35496934 6.8254239,3.24465214 C6.89338248,3.13433495 7.03732912,3.09902789 7.14862069,3.16537883 C8.27731441,3.8536853 8.85251867,5.17638415 8.58627586,6.4713085 C8.84068965,6.64365326 8.99951724,6.93186004 8.99951724,7.2480668 L9,7.24758404 Z M5.5,8.52544558 C5.85337931,8.52544558 6.1975862,8.45737664 6.52248275,8.32268704 C6.64169168,8.28016581 6.77330312,8.33859052 6.82172599,8.45552657 C6.87014887,8.57246262 6.8183713,8.70682812 6.704,8.76103169 C6.32236353,8.91934266 5.9131688,9.0005581 5.5,8.99999711 C4.68051967,8.99882604 3.89364087,8.67888074 3.30586207,8.10785955 C3.01661481,8.23144209 2.68466915,8.20173954 2.42195765,8.02876764 C2.15924615,7.85579574 2.00078217,7.56260764 2,7.2480668 C2,6.73103253 2.42,6.3110327 2.93655172,6.3110327 C3.45310344,6.3110327 3.87310344,6.73103253 3.87310345,7.24758404 C3.87310345,7.45468741 3.80455172,7.65117008 3.68289655,7.81192864 C4.17749242,8.26947672 4.82622359,8.52403983 5.5,8.52496283 L5.5,8.52544558 Z M2.83179311,5.65834332 C2.82316683,5.78261794 2.71981507,5.87900923 2.59524138,5.87896392 C2.58558621,5.87896392 2.58558621,5.87896392 2.57689655,5.8779984 C2.44667998,5.86847881 2.34879985,5.75525769 2.3582069,5.62503299 C2.44714317,4.32904502 3.32612963,3.2221523 4.56827586,2.84193069 C4.6172576,2.36401534 5.01958115,2.00046509 5.5,2 C6.01655172,2 6.43655172,2.41999983 6.43655173,2.93655134 C6.43655173,3.45310284 6.01655173,3.87310267 5.5,3.87310268 C5.1297302,3.87258074 4.79449074,3.65406979 4.64455172,3.3155167 C3.621291,3.65684902 2.90532984,4.58216409 2.83179311,5.65834332 Z" id="Shape" fill="#F4B400" fill-rule="nonzero"></path>
        </g>
    </g>
</svg>