<?xml version="1.0" encoding="UTF-8"?>
<svg width="15px" height="15px" viewBox="0 0 15 15" version="1.1" xmlns="http://www.w3.org/2000/svg" xmlns:xlink="http://www.w3.org/1999/xlink">
    <!-- Generator: Sketch 52.1 (67048) - http://www.bohemiancoding.com/sketch -->
    <title>17icon_failure</title>
    <desc>Created with Sketch.</desc>
    <g id="17icon_failure" stroke="none" stroke-width="1" fill="none" fill-rule="evenodd">
        <g id="进度" fill="#FAAD14">
            <path d="M7.5,13.75 C10.9517797,13.75 13.75,10.9517797 13.75,7.5 C13.75,4.04822031 10.9517797,1.25 7.5,1.25 C4.04822031,1.25 1.25,4.04822031 1.25,7.5 C1.25,10.9517797 4.04822031,13.75 7.5,13.75 Z M7.5,15 C3.35786438,15 5.07265313e-16,11.6421356 0,7.5 C-5.07265313e-16,3.35786438 3.35786438,7.6089797e-16 7.5,0 C11.6421356,2.53632657e-16 15,3.35786438 15,7.5 C15,11.6421356 11.6421356,15 7.5,15 Z" id="Shape" fill-rule="nonzero"></path>
            <path d="M7.875,3.4375 C7.875,3.19550781 7.67949219,3 7.4375,3 L7.4375,3 C7.19550781,3 7,3.19550781 7,3.4375 L7,3.4375 C7,3.67949219 7.19550781,3.875 7.4375,3.875 L7.4375,3.875 C7.67949219,3.875 7.875,3.67949219 7.875,3.4375 L7.875,3.4375 L7.875,3.4375 Z M7.4375,5.475 C7.19550781,5.475 7,5.67050781 7,5.9125 L7,12.0375 C7,12.2794922 7.19550781,12.475 7.4375,12.475 C7.67949219,12.475 7.875,12.2794922 7.875,12.0375 L7.875,5.9125 C7.875,5.67050781 7.67949219,5.475 7.4375,5.475 Z" id="Shape-Copy-2" stroke="#FAAD14" transform="translate(7.500000, 7.737500) scale(1, -1) translate(-7.500000, -7.737500) "></path>
        </g>
    </g>
</svg>