<?xml version="1.0" encoding="UTF-8"?>
<svg width="26px" height="23px" viewBox="0 0 26 23" version="1.1" xmlns="http://www.w3.org/2000/svg" xmlns:xlink="http://www.w3.org/1999/xlink">
    <!-- Generator: Sketch 52.2 (67145) - http://www.bohemiancoding.com/sketch -->
    <title>16.icon_calendar</title>
    <desc>Created with Sketch.</desc>
    <g id="16.icon_calendar" stroke="none" stroke-width="1" fill="none" fill-rule="evenodd" opacity="0.200000003">
        <g fill="#525768" fill-rule="nonzero" id="Shape">
            <path d="M9.00025469,3.91588012 L16.9984166,3.91588012 L16.9984166,2.00089026 L8.999016,2.00089026 L8.999016,3.91588012 L9.00025469,3.91588012 Z M20.9981169,3.91588012 L23.0035411,3.91588012 C23.5460833,3.91588012 23.9969631,4.36064426 23.9969631,4.92822532 L23.9969631,19.7222971 C23.9969631,20.2874933 23.5411286,20.7358347 22.992393,20.7358347 L3.00503962,20.7358347 C2.45382667,20.7358347 2.00046949,20.2898781 2.00046949,19.7222971 L2.00046949,4.92822532 C2.00046949,4.36064426 2.45258798,3.91468771 3.00751698,3.91468771 L5.04514689,3.91468771 L5.04514689,2.00208264 L3.00751698,2.00208264 C1.3352979,2.00089026 0,3.31491193 0,4.92822532 L0,19.7222971 C0,21.3356105 1.33777526,22.6496321 3.00503962,22.6496321 L22.992393,22.6496321 C24.6584186,22.6496321 25.9974326,21.3332256 25.9974326,19.7222971 L25.9974326,4.92822532 C25.9974326,3.31610434 24.664612,2.00089026 23.0035411,2.00089026 L20.9968782,2.00089026 L20.9968782,3.91588012 L20.9981169,3.91588012 Z M5.99893112,0.951580734 C5.99957819,0.697338182 6.10563109,0.453863553 6.29354564,0.275209253 C6.48146019,0.0965549525 6.73568648,-0.00249540199 6.99978519,4.77910535e-05 C7.55099814,4.77910535e-05 7.99940058,0.425733576 7.99940061,0.951580734 L7.99940061,4.9699592 C7.99875098,5.22399315 7.89286803,5.46728478 7.70522251,5.64590438 C7.51757699,5.82452397 7.2636703,5.92371575 6.99978519,5.92149217 C6.73598324,5.92307831 6.48233192,5.82371772 6.29463426,5.64526961 C6.1069366,5.46682151 6.0005686,5.22390419 5.99893112,4.9699592 L5.99893112,0.951580734 Z M17.998032,0.951580734 C17.9986838,0.697755141 18.1043967,0.454646165 18.2917734,0.276061213 C18.47915,0.0974762604 18.7327373,-0.00185667981 18.9964087,4.77910535e-05 C19.5488604,4.77910535e-05 19.9960241,0.425733576 19.9960241,0.950388327 L19.9960241,4.96638203 C19.9950454,5.22020898 19.8890175,5.46319363 19.701408,5.64155517 C19.5137984,5.81991672 19.2600798,5.91894532 18.9964087,5.91672256 C18.7329353,5.91830872 18.479599,5.81907376 18.2921337,5.64084928 C18.1046683,5.4626248 17.9984308,5.22001077 17.9967933,4.96638203 L17.9967933,0.950388327 L17.998032,0.951580734 Z M5.99893112,9.8301701 C5.99893112,9.30193815 6.44981092,8.87386758 7.00597859,8.87386758 L18.991454,8.87386758 C19.546383,8.87386758 19.9972628,9.29836098 19.9972628,9.8301701 C19.9959527,10.0855873 19.889207,10.3300239 19.7005445,10.509624 C19.511882,10.6892242 19.2567834,10.7892507 18.991454,10.787665 L7.00597859,10.787665 C6.74033637,10.7898877 6.4847274,10.6901053 6.2957241,10.5104021 C6.1067208,10.3306988 5.99990987,10.0858945 5.99893112,9.8301701 Z M5.99893112,14.7607324 C5.99893112,14.2325005 6.44981092,13.8032375 7.00597859,13.8032375 L18.991454,13.8032375 C19.546383,13.8032375 19.9972628,14.2289233 19.9972628,14.7607324 C19.9959527,15.0161496 19.889207,15.2605862 19.7005445,15.4401864 C19.511882,15.6197865 19.2567834,15.719813 18.991454,15.7182274 L7.00597859,15.7182274 C6.74033637,15.72045 6.4847274,15.6206676 6.2957241,15.4409644 C6.1067208,15.2612611 5.99990987,15.0164568 5.99893112,14.7607324 Z"></path>
        </g>
    </g>
</svg>