<?xml version="1.0" encoding="UTF-8"?>
<svg width="40px" height="40px" viewBox="0 0 40 40" version="1.1" xmlns="http://www.w3.org/2000/svg" xmlns:xlink="http://www.w3.org/1999/xlink">
    <!-- Generator: Sketch 52.1 (67048) - http://www.bohemiancoding.com/sketch -->
    <title>6.icon_complete</title>
    <desc>Created with Sketch.</desc>
    <g id="6.icon_complete" stroke="none" stroke-width="1" fill="none" fill-rule="evenodd">
        <g id="7.icon_complete" fill-rule="nonzero">
            <path d="M19.983314,33.8709686 C29.8553728,33.865285 38.2418226,26.6680816 39.7171721,16.9354843 C40.9620415,24.7118751 37.4964098,32.4897388 30.8743395,36.7813167 C24.2522692,41.0728946 15.7163571,41.0728946 9.09428683,36.7813167 C2.47221654,32.4897388 -0.993415216,24.7118751 0.251454143,16.9354843 C1.72668989,26.6673352 10.1120131,33.8643004 19.983314,33.8709686 Z" id="Shape" fill="#CEF0E4"></path>
            <path d="M19.983314,39.8481983 C8.94720555,39.8481983 0.000671968658,30.9278753 0.000671968658,19.9240991 C0.000671968658,8.92032303 8.94720555,2.02136088e-15 19.983314,0 C31.0194225,-2.02136088e-15 39.965956,8.92032303 39.965956,19.9240991 C39.965956,30.9278753 31.0194225,39.8481983 19.983314,39.8481983 Z M19.983314,1.99240992 C10.0508164,1.99240992 1.99893618,10.0207006 1.99893618,19.9240991 C1.99893618,29.8274976 10.0508164,37.8557884 19.983314,37.8557884 C29.9158116,37.8557884 37.9676918,29.8274976 37.9676918,19.9240991 C37.9676918,15.1683195 36.0729146,10.6073242 32.7001895,7.2444801 C29.3274644,3.88163604 24.7530676,1.99240992 19.983314,1.99240992 Z M18.5095942,28.060105 C18.1194332,28.4490055 17.4869823,28.4490055 17.0968214,28.060105 L10.324704,21.3078278 C9.94606085,20.916938 9.95147606,20.2955992 10.336875,19.9113294 C10.722274,19.5270595 11.3454384,19.5216602 11.7374768,19.899194 L17.8032078,25.9471543 L29.2282834,14.5555506 C29.6203217,14.1780168 30.2434862,14.1834162 30.6288851,14.567686 C31.0142841,14.9519559 31.0196993,15.5732946 30.6410561,15.9641845 L18.5095942,28.060105 Z" id="Shape" fill="#0BB27A"></path>
        </g>
    </g>
</svg>