<?xml version="1.0" encoding="UTF-8"?>
<svg width="20px" height="20px" viewBox="0 0 20 20" version="1.1" xmlns="http://www.w3.org/2000/svg" xmlns:xlink="http://www.w3.org/1999/xlink">
    <!-- Generator: Sketch 52.1 (67048) - http://www.bohemiancoding.com/sketch -->
    <title>17.icon_conversion</title>
    <desc>Created with Sketch.</desc>
    <g id="17.icon_conversion" stroke="none" stroke-width="1" fill="none" fill-rule="evenodd">
        <g id="12.icon_conversion" transform="translate(0.000000, 2.000000)" fill="#0077FF" fill-rule="nonzero">
            <path d="M18.8804715,10.2978791 C19.5009284,10.2978791 19.8738998,10.7823452 19.8738998,11.1461198 C19.8738998,11.7512774 19.3771856,12.115052 18.8804715,12.1150519 L3.85007508,12.1150519 L8.44598826,15.2649315 C8.87836219,15.5743577 8.98774284,16.159252 8.69521677,16.5976382 C8.37744063,17.0187723 7.77784836,17.1246941 7.32881711,16.8390213 L0.620561566,12.2357435 C0.4985616,12.1150519 0.373075915,12.1150519 0.373075915,11.9943604 C0.122104545,11.871969 0.000104578723,11.5081944 0.000104578723,11.2668113 C0.000104578723,10.7823452 0.373075915,10.2978791 0.993532919,10.2978791 L18.8804715,10.2978791 Z M0.993532919,6.66353355 C0.728914368,6.66723439 0.474021368,6.5663396 0.286888559,6.38382115 C0.09975575,6.20130271 -0.00368982044,5.95269491 0.000104578723,5.69460138 C0.000104578723,5.2101353 0.373075915,4.84466088 0.993532919,4.84466088 L16.0239293,4.84466088 L11.5517589,1.69818113 C11.0550448,1.45509815 10.931302,0.848240633 11.3025304,0.486165967 C11.5517589,0.00169988379 12.1739588,-0.118991666 12.6689301,0.122391434 L19.3771856,4.7256692 C19.5009285,4.84806063 19.6246713,4.84806063 19.6246713,4.96875218 C19.8738998,5.08944373 19.9976426,5.45321826 19.9976426,5.69630126 C19.9976426,6.3014589 19.5009285,6.66523345 19.0042143,6.66523343 L0.993532919,6.66523343 L0.993532919,6.66353355 Z" id="Shape"></path>
        </g>
    </g>
</svg>