<?xml version="1.0" encoding="UTF-8"?>
<svg width="15px" height="15px" viewBox="0 0 15 15" version="1.1" xmlns="http://www.w3.org/2000/svg" xmlns:xlink="http://www.w3.org/1999/xlink">
    <!-- Generator: Sketch 52.1 (67048) - http://www.bohemiancoding.com/sketch -->
    <title>17.icon_loading</title>
    <desc>Created with Sketch.</desc>
    <g id="17.icon_loading" stroke="none" stroke-width="1" fill="none" fill-rule="evenodd">
        <g id="进度" fill="#0077FF" fill-rule="nonzero">
            <path d="M7.5,13.75 C10.9517797,13.75 13.75,10.9517797 13.75,7.5 C13.75,4.04822031 10.9517797,1.25 7.5,1.25 C4.04822031,1.25 1.25,4.04822031 1.25,7.5 C1.25,10.9517797 4.04822031,13.75 7.5,13.75 Z M7.5,15 C3.35786438,15 5.07265313e-16,11.6421356 0,7.5 C-5.07265313e-16,3.35786438 3.35786438,7.6089797e-16 7.5,0 C11.6421356,2.53632657e-16 15,3.35786438 15,7.5 C15,11.6421356 11.6421356,15 7.5,15 Z" id="Shape"></path>
            <path d="M2.5,7.5 C2.5,7.5 4.20600502,7.67670448 7.61801506,8.03011345 C9.20600504,10.5634559 10,11.8301271 10,11.8301271 C11.5470054,10.9369631 12.5,9.28632797 12.5,7.5 C12.5,4.73857625 10.2614237,2.5 7.5,2.5 C4.73857625,2.5 2.5,4.73857625 2.5,7.5 Z" id="Path" opacity="0.503506326"></path>
        </g>
    </g>
</svg>