<?xml version="1.0" encoding="UTF-8"?>
<svg width="16px" height="16px" viewBox="0 0 16 16" version="1.1" xmlns="http://www.w3.org/2000/svg" xmlns:xlink="http://www.w3.org/1999/xlink">
    <!-- Generator: Sketch 52.2 (67145) - http://www.bohemiancoding.com/sketch -->
    <title>4.icon_Shape</title>
    <desc>Created with Sketch.</desc>
    <g id="4.icon_Shape" stroke="none" stroke-width="1" fill="none" fill-rule="evenodd">
        <path d="M13.6204819,9.87228916 C14.6542169,9.87228916 15.4945783,9.03192771 15.4945783,7.99819277 C15.4945783,6.96445783 14.6542169,6.12409639 13.6204819,6.12409639 L13.2951807,6.12409639 C13.2301205,5.93614458 13.1542169,5.75361446 13.0692771,5.57650602 L13.2987952,5.34698795 C13.6512048,4.99457831 13.8463855,4.52289157 13.8463855,4.02228916 C13.8463855,3.51987952 13.6512048,3.05 13.2987952,2.69759036 C12.9463855,2.34337349 12.4746988,2.15 11.9740964,2.15 C11.4716867,2.15 11.0018072,2.34337349 10.6493976,2.69759036 L10.4180723,2.9253012 C10.2409639,2.84036145 10.0584337,2.76626506 9.87048193,2.69939759 L9.87048193,2.37409639 C9.87048193,1.34036145 9.03012048,0.5 7.99638554,0.5 C6.9626506,0.5 6.12228916,1.34036145 6.12228916,2.37409639 L6.12228916,2.69939759 C5.93433735,2.76445783 5.75180723,2.84036145 5.5746988,2.9253012 L5.34518072,2.69578313 C4.99277108,2.34156627 4.52108434,2.14819277 4.02048193,2.14819277 C3.51807229,2.14819277 3.04819277,2.34156627 2.69578313,2.69578313 C2.34337349,3.04819277 2.14819277,3.51987952 2.14819277,4.02048193 C2.14819277,4.52289157 2.34337349,4.99277108 2.69578313,5.34518072 L2.9253012,5.5746988 C2.84036145,5.75180723 2.76626506,5.93433735 2.69939759,6.12228916 L2.37409639,6.12228916 C1.34036145,6.12228916 0.5,6.9626506 0.5,7.99638554 C0.5,9.03012048 1.34036145,9.87048193 2.37409639,9.87048193 L2.69939759,9.87048193 C2.76445783,10.0584337 2.84036145,10.2409639 2.9253012,10.4180723 L2.69578313,10.6475904 C2.34337349,11 2.14819277,11.4716867 2.14819277,11.9722892 C2.14819277,12.4746988 2.34337349,12.9445783 2.69578313,13.296988 C3.04819277,13.6493976 3.51987952,13.8445783 4.02048193,13.8445783 C4.52289157,13.8445783 4.99277108,13.6493976 5.34518072,13.296988 L5.5746988,13.0674699 C5.75180723,13.1524096 5.93433735,13.226506 6.12228916,13.2933735 L6.12228916,13.6186747 C6.12228916,14.6524096 6.9626506,15.4927711 7.99638554,15.4927711 C9.03012048,15.4927711 9.87048193,14.6524096 9.87048193,13.6186747 L9.87048193,13.2933735 C10.0584337,13.226506 10.2409639,13.1524096 10.4180723,13.0674699 L10.6475904,13.296988 C11,13.6493976 11.4716867,13.8445783 11.9722892,13.8445783 C12.4746988,13.8445783 12.9445783,13.6493976 13.296988,13.296988 C13.6493976,12.9445783 13.8445783,12.4728916 13.8445783,11.9722892 C13.8445783,11.4698795 13.6493976,11 13.296988,10.6475904 L13.0692771,10.4198795 C13.1542169,10.2427711 13.2283133,10.060241 13.2951807,9.87228916 L13.6204819,9.87228916 Z M12.6355422,11.3126506 C12.8126506,11.4879518 12.9084337,11.7228916 12.9084337,11.9759036 C12.9084337,12.2271084 12.8126506,12.4620482 12.6355422,12.6391566 C12.2831325,12.9915663 11.663253,12.9915663 11.3108434,12.6391566 L10.589759,11.9162651 L10.2807229,12.089759 C9.96807229,12.263253 9.63012048,12.4042169 9.27590361,12.5036145 L8.93433735,12.5993976 L8.93433735,13.6222892 C8.93433735,14.1391566 8.51325301,14.560241 7.99638554,14.560241 C7.47951807,14.560241 7.05843373,14.1391566 7.05843373,13.6222892 L7.05843373,12.5993976 L6.71686747,12.5036145 C6.36084337,12.4024096 6.02289157,12.263253 5.71204819,12.089759 L5.40301205,11.9162651 L4.68192771,12.6373494 C4.32951807,12.989759 3.70963855,12.989759 3.35722892,12.6373494 C3.18192771,12.4620482 3.08433735,12.2253012 3.08433735,11.9740964 C3.08433735,11.7228916 3.18012048,11.4879518 3.35722892,11.3108434 L4.07831325,10.589759 L3.90481928,10.2807229 C3.7313253,9.96987952 3.59216867,9.63192771 3.49096386,9.27590361 L3.39518072,8.93614458 L2.37228916,8.93614458 C1.85542169,8.93614458 1.43433735,8.51506024 1.43433735,7.99819277 C1.43433735,7.4813253 1.85542169,7.06024096 2.37228916,7.06024096 L3.39518072,7.06024096 L3.49096386,6.7186747 C3.59216867,6.3626506 3.7313253,6.0246988 3.90481928,5.71385542 L4.07831325,5.40481928 L3.35722892,4.68373494 C3.18192771,4.50662651 3.08433735,4.27168675 3.08433735,4.02048193 C3.08433735,3.76927711 3.18012048,3.53433735 3.35722892,3.35722892 C3.70963855,3.00481928 4.32951807,3.00481928 4.68192771,3.35722892 L5.40301205,4.07831325 L5.71204819,3.90481928 C6.02289157,3.7313253 6.36084337,3.59216867 6.71686747,3.49096386 L7.05843373,3.39518072 L7.05843373,2.37228916 C7.05843373,1.85542169 7.47951807,1.43433735 7.99638554,1.43433735 C8.51325301,1.43433735 8.93433735,1.85361446 8.93433735,2.37228916 L8.93433735,3.39518072 L9.27590361,3.49096386 C9.63012048,3.59216867 9.96807229,3.7313253 10.2807229,3.90481928 L10.589759,4.07831325 L11.3108434,3.35722892 C11.663253,3.00481928 12.2831325,3.00481928 12.6355422,3.35722892 C12.8126506,3.53253012 12.9084337,3.76746988 12.9084337,4.02048193 C12.9084337,4.27168675 12.8126506,4.50662651 12.6355422,4.68373494 L11.9144578,5.40481928 L12.0861446,5.71385542 C12.2614458,6.02650602 12.4006024,6.36445783 12.5,6.7186747 L12.5957831,7.06024096 L13.6168675,7.06024096 C14.1337349,7.06024096 14.5548193,7.4813253 14.5548193,7.99819277 C14.5548193,8.51506024 14.1337349,8.93614458 13.6168675,8.93614458 L12.5957831,8.93614458 L12.5,9.27590361 C12.4006024,9.63012048 12.2596386,9.96807229 12.0861446,10.2807229 L11.9144578,10.589759 L12.6355422,11.3126506 Z M7.99638554,5.18614458 C6.44578313,5.18614458 5.18433735,6.44759036 5.18433735,7.99819277 C5.18433735,9.54879518 6.44578313,10.810241 7.99638554,10.810241 C9.54698795,10.810241 10.8084337,9.54879518 10.8084337,7.99819277 C10.8084337,6.44759036 9.54698795,5.18614458 7.99638554,5.18614458 Z M7.99638554,9.87228916 C6.9626506,9.87228916 6.12228916,9.03192771 6.12228916,7.99819277 C6.12228916,6.96445783 6.9626506,6.12409639 7.99638554,6.12409639 C9.03012048,6.12409639 9.87048193,6.96445783 9.87048193,7.99819277 C9.87048193,9.03192771 9.03012048,9.87228916 7.99638554,9.87228916 Z" fill="#18C2E9" fill-rule="nonzero"></path>
    </g>
</svg>