<?xml version="1.0" encoding="UTF-8"?>
<svg width="16px" height="16px" viewBox="0 0 16 16" version="1.1" xmlns="http://www.w3.org/2000/svg" xmlns:xlink="http://www.w3.org/1999/xlink">
    <!-- Generator: Sketch 52.2 (67145) - http://www.bohemiancoding.com/sketch -->
    <title>4.icon_help</title>
    <desc>Created with Sketch.</desc>
    <g id="4.icon_help" stroke="none" stroke-width="1" fill="none" fill-rule="evenodd">
        <path d="M8,0.5 C3.86377778,0.5 0.5,3.86377778 0.5,8 C0.5,12.1362222 3.86377778,15.5 8,15.5 C12.1362222,15.5 15.5,12.1362222 15.5,8 C15.5,3.86377778 12.1362222,0.5 8,0.5 Z M8.10294118,1.60000002 C11.6984967,1.60000002 14.6029412,4.50444447 14.6029412,8.10000002 C14.6029412,11.6955556 11.6984967,14.6 8.10294118,14.6 C4.50738562,14.6 1.60294118,11.6955556 1.60294118,8.10000002 C1.60294118,4.50444447 4.50738562,1.60000002 8.10294118,1.60000002 Z M7.88971092,3.80882353 C6.49441082,3.80882353 5.35300663,4.91472537 5.35300663,6.26662592 C5.34849694,6.54058896 5.57758952,6.76495901 5.86034749,6.76495901 C6.14310546,6.76495901 6.37219805,6.54058896 6.36768835,6.26662592 C6.36768835,5.44648457 7.04324089,4.79194449 7.88971092,4.79194449 C8.73618096,4.79194449 9.4117335,5.44648457 9.4117335,6.26662592 C9.41782159,6.93995454 9.06020265,7.2838284 8.56097925,7.74130735 C8.31159303,7.97004683 8.0342467,8.20730669 7.79996796,8.51950221 C7.56546374,8.8319162 7.38237006,9.23739898 7.38237006,9.70754926 C7.37786037,9.9815123 7.60695295,10.2058824 7.88971092,10.2058824 C8.17246889,10.2058824 8.40156148,9.9815123 8.39705178,9.70754926 C8.39705178,9.46439068 8.47010886,9.29616776 8.61892885,9.09823274 C8.76797432,8.90029772 8.9986453,8.69122067 9.25840381,8.45308692 C9.7772444,7.97769332 10.4334052,7.31375897 10.4264152,6.26662592 L10.4264152,6.26160108 C10.4237094,4.91232218 9.28320714,3.80882353 7.88971092,3.80882353 Z M8,10.6470588 C7.63470588,10.6470588 7.33823529,10.9435294 7.33823529,11.3088235 C7.33823529,11.6741176 7.63470588,11.9705882 8,11.9705882 C8.36529412,11.9705882 8.66176471,11.6741176 8.66176471,11.3088235 C8.66176471,10.9435294 8.36529412,10.6470588 8,10.6470588 Z" fill="#18C2E9"></path>
    </g>
</svg>