<?xml version="1.0" encoding="UTF-8"?>
<svg width="16px" height="16px" viewBox="0 0 16 16" version="1.1" xmlns="http://www.w3.org/2000/svg" xmlns:xlink="http://www.w3.org/1999/xlink">
    <!-- Generator: Sketch 50.2 (55047) - http://www.bohemiancoding.com/sketch -->
    <title>4.icon_trading</title>
    <desc>Created with Sketch.</desc>
    <defs></defs>
    <g id="4.icon_trading" stroke="none" stroke-width="1" fill="none" fill-rule="evenodd">
        <path d="M9.87227025,1.62965303 C9.92136446,1.66092754 9.92136446,1.72410624 9.87227025,1.75601043 L8.20220209,2.85796447 C8.15310788,2.88902908 8.07200511,2.85796447 8.07200511,2.79478577 L8.07200511,2.19637225 C4.7467917,2.19637225 2.03839185,4.82489996 2.03839185,8.05205109 C2.03839185,9.92558286 2.96253084,11.6882895 4.53635705,12.7902436 L3.91975975,13.625 C2.08640469,12.3343494 1.00006016,10.2559592 1.00006016,8.05205109 C0.984055885,4.25923022 4.16306805,1.1739688 8.07200511,1.1739688 L8.07200511,0.575345384 C8.07200511,0.512166686 8.15310788,0.481102076 8.20220209,0.512166686 L9.87227025,1.62965303 Z M15,7.94759244 C15,5.75935664 13.9155962,3.66640753 12.0855163,2.375 L11.4700205,3.20970303 C13.0241959,4.31158659 13.9637391,6.07418051 13.9637391,7.94759244 C13.9637391,11.1745371 11.2599618,13.8028967 7.94068871,13.8028967 L7.94068871,13.2045215 C7.94068871,13.1413468 7.85973083,13.1102842 7.81094022,13.1413468 L6.12766397,14.2440699 C6.07865747,14.2751325 6.07865747,14.3383072 6.12766397,14.3704192 L7.79561219,15.4878341 C7.8446187,15.5188967 7.92557658,15.4878341 7.92557658,15.4246594 L7.92557658,14.8260743 C11.826667,14.8260743 15,11.7410102 15,7.94759244 Z M8.4326336,4.25 L7.87608374,4.25 C7.78846422,4.25 7.72972596,4.32669339 7.72972596,4.40338678 L7.72972596,5.09362729 C7.30509325,5.15518652 6.96905578,5.32370746 6.70522149,5.58405596 C6.41250592,5.87569535 6.28058878,6.24402814 6.28058878,6.68823626 C6.28058878,7.17866492 6.41250592,7.54699771 6.69078085,7.80816427 C6.96905578,8.06871728 7.39368849,8.31474967 7.99356026,8.55996401 C8.2419782,8.66713024 8.40355719,8.79004418 8.50581249,8.89721041 C8.60787265,9.00417212 8.65217028,9.17351113 8.65217028,9.38763907 C8.65217028,9.57149869 8.60787265,9.70954679 8.50581249,9.81753109 C8.41819297,9.9244928 8.27183519,9.98605203 8.09562042,9.98605203 C7.87608374,9.98605203 7.70084469,9.90935864 7.56892755,9.77110602 C7.45145103,9.64819208 7.39368849,9.47946662 7.36383151,9.23425229 C7.34939087,9.14242474 7.27621198,9.06573135 7.18859246,9.06573135 L6.26614814,9.08168357 C6.16408798,9.08168357 6.09090909,9.17351113 6.09090909,9.26533868 C6.11979036,9.77192408 6.26614814,10.155391 6.55886371,10.4310782 C6.8660199,10.7225131 7.26177135,10.9063727 7.72972596,10.9525933 L7.72972596,11.5966132 C7.72972596,11.6884408 7.80290485,11.75 7.87608374,11.75 L8.4326336,11.75 C8.52025313,11.75 8.57899139,11.6733066 8.57899139,11.5966132 L8.57899139,10.936641 C8.95932648,10.8599476 9.25204204,10.7065609 9.48601935,10.4764807 C9.76429428,10.20018 9.89621142,9.83266525 9.89621142,9.37250491 C9.89621142,8.89721041 9.76429428,8.51374346 9.48601935,8.26832461 C9.20774442,8.00797611 8.78330685,7.74680955 8.19787572,7.48625654 C7.94926264,7.3633426 7.77324301,7.25617637 7.68562348,7.14921466 C7.59780881,7.04204843 7.55370634,6.88866165 7.55370634,6.70418848 C7.55370634,6.52053338 7.59780881,6.38228076 7.68562348,6.2591623 C7.77324301,6.13624836 7.90516016,6.09064136 8.08039921,6.09064136 C8.2558334,6.09064136 8.40219119,6.16733475 8.50503192,6.30558737 C8.59265145,6.41254908 8.63694907,6.58188809 8.6513897,6.78088187 C8.66583034,6.87270942 8.73900923,6.94940281 8.82662875,6.93426865 L9.73385186,6.91913449 C9.83591202,6.91913449 9.90909091,6.82730694 9.90909091,6.73527487 C9.88020964,6.32153959 9.76273313,5.96834097 9.52875582,5.69204025 C9.29477851,5.40040085 8.97220596,5.21674575 8.57743024,5.12471368 L8.57743024,4.40420484 C8.57899139,4.32669339 8.52025313,4.25 8.4326336,4.25 Z" fill="#18C2E9"></path>
    </g>
</svg>