<?xml version="1.0" encoding="UTF-8"?>
<svg width="16px" height="16px" viewBox="0 0 16 16" version="1.1" xmlns="http://www.w3.org/2000/svg" xmlns:xlink="http://www.w3.org/1999/xlink">
    <!-- Generator: Sketch 52.1 (67048) - http://www.bohemiancoding.com/sketch -->
    <title>4.icon_wallet</title>
    <desc>Created with Sketch.</desc>
    <g id="4.icon_wallet" stroke="none" stroke-width="1" fill="none" fill-rule="evenodd">
        <g transform="translate(0.500000, 2.000000)" fill="#0077FF" id="Fill-1">
            <path d="M12.9285714,0 L2.07142857,0 C1.21428571,0 0.5,0.731707317 0.5,1.6097561 L0.5,10.3902439 C0.5,11.2682927 1.21428571,12 2.07142857,12 L12.9285714,12 C13.7857143,12 14.5,11.2682927 14.5,10.3902439 L14.5,1.6097561 C14.5,0.731707317 13.7857143,0 12.9285714,0 Z M12.9285714,11.1219512 L2.07142857,11.1219512 C1.67142857,11.1219512 1.35714286,10.8003902 1.35714286,10.3902439 L1.35714286,1.6097561 C1.35714286,1.19960976 1.67142857,0.87804878 2.07142857,0.87804878 L12.9285714,0.87804878 C13.3289524,0.87804878 13.6428571,1.19960976 13.6428571,1.6097561 L13.6428571,3.13092683 L10.6428571,3.13092683 C8.67142857,3.13092683 8.5,4.33092683 8.5,5.67687805 L8.5,6.14478049 C8.5,7.49073171 8.67142857,8.69073171 10.6428571,8.69073171 L13.6428571,8.69073171 L13.6428571,10.3902439 C13.6428571,10.8003902 13.3007619,11.1219512 12.9285714,11.1219512 Z M13.6428571,4.00897561 L13.6428571,7.81385366 L10.6428571,7.81385366 C9.47180952,7.81385366 9.35714286,7.49229268 9.35714286,6.14634146 L9.35714286,5.67843902 C9.35714286,4.36136585 9.47180952,4.01053659 10.6428571,4.01053659 L13.6428571,4.01053659 L13.6428571,4.00897561 Z"></path>
        </g>
    </g>
</svg>