<?xml version="1.0" encoding="UTF-8"?>
<svg width="16px" height="16px" viewBox="0 0 16 16" version="1.1" xmlns="http://www.w3.org/2000/svg" xmlns:xlink="http://www.w3.org/1999/xlink">
    <!-- Generator: Sketch 52.1 (67048) - http://www.bohemiancoding.com/sketch -->
    <title>4.icon_vote</title>
    <desc>Created with Sketch.</desc>
    <g id="4.icon_vote" stroke="none" stroke-width="1" fill="none" fill-rule="evenodd">
        <g id="投票" transform="translate(1.000000, 1.000000)" fill="#0077FF" fill-rule="nonzero">
            <path d="M12.6707004,2.35430804 L10.7747717,2.35430804 L10.7747717,1.03703606 C10.7747717,0.977995487 10.7678218,0.927183274 10.7547943,0.883270438 C10.7556376,0.87272344 10.7561029,0.861724024 10.7561029,0.850074256 C10.7561029,0.498347424 10.3362296,0.0134965523 9.97451463,0.0134965523 L4.23011142,0.0134965523 C3.50668138,0.0134965523 3.07822981,0.571497783 3.07822981,1.27495145 L3.07822981,2.35436459 L1.33615864,2.35436459 C0.6127286,2.35436459 0.0098023854,2.79928956 0.0098023854,3.50271495 L0.0098023854,12.7655241 C0.0098023854,13.4689777 0.61275768,13.9987311 1.33615864,13.9987311 L12.6707004,13.9987311 C13.3941304,13.9987311 13.9970857,13.4689777 13.9970857,12.7655241 L13.9970857,3.5026584 C13.9970857,2.79920473 13.3941304,2.35430804 12.6707004,2.35430804 Z M4.10949128,1.16179036 C4.10949128,1.04452923 4.23011142,0.927352931 4.35073155,0.927352931 L9.65618564,0.927352931 L9.65618564,5.73039363 L4.10949128,5.73039363 L4.10949128,1.16179036 Z M12.9699826,12.8220198 C12.9700117,12.9393092 12.8495078,12.9393092 12.7288586,12.9393092 L1.27800042,12.9393092 C1.15738028,12.9393092 1.03687646,12.8220198 1.03687646,12.8220198 L1.03687646,3.5026584 C1.03687646,3.3854821 1.1573512,3.3854821 1.27800042,3.3854821 L3.11155447,3.3854821 L3.11155447,5.76285463 L2.18020881,5.76285463 C1.89886845,5.78092308 1.69790273,5.90842017 1.69790273,6.260147 C1.69790273,6.61187383 1.93911393,6.73331983 2.18020881,6.73331983 L11.5854681,6.73331983 C11.9471831,6.73331983 12.1884234,6.5835977 12.1884234,6.23187086 C12.1884234,5.88014403 11.9471831,5.73039363 11.5854681,5.73039363 L10.7748007,5.73039363 L10.7748007,3.3854821 L12.7288877,3.3854821 C12.8495078,3.3854821 12.9700117,3.5026584 12.9700117,3.5026584 L12.9700117,12.8220198 L12.9699826,12.8220198 Z" id="Shape"></path>
            <path d="M7.84749423,2.12394237 L6.64175812,3.5351194 L6.00972372,3.03364216 C5.76859976,2.91649414 5.37768931,2.85994187 5.25721457,3.0943793 C5.0159743,3.32892983 5.07413251,3.65238053 5.31537279,3.76955683 L6.76234918,4.91383542 L8.69151533,2.71437633 C8.9327556,2.47979752 8.84121457,2.15634682 8.60011969,2.0390857 C8.47949955,1.80464827 8.08870543,1.88947667 7.84749423,2.12394237 Z" id="Path"></path>
        </g>
    </g>
</svg>