<?xml version="1.0" encoding="UTF-8"?>
<svg width="16px" height="16px" viewBox="0 0 16 16" version="1.1" xmlns="http://www.w3.org/2000/svg" xmlns:xlink="http://www.w3.org/1999/xlink">
    <!-- Generator: Sketch 52.1 (67048) - http://www.bohemiancoding.com/sketch -->
    <title>4.icon_Send</title>
    <desc>Created with Sketch.</desc>
    <g id="4.icon_Send" stroke="none" stroke-width="1" fill="none" fill-rule="evenodd">
        <g id="发送-(2)" transform="translate(3.800000, 4.000000)" fill="#0077FF" fill-rule="nonzero">
            <path d="M3.25095857,7.99219512 C3.20886634,7.99219512 3.16650771,7.98287089 3.12414907,7.96395604 C3.00739633,7.9136836 2.9316959,7.79882417 2.93153717,7.6717081 L2.93153717,5.32546601 C2.93153717,5.2266292 2.9736294,5.13711661 3.05355135,5.07584312 C3.12894439,5.01456962 3.2275148,4.99565477 3.32635161,5.01456962 L6.58796644,5.79673912 L7.24625691,1.10345574 C7.25558114,1.0280627 7.18045451,0.976113436 7.1146521,1.01367675 L1.15034328,4.4769613 L2.2362162,4.75508969 C2.39126478,4.79265301 2.50395473,4.93411486 2.48983518,5.09422517 C2.48268965,5.18766553 2.43456931,5.2731567 2.3583952,5.327743 C2.2822211,5.38232931 2.18579938,5.40041686 2.09502075,5.37714888 L0.238433819,4.90108045 C0.113851466,4.86898608 0.0210175198,4.76478471 0.00346328195,4.63733801 C-0.0151851707,4.50999571 0.0455555122,4.3829198 0.158511867,4.31685099 L7.51399545,0.0431578537 C7.61736117,-0.0181156449 7.74896599,-0.0133203278 7.85233171,0.0524820839 C7.95090211,0.1185509 8.00738029,0.241097889 7.98873184,0.358849561 L7.16606855,6.2299161 C7.15314559,6.3193205 7.10388801,6.39942432 7.02993483,6.4512999 C6.95559956,6.50177031 6.86354979,6.51886665 6.77604943,6.49845385 L3.56585106,5.7304039 L3.56585106,6.93669255 L4.20522667,6.33834355 C4.32244553,6.2299161 4.50120429,6.20647233 4.62801379,6.30530914 C4.78785769,6.42785612 4.79265301,6.65883056 4.65172396,6.79070179 L3.46728065,7.90747785 C3.40600715,7.96395604 3.33088052,7.99219512 3.25095857,7.99219512 Z" id="Path"></path>
            <path d="M3.3300813,5.59453659 C3.23524059,5.59453659 3.14039988,5.56176859 3.06367479,5.50182712 C2.98507194,5.43966492 2.93682742,5.34683754 2.93112482,5.24678741 C2.92542221,5.14673728 2.9628067,5.04902926 3.03383727,4.97833834 L5.15976117,2.78661204 C5.30761678,2.63396111 5.56203499,2.62303844 5.72800624,2.75917216 C5.89371109,2.89557229 5.90569938,3.13001001 5.75731096,3.28266094 L3.63191987,5.47465366 C3.54906744,5.55644045 3.43637749,5.59453659 3.32981489,5.59453659 L3.3300813,5.59453659 Z" id="Path"></path>
        </g>
        <path d="M8,0.5 C12.1362222,0.5 15.5,3.86377778 15.5,8 C15.5,12.1362222 12.1362222,15.5 8,15.5 C3.86377778,15.5 0.5,12.1362222 0.5,8 C0.5,3.86377778 3.86377778,0.5 8,0.5 Z M8.10294118,1.60000002 C4.50738562,1.60000002 1.60294118,4.50444447 1.60294118,8.10000002 C1.60294118,11.6955556 4.50738562,14.6 8.10294118,14.6 C11.6984967,14.6 14.6029412,11.6955556 14.6029412,8.10000002 C14.6029412,4.50444447 11.6984967,1.60000002 8.10294118,1.60000002 Z" id="4.icon_help" fill="#0077FF"></path>
    </g>
</svg>