<?xml version="1.0" encoding="UTF-8"?>
<svg width="16px" height="16px" viewBox="0 0 16 16" version="1.1" xmlns="http://www.w3.org/2000/svg" xmlns:xlink="http://www.w3.org/1999/xlink">
    <!-- Generator: Sketch 52.1 (67048) - http://www.bohemiancoding.com/sketch -->
    <title>4.icon_contract</title>
    <desc>Created with Sketch.</desc>
    <g id="4.icon_contract" stroke="none" stroke-width="1" fill="none" fill-rule="evenodd">
        <g transform="translate(1.500000, 1.000000)" fill="#0077FF" fill-rule="nonzero" id="Shape">
            <path d="M8.44261614,8.22144422 C8.30354586,8.22144422 8.21083233,8.17771313 8.11811881,8.09025097 C7.93269177,7.91532663 7.93269177,7.65294011 8.11811881,7.47801575 L9.09161081,6.55966295 L8.11811881,5.64131013 C7.93269177,5.46638579 7.93269177,5.20399927 8.11811881,5.02907493 C8.30354586,4.85415059 8.58168643,4.85415059 8.76711348,5.02907493 L9.97238929,6.16608316 C10.2041731,6.3847386 10.2041731,6.73458729 9.97238929,6.95324272 L8.76711348,8.09025097 C8.67439996,8.17771314 8.58168643,8.22144423 8.44261614,8.22144422 Z"></path>
            <path d="M12.0120868,13.9939476 C11.8266598,13.9939476 11.6875895,13.9502165 11.5021624,13.8627544 L6.40291859,10.8453094 L1.39638828,13.8627544 C1.1182477,14.0376787 0.747393609,14.0376787 0.469253029,13.9064854 C0.191112449,13.7315611 0.0056854058,13.4691746 0.0056854058,13.1193259 L0.0056854058,0.874621727 C0.0056854058,0.393579771 0.422896261,0 0.932820652,0 L12.0584436,0 C12.568368,0 12.9855788,0.393579771 12.9855788,0.874621727 L12.9855788,13.1193259 C12.9855788,13.4254435 12.8001518,13.7315611 12.5220112,13.9064854 C12.3365842,13.9502165 12.1511571,13.9939476 12.0120868,13.9939476 Z M12.0120868,13.1193259 L12.0120868,0.874621727 L0.886463884,0.874621727 L0.886463884,13.1193259 L5.93935097,10.1018809 C6.21749155,9.92695659 6.63470241,9.92695659 6.91284299,10.1018809 L12.0120868,13.1193259 Z"></path>
            <path d="M9.69424872,4.37310863 L3.204302,4.37310863 C2.92616142,4.37310863 2.74073438,4.19818429 2.74073438,3.93579777 C2.74073438,3.67341125 2.92616142,3.49848691 3.204302,3.49848691 L9.69424872,3.49848691 C9.9723893,3.49848691 10.1578163,3.67341125 10.1578163,3.93579777 C10.1578163,4.19818429 9.9723893,4.37310863 9.69424872,4.37310863 Z M9.2306811,6.99697381 L3.204302,6.99697381 C2.92616142,6.99697381 2.74073438,6.82204947 2.74073438,6.55966295 C2.74073438,6.29727643 2.92616142,6.12235209 3.204302,6.12235209 L9.2306811,6.12235209 C9.50882168,6.12235209 9.69424872,6.29727643 9.69424872,6.55966295 C9.69424872,6.82204947 9.50882168,6.99697381 9.2306811,6.99697381 Z"></path>
        </g>
    </g>
</svg>