<?xml version="1.0" encoding="UTF-8"?>
<svg width="16px" height="16px" viewBox="0 0 16 16" version="1.1" xmlns="http://www.w3.org/2000/svg" xmlns:xlink="http://www.w3.org/1999/xlink">
    <!-- Generator: Sketch 52.2 (67145) - http://www.bohemiancoding.com/sketch -->
    <title>4.icon_vote</title>
    <desc>Created with Sketch.</desc>
    <g id="4.icon_vote" stroke="none" stroke-width="1" fill="none" fill-rule="evenodd">
        <g transform="translate(0.500000, 0.500000)" fill="#18C2E9" fill-rule="nonzero" id="Shape">
            <path d="M10.8082031,8.05766602 L13.7630859,5.10292969 L8.6644043,0.00424804688 L1.93901367,6.72949219 L3.26733398,8.05766602 L0,8.05766602 L0,14.995752 L15,14.995752 L15,8.05766602 L10.8082031,8.05766602 Z M8.6644043,0.910253906 L12.8570801,5.10292969 L7.03769531,10.922168 L2.84501953,6.72949219 L8.6644043,0.910253906 Z M14.3594238,14.3554688 L0.640576172,14.3554688 L0.640576172,8.69838867 L3.90791016,8.69838867 L6.46787109,11.2583496 L3.4378418,11.2583496 L3.4378418,11.8989258 L11.7101074,11.8989258 L11.7101074,11.2583496 L7.60766602,11.2583496 L10.167627,8.69838867 L14.3594238,8.69838867 L14.3594238,14.3554688 Z"></path>
            <polygon points="9.93566869 5.39658932 9.53907937 5 7.11182963 7.42724975 5.83099492 6.14641504 5.43427734 6.54300436 7.11182963 8.22055664"></polygon>
        </g>
    </g>
</svg>