<?xml version="1.0" encoding="UTF-8"?>
<svg width="16px" height="16px" viewBox="0 0 16 16" version="1.1" xmlns="http://www.w3.org/2000/svg" xmlns:xlink="http://www.w3.org/1999/xlink">
    <!-- Generator: Sketch 50.2 (55047) - http://www.bohemiancoding.com/sketch -->
    <title>4.icon_wallet</title>
    <desc>Created with Sketch.</desc>
    <defs></defs>
    <g id="4.icon_wallet" stroke="none" stroke-width="1" fill="none" fill-rule="evenodd">
        <g transform="translate(0.500000, 2.000000)" fill="#18C2E9" id="Fill-1">
            <path d="M13.3163265,0 L1.68367347,0 C0.765306122,0 0,0.792682927 0,1.74390244 L0,11.2560976 C0,12.2073171 0.765306122,13 1.68367347,13 L13.3163265,13 C14.2346939,13 15,12.2073171 15,11.2560976 L15,1.74390244 C15,0.792682927 14.2346939,0 13.3163265,0 Z M13.3163265,12.0487805 L1.68367347,12.0487805 C1.25510204,12.0487805 0.918367347,11.7004228 0.918367347,11.2560976 L0.918367347,1.74390244 C0.918367347,1.29957724 1.25510204,0.951219512 1.68367347,0.951219512 L13.3163265,0.951219512 C13.7453061,0.951219512 14.0816327,1.29957724 14.0816327,1.74390244 L14.0816327,3.3918374 L10.8673469,3.3918374 C8.75510204,3.3918374 8.57142857,4.6918374 8.57142857,6.14995122 L8.57142857,6.65684553 C8.57142857,8.11495935 8.75510204,9.41495935 10.8673469,9.41495935 L14.0816327,9.41495935 L14.0816327,11.2560976 C14.0816327,11.7004228 13.715102,12.0487805 13.3163265,12.0487805 Z M14.0816327,4.34305691 L14.0816327,8.46500813 L10.8673469,8.46500813 C9.61265306,8.46500813 9.48979592,8.11665041 9.48979592,6.65853659 L9.48979592,6.15164228 C9.48979592,4.72481301 9.61265306,4.34474797 10.8673469,4.34474797 L14.0816327,4.34474797 L14.0816327,4.34305691 Z"></path>
        </g>
    </g>
</svg>