<?xml version="1.0" encoding="UTF-8"?>
<svg width="8px" height="8px" viewBox="0 0 8 8" version="1.1" xmlns="http://www.w3.org/2000/svg" xmlns:xlink="http://www.w3.org/1999/xlink">
    <!-- Generator: Sketch 52.2 (67145) - http://www.bohemiancoding.com/sketch -->
    <title>最小化 (1)</title>
    <desc>Created with Sketch.</desc>
    <g id="0.1-0.2" stroke="none" stroke-width="1" fill="none" fill-rule="evenodd">
        <g id="22.钱包-添加共享钱包" transform="translate(-934.000000, -10.000000)" fill="#24272B">
            <g id="最小/大/关闭" transform="translate(908.000000, 10.000000)">
                <g id="最小化-(1)" transform="translate(26.000000, 0.000000)">
                    <path d="M6.51851852,0 L1.48148148,0 C1.09792265,0 0.604095494,0 -4.54747351e-13,0 C-4.54747351e-13,0.559642922 -4.54747351e-13,1.05347008 -4.54747351e-13,1.48148148 L-4.54747351e-13,6.51851852 C-4.54747351e-13,6.79153695 -4.54747351e-13,7.28536411 -4.54747351e-13,8 C0.717462878,8 1.21129004,8 1.48148148,8 L6.51851852,8 C6.8100346,8 7.30386176,8 8,8 C8,7.26403948 8,6.77021232 8,6.51851852 L8,1.48148148 C8,1.23095821 8,0.737131054 8,0 C7.30503229,0 6.81120513,0 6.51851852,0 Z M7.40740741,6.51851852 C7.40740741,6.66012978 7.40740741,6.95642608 7.40740741,7.40740741 C6.99912948,7.40740741 6.70283318,7.40740741 6.51851852,7.40740741 L5.62962963,7.40740741 L5.62962963,6.51851852 C5.62962963,6.02962963 6.02962963,5.62962963 6.51851852,5.62962963 L7.40740741,5.62962963 L7.40740741,6.51851852 Z M7.40740741,5.03703704 L6.51851852,5.03703704 C5.7037037,5.03703704 5.03703704,5.7037037 5.03703704,6.51851852 L5.03703704,7.40740741 L1.48148148,7.40740741 C1.31905057,7.40740741 1.02275427,7.40740741 0.592592593,7.40740741 C0.592592593,6.97830983 0.592592593,6.68201353 0.592592593,6.51851852 L0.592592593,1.48148148 C0.592592593,1.3110507 0.592592593,1.01475441 0.592592593,0.592592593 C1.02969004,0.592592593 1.32598633,0.592592593 1.48148148,0.592592593 L6.51851852,0.592592593 C6.6779721,0.592592593 6.9742684,0.592592593 7.40740741,0.592592593 C7.40740741,1.01871285 7.40740741,1.31500914 7.40740741,1.48148148 L7.40740741,5.03703704 Z" id="Shape" fill-rule="nonzero"></path>
                    <path d="M4.44444444,2.37037037 C4.28148148,2.37037037 4.14814815,2.5037037 4.14814815,2.66666667 L4.14814815,3.73333333 L2.05925926,1.64444444 C1.94074074,1.52592593 1.76296296,1.52592593 1.64444444,1.64444444 C1.52592593,1.76296296 1.52592593,1.94074074 1.64444444,2.05925926 L3.73333333,4.14814815 L2.66666667,4.14814815 C2.5037037,4.14814815 2.37037037,4.28148148 2.37037037,4.44444444 C2.37037037,4.60740741 2.5037037,4.74074074 2.66666667,4.74074074 L4.44444444,4.74074074 C4.53333333,4.74074074 4.60740741,4.71111111 4.65185185,4.65185185 C4.71111111,4.59259259 4.74074074,4.51851852 4.74074074,4.44444444 L4.74074074,2.66666667 C4.74074074,2.5037037 4.60740741,2.37037037 4.44444444,2.37037037 Z" id="Path"></path>
                </g>
            </g>
        </g>
    </g>
</svg>