<?xml version="1.0" encoding="UTF-8"?>
<svg width="30px" height="30px" viewBox="0 0 30 30" version="1.1" xmlns="http://www.w3.org/2000/svg" xmlns:xlink="http://www.w3.org/1999/xlink">
    <!-- Generator: Sketch 52.1 (67048) - http://www.bohemiancoding.com/sketch -->
    <title>babbitt copy</title>
    <desc>Created with Sketch.</desc>
    <g id="babbitt-copy" stroke="none" stroke-width="1" fill="none" fill-rule="evenodd">
        <g id="github" transform="translate(1.000000, 1.000000)" stroke="#0077FF" stroke-width="0.589473684">
            <circle id="Oval" cx="14" cy="14" r="14"></circle>
        </g>
        <g id="巴比特1-copy-2" transform="translate(6.000000, 7.000000)" fill="#4897F6">
            <path d="M7.875,7.70762245 C6.34568501,7.1630832 5.25,5.69377823 5.25,3.96666667 C5.25,1.77593716 7.0128788,4.54747351e-13 9.1875,4.54747351e-13 C11.3621212,4.54747351e-13 13.125,1.77593716 13.125,3.96666667 C13.125,5.69377823 12.029315,7.1630832 10.5,7.70762245 L10.5,5.56951654 C10.9580637,5.18841747 11.25,4.61188729 11.25,3.96666667 C11.25,2.81914169 10.3265873,1.88888889 9.1875,1.88888889 C8.0484127,1.88888889 7.125,2.81914169 7.125,3.96666667 C7.125,4.61188729 7.41693625,5.18841747 7.875,5.56951654 L7.875,7.70762245 Z" id="合并形状"></path>
            <rect id="矩形" x="8.25" y="4.15555556" width="1.875" height="8.68888889" rx="0.9375"></rect>
            <path d="M17.25,8.84343434 L15.75,8.46565657 L15.75,9.27121212 C15.75,12.9991342 12.7279221,16.0212121 9,16.0212121 C5.27207794,16.0212121 2.25,12.9991342 2.25,9.27121212 L2.25,8.46565657 L0.75,8.84343434 L4.125,5.28888889 L4.125,9.25732323 C4.125,11.9497114 6.30761184,14.1323232 9,14.1323232 C11.6923882,14.1323232 13.875,11.9497114 13.875,9.25732323 L13.875,5.28888889 L17.25,8.84343434 Z" id="合并形状"></path>
        </g>
    </g>
</svg>