<?xml version="1.0" encoding="UTF-8"?>
<svg width="28px" height="28px" viewBox="0 0 28 28" version="1.1" xmlns="http://www.w3.org/2000/svg" xmlns:xlink="http://www.w3.org/1999/xlink">
    <!-- Generator: Sketch 50.2 (55047) - http://www.bohemiancoding.com/sketch -->
    <title>46.facebook</title>
    <desc>Created with Sketch.</desc>
    <defs></defs>
    <g id="46.facebook" stroke="none" stroke-width="1" fill="none" fill-rule="evenodd">
        <g id="facebook">
            <path d="M16.2185874,7.85765238 C16.7097683,7.85765238 17.3792081,7.94615743 17.9207665,8.05994963 C18.0467103,8.08523677 18.1862173,8.05994963 18.2995668,7.98408816 C18.4112068,7.90918843 18.4847837,7.78915905 18.5010769,7.65535512 L18.842094,5.18499443 C18.8693721,4.94500653 18.7198078,4.72040083 18.4884825,4.65396414 C17.605907,4.40011999 16.6477652,4.27368421 15.6499027,4.27368421 C12.6369391,4.27368421 11.1730844,5.71699731 11.1730844,8.70574472 L11.1730844,10.0099785 L9.63366347,10.0099785 C9.36881239,10.0099785 9.15410817,10.2255214 9.15410817,10.491407 L9.15410817,13.024013 C9.15410817,13.3031443 9.36821265,13.5180852 9.63366347,13.5180851 L11.1721156,13.5180851 L11.1721156,23.2439147 C11.1721156,23.5104024 11.3871889,23.7253432 11.6516709,23.7253432 L14.8051103,23.7253432 C15.0569979,23.7253432 15.2720712,23.5104024 15.2720712,23.2439147 L15.2720712,13.5180851 L17.8200115,13.5180851 C18.0718991,13.5180851 18.2753468,13.3157879 18.2995668,13.0619437 L18.4758881,10.5293377 C18.4864933,10.394856 18.4408629,10.2620108 18.3499443,10.162674 C18.2638474,10.0649079 18.139881,10.009242 18.009896,10.0099785 L15.2720712,10.0099785 L15.2720712,8.89637097 C15.2720712,8.05994963 15.3602319,7.85765238 16.2185874,7.85765238 Z" id="Shape" fill="#CECECE" fill-rule="nonzero"></path>
            <circle id="Oval" stroke="#CECECE" stroke-width="0.589473684" cx="14" cy="14" r="14"></circle>
        </g>
    </g>
</svg>