<?xml version="1.0" encoding="UTF-8"?>
<svg width="28px" height="28px" viewBox="0 0 28 28" version="1.1" xmlns="http://www.w3.org/2000/svg" xmlns:xlink="http://www.w3.org/1999/xlink">
    <!-- Generator: Sketch 50.2 (55047) - http://www.bohemiancoding.com/sketch -->
    <title>46.github</title>
    <desc>Created with Sketch.</desc>
    <defs></defs>
    <g id="46.github" stroke="none" stroke-width="1" fill="none" fill-rule="evenodd">
        <g id="github">
            <path d="M20.7274456,8.17494737 C21.4289836,6.86947368 20.6272259,5.16168421 20.6272259,5.16168421 C18.8232709,5.16168421 17.5197843,6.36673684 17.5197843,6.36673684 C16.8182462,5.96505263 14.5125624,5.96505263 14.5125624,5.96505263 C14.5125624,5.96505263 12.2068786,5.96505263 11.5053405,6.36673684 C11.5053405,6.36673684 10.2024842,5.16168421 8.39789896,5.16168421 C8.39789896,5.16168421 7.59614121,6.86884211 8.29767924,8.17494737 C8.29767924,8.17494737 6.69416375,9.68126316 7.29548206,12.8953684 C7.86087254,15.9155789 10.5031434,16.712 12.2068786,16.712 C12.2068786,16.712 11.5053405,17.3145263 11.6055603,18.3187368 C11.6055603,18.3187368 10.6033631,18.9212632 9.60116589,18.5195789 C8.59896871,18.1178947 8.09787012,17.1136842 8.09787012,17.1136842 C8.09787012,17.1136842 7.09567293,15.8082105 6.09347575,16.3103158 C6.09347575,16.3103158 5.79281659,16.6115789 6.89523349,17.1136842 C6.89523349,17.1136842 7.69699124,18.3187368 7.9976504,19.0216842 C8.29830955,19.7246316 9.90182505,20.3271579 11.5059709,19.9254737 L11.5059709,22.2351579 C11.5059709,22.2351579 11.5059709,22.436 11.105092,22.5364211 C10.7042131,22.6368421 10.7042131,22.8376842 10.9046525,22.8376842 L18.1217329,22.8376842 C18.3221723,22.8376842 18.3221723,22.6368421 17.9212935,22.5364211 C17.5204146,22.436 17.5204146,22.2351579 17.5204146,22.2351579 L17.5204146,19.9254737 C17.5204146,19.9254737 17.529239,18.7210526 17.5204146,18.3187368 C17.4983536,17.3094737 16.8188766,16.712 16.8188766,16.712 C18.5226118,16.712 21.1648826,15.9155789 21.7302731,12.8953684 C22.3315914,9.68126316 20.7280759,8.17494737 20.7280759,8.17494737 L20.7274456,8.17494737 Z" id="Shape" fill="#CECECE" fill-rule="nonzero"></path>
            <circle id="Oval" stroke="#CECECE" stroke-width="0.589473684" cx="14" cy="14" r="14"></circle>
        </g>
    </g>
</svg>