<?xml version="1.0" encoding="UTF-8"?>
<svg width="30px" height="30px" viewBox="0 0 30 30" version="1.1" xmlns="http://www.w3.org/2000/svg" xmlns:xlink="http://www.w3.org/1999/xlink">
    <!-- Generator: Sketch 52.1 (67048) - http://www.bohemiancoding.com/sketch -->
    <title>medium</title>
    <desc>Created with Sketch.</desc>
    <g id="medium" stroke="none" stroke-width="1" fill="none" fill-rule="evenodd">
        <g transform="translate(1.000000, 1.000000)">
            <path d="M22.8248524,18.8672435 L22.8248524,20.9309115 L16.4950338,20.9309115 L16.4950338,18.8672435 L17.8162699,18.8672435 L17.8162699,9.72543411 L17.7569594,9.72543411 L14.661456,20.9309115 L12.2663213,20.9309115 L9.20993766,9.72543411 L9.13169828,9.72543411 L9.13169828,18.8672435 L10.4630297,18.8672435 L10.4630297,20.9309115 L5.15915665,20.9309115 L5.15915665,18.8672435 L5.83933452,18.8672435 C5.97730505,18.8672435 6.11864071,18.8032146 6.2633415,18.6751568 C6.40804229,18.547099 6.48039269,18.4236749 6.48039269,18.3048845 L6.48039269,9.60664367 C6.48039269,9.48785323 6.40804229,9.3564255 6.2633415,9.2123605 C6.11864071,9.0682955 5.97730505,8.99584176 5.83933452,8.99499927 L5.15915665,8.99499927 L5.15915665,6.93133122 L11.7842658,6.93133122 L13.9636112,15.0368835 L14.0229217,15.0368835 L16.221196,6.93133122 L22.8261143,6.93133122 L22.8261143,8.99499927 L22.1257456,8.99499927 C22.0012356,8.99499927 21.8666302,9.06745301 21.7219294,9.2123605 C21.5772286,9.35726799 21.5048782,9.48869572 21.5048782,9.60664367 L21.5048782,18.3048845 C21.5048782,18.4236749 21.5755461,18.547099 21.7168817,18.6751568 C21.8582174,18.8032146 21.9945053,18.8672435 22.1257456,18.8672435 L22.8261143,18.8672435 L22.8248524,18.8672435 Z" id="Shape" fill="#9EABBE" fill-rule="nonzero"></path>
            <circle id="Oval" stroke="#9EABBE" stroke-width="0.589473684" cx="14" cy="14" r="14"></circle>
        </g>
    </g>
</svg>