<?xml version="1.0" encoding="UTF-8"?>
<svg width="30px" height="30px" viewBox="0 0 30 30" version="1.1" xmlns="http://www.w3.org/2000/svg" xmlns:xlink="http://www.w3.org/1999/xlink">
    <!-- Generator: Sketch 52.1 (67048) - http://www.bohemiancoding.com/sketch -->
    <title>Money </title>
    <desc>Created with Sketch.</desc>
    <g id="Money-" stroke="none" stroke-width="1" fill="none" fill-rule="evenodd">
        <g id="github" transform="translate(1.000000, 1.000000)" stroke="#9EABBE" stroke-width="0.589473684">
            <circle id="Oval" cx="14" cy="14" r="14"></circle>
        </g>
        <path d="M23.1779196,17.5449515 L23.1779196,15.9093752 L22.2982025,15.9093752 L22.2982025,17.6791926 L20.4253057,17.6791926 L20.4253057,15.9093752 L19.3925562,15.9093752 C18.9618796,17.8705945 17.196324,19.3444319 15.0888505,19.3444319 C12.6600092,19.3444319 10.6841435,17.3873265 10.6841435,14.982029 C10.6841435,12.5767315 12.6602278,10.6196261 15.0888505,10.6196261 C17.196324,10.6196261 18.9618796,12.093247 19.3925562,14.0546828 L23.1779196,14.0546828 L23.1779196,11.9375707 C23.2369464,11.766738 23.1304796,11.5837804 23.1304796,11.3932446 C23.1304796,10.7133784 22.1467005,9.79642505 21.9422931,9.75117281 L16.3898437,6.49301128 C16.0822488,6.18837058 15.6574748,6 15.1881029,6 C14.9023697,6 14.5890907,6.10847547 14.3101347,6.29359829 L8.1838142,9.80162148 C7.53954819,10.0211706 7.07061348,10.6131306 7.03935116,11.3181129 L7,11.3752737 L7,18.5511103 L7.03891393,18.6180143 C7.03825808,18.6370679 7.03738361,18.656338 7.03738361,18.6756081 C7.03738361,19.3197488 7.4029122,19.8792311 7.93961836,20.16222 L7.9413673,20.1654678 L14.2071658,23.7135468 L14.2362419,23.7115981 C14.507765,23.8936897 14.8352541,24 15.1878843,24 C15.5330814,24 15.9182856,23.8417254 16.2346252,23.5810378 L16.2551753,23.5797387 L22.1193733,20.2678808 C22.7881245,20.0416196 23.2,19.4141506 23.2,18.675175 C23.2,18.4162196 23.1923484,17.5427863 23.1779196,17.5449515 Z" id="路径" fill="#9EABBE"></path>
    </g>
</svg>