<?xml version="1.0" encoding="UTF-8"?>
<svg width="30px" height="30px" viewBox="0 0 30 30" version="1.1" xmlns="http://www.w3.org/2000/svg" xmlns:xlink="http://www.w3.org/1999/xlink">
    <!-- Generator: Sketch 52.1 (67048) - http://www.bohemiancoding.com/sketch -->
    <title>reddit copy</title>
    <desc>Created with Sketch.</desc>
    <g id="reddit-copy" stroke="none" stroke-width="1" fill="none" fill-rule="evenodd">
        <g id="reddit" transform="translate(1.000000, 1.000000)">
            <path d="M9.21037664,15.1785732 C9.21037664,14.5170478 9.74618227,13.9812422 10.4077076,13.9812422 C11.069233,13.9812422 11.6050387,14.5170478 11.6050387,15.1785732 C11.6050387,15.8400986 11.069233,16.3759042 10.4077076,16.3759042 C9.74618227,16.3759042 9.21037664,15.8400986 9.21037664,15.1785732 Z M16.3943627,15.1785732 C16.3943627,14.5170478 16.9301683,13.9812422 17.5916937,13.9812422 C18.2532191,13.9812422 18.7890247,14.5170478 18.7890247,15.1785732 C18.7890247,15.8400986 18.2532191,16.3759042 17.5916937,16.3759042 C16.9301683,16.3759042 16.3943627,15.8400986 16.3943627,15.1785732 Z M16.4524332,17.7372696 C16.760746,17.4942114 17.2079491,17.5474926 17.4510073,17.8558053 C17.6940655,18.1641181 17.6407843,18.6113212 17.3324715,18.8543794 C16.4739852,19.5308714 15.1659011,19.9678972 13.9997007,19.9678972 C12.8335003,19.9678972 11.5254162,19.5308714 10.6669298,18.8543794 C10.3586171,18.6113212 10.3053359,18.1641181 10.5483941,17.8558053 C10.7914523,17.5474926 11.2386554,17.4942114 11.5469681,17.7372696 C12.0414658,18.1270008 13.0196853,18.5460667 13.9997007,18.5460667 C14.9797161,18.5460667 15.9579355,18.1270008 16.4524332,17.7372696 Z M23.5783487,12.7839112 C23.5783487,11.4614591 22.5061388,10.3892492 21.1836867,10.3892492 C20.2832938,10.3892492 19.5002393,10.8861415 19.0913508,11.6207041 C17.8604945,10.9472054 16.3608374,10.5125743 14.7270793,10.4119985 L16.1560938,7.20315138 L18.8913965,7.99279117 C19.137448,8.69143381 19.8025654,9.19251684 20.5856199,9.19251684 C21.5776086,9.19251684 22.3816164,8.38850907 22.3816164,7.39652033 C22.3816164,6.4045316 21.5776086,5.60052383 20.5856199,5.60052383 C19.9019439,5.60052383 19.3068703,5.98307109 19.0039456,6.54581666 L15.9561395,5.66577837 C15.6149002,5.56759723 15.2539049,5.73522357 15.1096265,6.05970027 L13.1681543,10.4191825 C11.5751054,10.5311329 10.1137629,10.9621721 8.90924792,11.6207041 C8.50035938,10.8861415 7.71610757,10.3898478 6.81631332,10.3898478 C5.49386123,10.3898478 4.42165132,11.4620578 4.42165132,12.7845098 C4.42165132,13.7633279 5.00894217,14.6038543 5.85066587,14.9750269 C5.69980216,15.4246247 5.61898232,15.8939785 5.61898232,16.3765029 C5.61898232,19.6829324 9.37141768,22.3631579 14.0002993,22.3631579 C18.629181,22.3631579 22.3816164,19.6829324 22.3816164,16.3765029 C22.3816164,15.8939785 22.3013952,15.4252234 22.1499328,14.9756256 C22.9910578,14.604453 23.5789474,13.7633279 23.5789474,12.7845098 L23.5783487,12.7839112 Z M20.5850212,6.72242298 C20.9567925,6.72242298 21.2585199,7.02415039 21.2585199,7.39592167 C21.2585199,7.76769295 20.9567925,8.06942036 20.5850212,8.06942036 C20.2132499,8.06942036 19.9115225,7.76769295 19.9115225,7.39592167 C19.9115225,7.02415039 20.2132499,6.72242298 20.5850212,6.72242298 Z M5.61838363,12.7839112 C5.61838363,12.1235831 6.15538659,11.5865802 6.81571464,11.5865802 C7.29285104,11.5865802 7.70593024,11.8673543 7.89810187,12.2720522 C7.27249642,12.7467939 6.75405209,13.2939742 6.3703075,13.8950344 C5.93028836,13.7178294 5.61838363,13.2867902 5.61838363,12.7839112 Z M13.9997007,20.9407287 C10.1562681,20.9407287 7.0402142,18.8968846 7.0402142,16.3759042 C7.0402142,13.8549238 10.1562681,11.8110798 13.9997007,11.8110798 C17.8431332,11.8110798 20.9591871,13.8549238 20.9591871,16.3759042 C20.9591871,18.8968846 17.8431332,20.9407287 13.9997007,20.9407287 Z M21.6290938,13.8950344 C21.2453492,13.2945729 20.7269049,12.7467939 20.1012995,12.2720522 C20.2934711,11.8673543 20.7065503,11.5865802 21.1836867,11.5865802 C21.8440147,11.5865802 22.3810177,12.1235832 22.3810177,12.7839112 C22.3810177,13.2867902 22.0697116,13.7178294 21.6290938,13.8950344 Z" id="Shape" fill="#4897F6" fill-rule="nonzero"></path>
            <circle id="Oval" stroke="#0077FF" stroke-width="0.589473684" cx="14" cy="14" r="14"></circle>
        </g>
    </g>
</svg>