<?xml version="1.0" encoding="UTF-8"?>
<svg width="28px" height="28px" viewBox="0 0 28 28" version="1.1" xmlns="http://www.w3.org/2000/svg" xmlns:xlink="http://www.w3.org/1999/xlink">
    <!-- Generator: Sketch 50.2 (55047) - http://www.bohemiancoding.com/sketch -->
    <title>46.wechat</title>
    <desc>Created with Sketch.</desc>
    <defs></defs>
    <g id="46.wechat" stroke="none" stroke-width="1" fill="none" fill-rule="evenodd">
        <g id="wechat">
            <g id="微信" transform="translate(5.157895, 6.778947)" fill="#CECECE" fill-rule="nonzero">
                <path d="M11.9593159,4.37106462 C12.1619909,4.37106462 12.362501,4.38597505 12.5614127,4.40816827 C12.0204199,1.88254368 9.32719086,0.00604024709 6.25303315,0.00604024709 C2.81615651,0.00604024709 0.000840938547,2.35476827 0.000840938547,5.33722014 C0.000840938547,7.05875649 0.93747197,8.47246846 2.50266473,9.56896349 L1.8773403,11.4546566 L4.06298131,10.3557881 C4.84507187,10.5109783 5.47254101,10.6705707 6.25301291,10.6705707 C6.44921336,10.6705707 6.64375469,10.6608332 6.83667738,10.6456388 C6.71453011,10.226544 6.64375469,9.78758899 6.64375469,9.33214118 C6.64377493,6.59355096 8.98941936,4.37104433 11.9593159,4.37104433 L11.9593159,4.37106462 Z M8.59758499,2.67147805 C9.06836895,2.67147805 9.38022184,2.98198022 9.38022184,3.45369765 C9.38022184,3.92352846 9.06836895,4.23835161 8.59760523,4.23835161 C8.12900645,4.23835161 7.65878902,3.92350817 7.65878902,3.45367737 C7.65878902,2.98198022 8.12900645,2.67147805 8.59760523,2.67147805 L8.59758499,2.67147805 Z M4.22191238,4.23833133 C3.7533743,4.23833133 3.28044563,3.92348789 3.28044563,3.45365708 C3.28044563,2.98195993 3.75335406,2.67145776 4.22191238,2.67145776 C4.69051116,2.67145776 5.00238428,2.98195993 5.00238428,3.45367737 C5.00238428,3.92350817 4.69049092,4.23831104 4.22191238,4.23831104 L4.22191238,4.23833133 Z M17.6656391,9.25681813 C17.6656391,6.7506481 15.1642806,4.70781727 12.3549541,4.70781727 C9.38020161,4.70781727 7.03728864,6.7506481 7.03728864,9.25681813 C7.03728864,11.7672889 9.38022184,13.8057987 12.3549541,13.8057987 C12.9775875,13.8057987 13.6055827,13.648377 14.2309071,13.4912393 L15.9458249,14.4327672 L15.4756075,12.8662588 C16.7305862,11.9222762 17.6656391,10.6705301 17.6656391,9.25681813 Z M10.6308302,8.47244818 C10.3195236,8.47244818 10.0054856,8.16192572 10.0054856,7.84521593 C10.0054856,7.53286771 10.3195034,7.21832856 10.6308302,7.21832856 C11.1037387,7.21832856 11.4134469,7.53288799 11.4134469,7.84521593 C11.4134469,8.16192572 11.1037387,8.47244818 10.6308302,8.47244818 Z M14.0698516,8.47244818 C13.7606897,8.47244818 13.4488368,8.16192572 13.4488368,7.84521593 C13.4488368,7.53286771 13.7606897,7.21832856 14.0698718,7.21832856 C14.5384504,7.21832856 14.8524277,7.53288799 14.8524277,7.84521593 C14.852448,8.16192572 14.5384706,8.47244818 14.0698718,8.47244818 L14.0698516,8.47244818 Z" id="Shape"></path>
            </g>
            <circle id="Oval" stroke="#CECECE" stroke-width="0.588235294" cx="14" cy="14" r="14"></circle>
        </g>
    </g>
</svg>