<?xml version="1.0" encoding="UTF-8"?>
<svg width="30px" height="30px" viewBox="0 0 30 30" version="1.1" xmlns="http://www.w3.org/2000/svg" xmlns:xlink="http://www.w3.org/1999/xlink">
    <!-- Generator: Sketch 52.1 (67048) - http://www.bohemiancoding.com/sketch -->
    <title>weite copy</title>
    <desc>Created with Sketch.</desc>
    <g id="weite-copy" stroke="none" stroke-width="1" fill="none" fill-rule="evenodd">
        <g id="weite" transform="translate(1.000000, 1.000000)">
            <path d="M22.3668988,7.20497268 C22.3668988,7.20497268 20.7417652,8.13141639 20.0452794,8.13141639 C18.5362267,5.81530713 12.9643401,6.8575563 13.8929879,11.2581639 C9.13366802,11.3739694 6.46380567,7.66819454 6.46380567,7.66819454 C6.46380567,7.66819454 4.83867206,10.3317202 7.50853441,12.4162185 C6.92812955,12.532024 5.99948178,12.1846076 5.99948178,12.1846076 C5.99948178,12.1846076 5.53515789,14.5007169 8.7854251,15.542966 C8.43718219,16.0061879 7.1602915,15.6587715 7.1602915,15.6587715 C7.1602915,15.6587715 7.50853441,17.6274644 10.4105587,18.2064917 C8.43718219,20.0593791 4.95475304,19.4803518 5.18691498,19.7119627 C8.08893927,22.2596829 20.8578462,22.8387102 20.9739271,10.6791366 C21.670413,10.4475256 22.8312227,8.7104437 22.8312227,8.7104437 C22.8312227,8.7104437 20.9739271,9.28947102 20.8578462,9.17366556 C22.2508178,8.36302732 22.3668988,7.20497268 22.3668988,7.20497268" id="Shape" fill="#4897F6" fill-rule="nonzero"></path>
            <circle id="Oval" stroke="#0077FF" stroke-width="0.589473684" cx="14" cy="14" r="14"></circle>
        </g>
    </g>
</svg>