<?xml version="1.0" encoding="UTF-8"?>
<svg width="12px" height="12px" viewBox="0 0 12 12" version="1.1" xmlns="http://www.w3.org/2000/svg" xmlns:xlink="http://www.w3.org/1999/xlink">
    <!-- Generator: Sketch 52.1 (67048) - http://www.bohemiancoding.com/sketch -->
    <title>10.icon_An error </title>
    <desc>Created with Sketch.</desc>
    <g id="10.icon_An-error-" stroke="none" stroke-width="1" fill="none" fill-rule="evenodd">
        <path d="M11.7543696,9.97129873 L7.04628628,0.837629788 C6.47039041,-0.279209929 5.5298502,-0.279209929 4.95395433,0.837629788 L0.245871047,9.97129873 C-0.330024822,11.0896457 0.140918061,11.9999981 1.29136425,11.9999981 L10.7088764,11.9999981 C11.857977,12.0015053 12.3302654,11.0896457 11.7543696,9.97129873 Z M5.353583,3.43002427 C5.52312244,3.22504424 5.73841062,3.12255423 6.00079308,3.12255423 C6.26317555,3.12255423 6.47846372,3.22353704 6.64800316,3.42550265 C6.81619705,3.62746827 6.90096676,3.8806789 6.90096676,4.18513453 C6.90096676,4.44738839 6.54977793,6.37209057 6.43271498,7.77228504 L5.58636334,7.77228504 C5.48410146,6.37209057 5.1033105,4.44738839 5.1033105,4.18513453 C5.1006194,3.88520051 5.18404357,3.6334971 5.353583,3.43002427 Z M6.63454765,10.0888608 C6.45558935,10.2832904 6.24433783,10.3797516 5.99944753,10.3797516 C5.75455723,10.3797516 5.54330571,10.2832904 5.36434741,10.0888608 C5.18673467,9.89593842 5.0979283,9.66081427 5.0979283,9.38499556 C5.0979283,9.11068405 5.18673467,8.87405269 5.36434741,8.67510149 C5.54196016,8.47615028 5.75455723,8.37667468 5.99944753,8.37667468 C6.24433783,8.37667468 6.4569349,8.47615028 6.63454765,8.67510149 C6.81216039,8.87405269 6.90096676,9.11068405 6.90096676,9.38499556 C6.89962121,9.66081427 6.81216039,9.89443122 6.63454765,10.0888608 Z" id="3.icon_An-error" fill="#FFBA01" fill-rule="nonzero"></path>
    </g>
</svg>