<?xml version="1.0" encoding="UTF-8"?>
<svg width="16px" height="16px" viewBox="0 0 16 16" version="1.1" xmlns="http://www.w3.org/2000/svg" xmlns:xlink="http://www.w3.org/1999/xlink">
    <!-- Generator: Sketch 52.1 (67048) - http://www.bohemiancoding.com/sketch -->
    <title>57.icon_perform</title>
    <desc>Created with Sketch.</desc>
    <g id="57.icon_perform" stroke="none" stroke-width="1" fill="none" fill-rule="evenodd">
        <g id="执行" transform="translate(9.000000, 9.000000)" fill="#0077FF" fill-rule="nonzero">
            <path d="M5.87446145,1.20600588 L2.58870643,4.37849124 C2.50836108,4.45628047 2.39925653,4.5 2.2854745,4.5 C2.17169247,4.5 2.06258792,4.45628047 1.98224258,4.37849124 L0.125372966,2.58538034 C0.0171790834,2.48082582 -0.0250254859,2.32848251 0.0146573112,2.18573667 C0.0543401083,2.04299083 0.169881511,1.93152894 0.31775819,1.89333762 C0.465634869,1.85514631 0.623380838,1.89602773 0.731574716,2.00058226 L2.28573658,3.50066147 L5.2682597,0.620701689 C5.39100562,0.502703748 5.57519865,0.467544922 5.73521434,0.531569238 C5.89523003,0.595593554 5.99967631,0.74624065 6,0.913480308 C6,1.02760576 5.95203852,1.13135619 5.87446145,1.20600588 Z" id="Shape"></path>
        </g>
        <g id="记录-(1)" transform="translate(2.000000, 2.000000)" fill="#0077FF" fill-rule="nonzero">
            <path d="M2.9990287,3.862667 L8.98680914,3.862667 C9.22289608,3.862667 9.41450895,3.67105416 9.41450893,3.43493378 C9.41450893,3.19884684 9.22289608,3.00723398 8.98680914,3.00723399 L2.9990287,3.00723399 C2.76294176,3.00723399 2.5713289,3.19884684 2.57132891,3.43493378 C2.57134562,3.67105414 2.76294176,3.86266699 2.9990287,3.862667 Z M2.9990287,5.56658289 C2.76294176,5.56658289 2.5713289,5.75822916 2.57132891,5.9943161 C2.57132893,6.23040304 2.76294176,6.4220159 2.9990287,6.42201589 L6.98680914,6.42201589 C7.22289608,6.42201589 7.41450895,6.23040304 7.41450893,5.9943161 C7.41450891,5.75822916 7.22289608,5.56658289 6.98680914,5.56658289 L2.9990287,5.56658289 Z M2.9990287,8.13279837 C2.76294176,8.13279837 2.5713289,8.32441122 2.57132891,8.56049817 C2.57132893,8.79658513 2.76294176,8.98819798 2.9990287,8.98819796 L5.98680914,8.98819796 C6.22289608,8.98819796 6.41450895,8.79658511 6.41450893,8.56049817 C6.41450891,8.32441123 6.22289608,8.13279837 5.98680914,8.13279837 L2.9990287,8.13279837 Z M4.7457647,1.29300986 L6.88424697,1.29300986 C7.23882013,1.29300986 7.52576325,1.00563236 7.52576325,0.651493584 C7.52576325,0.297354808 7.23835233,0.00994388571 6.88424697,0.00994388571 L4.7457647,0.00994388571 C4.39162593,0.00994388571 4.104215,0.297354808 4.104215,0.651493584 C4.104215,1.00563236 4.39162593,1.29300986 4.7457647,1.29300986 Z M5.99933079,11.1301052 C5.46568556,11.1301052 3.61967259,11.1301052 1.71594602,11.1301052 C1.24420651,11.1301052 0.860563135,10.7464618 0.860563135,10.2747223 L0.860563135,2.14844287 C0.860563135,1.67670336 1.24420651,1.29302658 1.71594602,1.29302658 L2.14364581,1.29302658 C2.37973275,1.29302658 2.57134562,1.10141373 2.57134562,0.865326776 C2.57134562,0.62923982 2.37973277,0.437626971 2.14364581,0.437626988 L1.71594602,0.437626988 C0.771147151,0.437626988 0.00514684082,1.203644 0.00514684082,2.14842617 L0.00514684082,10.2747056 C0.00514684082,11.2195045 0.771163853,11.9855048 1.71594602,11.9855048 C3.61735507,11.9855048 5.4552567,11.9855048 5.99411637,11.9855048 C6.53297603,11.9855048 6.53297603,11.1301052 5.99933079,11.1301052 Z M11.9807244,4.58327738 C11.9807244,4.01022329 11.9807244,3.23058226 11.9807244,2.14842617 C11.9807244,1.203644 11.2146907,0.437626988 10.2699252,0.437626988 L9.84222544,0.437626988 C9.60610508,0.437626988 9.41445881,0.629239837 9.41445881,0.865326776 C9.41445881,1.10141371 9.60610508,1.29302658 9.84222544,1.29302658 L10.2699252,1.29302658 C10.7416648,1.29302658 11.1253081,1.67670336 11.1253081,2.14844287 C11.1253081,3.24222054 11.1253081,4.0625538 11.1253081,4.60944263 C11.1253081,5.15633147 11.9807244,5.15633147 11.9807244,4.58327738 Z" id="Shape"></path>
        </g>
    </g>
</svg>