<?xml version="1.0" encoding="UTF-8"?>
<svg width="230px" height="130px" viewBox="0 0 230 130" version="1.1" xmlns="http://www.w3.org/2000/svg" xmlns:xlink="http://www.w3.org/1999/xlink">
    <!-- Generator: Sketch 50.2 (55047) - http://www.bohemiancoding.com/sketch -->
    <title>37.contract_Bg </title>
    <desc>Created with Sketch.</desc>
    <defs>
        <rect id="path-1" x="0" y="0" width="230" height="130" rx="4"></rect>
        <filter x="-6.5%" y="-6.9%" width="113.0%" height="123.1%" filterUnits="objectBoundingBox" id="filter-2">
            <feOffset dx="0" dy="2" in="SourceAlpha" result="shadowOffsetOuter1"></feOffset>
            <feGaussianBlur stdDeviation="2" in="shadowOffsetOuter1" result="shadowBlurOuter1"></feGaussianBlur>
            <feColorMatrix values="0 0 0 0 0.580392157   0 0 0 0 0.580392157   0 0 0 0 0.77254902  0 0 0 0.05 0" type="matrix" in="shadowBlurOuter1" result="shadowMatrixOuter1"></feColorMatrix>
            <feOffset dx="0" dy="4" in="SourceAlpha" result="shadowOffsetOuter2"></feOffset>
            <feGaussianBlur stdDeviation="3" in="shadowOffsetOuter2" result="shadowBlurOuter2"></feGaussianBlur>
            <feColorMatrix values="0 0 0 0 0.188235294   0 0 0 0 0.188235294   0 0 0 0 0.301960784  0 0 0 0.05 0" type="matrix" in="shadowBlurOuter2" result="shadowMatrixOuter2"></feColorMatrix>
            <feMerge>
                <feMergeNode in="shadowMatrixOuter1"></feMergeNode>
                <feMergeNode in="shadowMatrixOuter2"></feMergeNode>
            </feMerge>
        </filter>
        <rect id="path-3" x="0" y="0" width="230" height="130" rx="4"></rect>
    </defs>
    <g id="37.contract_Bg-" stroke="none" stroke-width="1" fill="none" fill-rule="evenodd">
        <g id="17.Card_Bg">
            <g id="4.Card_Bg">
                <g id="box">
                    <use fill="black" fill-opacity="1" filter="url(#filter-2)" xlink:href="#path-1"></use>
                    <use fill="#FFFFFF" fill-rule="evenodd" xlink:href="#path-1"></use>
                </g>
                <mask id="mask-4" fill="white">
                    <use xlink:href="#path-3"></use>
                </mask>
                <g id="Mask"></g>
                <rect id="Rectangle" fill="#709BE7" style="mix-blend-mode: screen;" opacity="0.103713768" mask="url(#mask-4)" transform="translate(-189.593358, 35.307449) rotate(45.000000) translate(189.593358, -35.307449) " x="-468.381237" y="-173.192551" width="557.575758" height="417" rx="69.6969697"></rect>
                <rect id="Rectangle" fill="#709BE7" style="mix-blend-mode: screen;" opacity="0.103713768" mask="url(#mask-4)" transform="translate(209.420642, 44.420642) rotate(45.000000) translate(-209.420642, -44.420642) " x="-69.3672366" y="-94.5793578" width="557.575758" height="278" rx="69.6969697"></rect>
                <rect id="Rectangle" fill="#709BE7" style="mix-blend-mode: screen;" opacity="0.103713768" mask="url(#mask-4)" transform="translate(366.420642, 286.420642) rotate(45.000000) translate(-366.420642, -286.420642) " x="87.6327634" y="147.420642" width="557.575758" height="278" rx="69.6969697"></rect>
                <rect id="Rectangle" fill="#709BE7" style="mix-blend-mode: screen;" opacity="0.103713768" mask="url(#mask-4)" transform="translate(177.420642, 336.420642) rotate(-45.000000) translate(-177.420642, -336.420642) " x="-101.367237" y="197.420642" width="557.575758" height="278" rx="69.6969697"></rect>
            </g>
        </g>
        <g id="4.icon_contract" opacity="0.200000003" transform="translate(1.500000, 1.000000)" fill="#078BF4" fill-rule="nonzero">
            <path d="M20.5034964,19.9663645 C20.1657542,19.9663645 19.9405928,19.8601605 19.7154314,19.6477524 C19.2651086,19.2229361 19.2651086,18.5857117 19.7154314,18.1608954 L22.0796263,15.93061 L19.7154314,13.7003246 C19.2651086,13.2755083 19.2651086,12.6382839 19.7154314,12.2134677 C20.1657542,11.7886514 20.8412385,11.7886514 21.2915613,12.2134677 L24.2186597,14.9747734 C24.7815632,15.5057937 24.7815632,16.3554263 24.2186597,16.8864466 L21.2915613,19.6477524 C21.0663999,19.8601605 20.8412385,19.9663646 20.5034964,19.9663645 Z" id="Shape"></path>
            <path d="M29.1722109,33.9853013 C28.7218881,33.9853013 28.3841459,33.8790973 27.9338231,33.6666892 L15.5499452,26.3386085 L3.39122867,33.6666892 C2.7157444,34.0915054 1.81509876,34.0915054 1.1396145,33.7728932 C0.464130234,33.348077 0.0138074141,32.7108525 0.0138074141,31.86122 L0.0138074141,2.12408134 C0.0138074141,0.955836588 1.02703378,0 2.26542158,0 L29.2847916,0 C30.5231794,0 31.5364058,0.955836588 31.5364058,2.12408134 L31.5364058,31.86122 C31.5364058,32.6046485 31.0860829,33.3480769 30.4105987,33.7728932 C29.9602759,33.8790973 29.509953,33.9853013 29.1722109,33.9853013 Z M29.1722109,31.86122 L29.1722109,2.12408134 L2.15284086,2.12408134 L2.15284086,31.86122 L14.4241381,24.5331394 C15.0996223,24.1083232 16.1128487,24.1083232 16.788333,24.5331394 L29.1722109,31.86122 Z" id="Shape"></path>
            <path d="M23.5431755,10.6204067 L7.78187629,10.6204067 C7.10639202,10.6204067 6.6560692,10.1955904 6.6560692,9.55836601 C6.6560692,8.9211416 7.10639202,8.49632534 7.78187629,8.49632534 L23.5431755,8.49632534 C24.2186597,8.49632534 24.6689826,8.9211416 24.6689826,9.55836601 C24.6689826,10.1955904 24.2186597,10.6204067 23.5431755,10.6204067 Z M22.4173684,16.9926507 L7.78187629,16.9926507 C7.10639202,16.9926507 6.6560692,16.5678344 6.6560692,15.93061 C6.6560692,15.2933856 7.10639202,14.8685694 7.78187629,14.8685694 L22.4173684,14.8685694 C23.0928527,14.8685694 23.5431755,15.2933856 23.5431755,15.93061 C23.5431755,16.5678344 23.0928527,16.9926507 22.4173684,16.9926507 Z" id="Shape"></path>
        </g>
    </g>
</svg>