<?xml version="1.0" encoding="UTF-8"?>
<svg width="15px" height="15px" viewBox="0 0 15 15" version="1.1" xmlns="http://www.w3.org/2000/svg" xmlns:xlink="http://www.w3.org/1999/xlink">
    <!-- Generator: Sketch 52.1 (67048) - http://www.bohemiancoding.com/sketch -->
    <title>17.icon_Shared</title>
    <desc>Created with Sketch.</desc>
    <g id="17.icon_Shared" stroke="none" stroke-width="1" fill="none" fill-rule="evenodd">
        <path d="M13.2935738,3.15111556 L10.5932631,3.15111556 L10.5932631,1.74645301 C10.5932631,1.33416792 10.2767081,1 9.8861531,1 L1.70711003,1 C1.31655507,1 1,1.33416792 1,1.74645301 L1,11.1031547 C1,11.5154398 1.31655507,11.8496077 1.70711003,11.8496077 L4.40742072,11.8496077 L4.40742072,13.253547 C4.40742072,13.6658321 4.72397579,14 5.11453075,14 L13.2928886,14 C13.6834436,14 13.9999987,13.6658321 13.9999987,13.253547 L13.9999987,3.89756858 C14.0003629,3.69960467 13.9260751,3.50962767 13.7935355,3.36957795 C13.6609959,3.22952823 13.481104,3.15092299 13.2935738,3.15111556 Z M12.5857786,12.507094 L5.82232597,12.507094 L5.82232597,4.62087576 C5.82232598,4.35419377 5.68755157,4.10776945 5.46877096,3.97442846 C5.24999035,3.84108747 4.98044152,3.84108747 4.76166091,3.97442846 C4.5428803,4.10776945 4.4081059,4.35419377 4.40810591,4.62087576 L4.40810591,10.3567017 L2.41490525,10.3567017 L2.41490525,2.49362933 L9.17835788,2.49362933 L9.17835788,10.3798475 C9.17835788,10.7921022 9.49494183,11.1263006 9.88546791,11.1263006 C10.275994,11.1263006 10.5925779,10.7921022 10.5925779,10.3798475 L10.5925779,4.64402159 L12.5857786,4.64402159 L12.5857786,12.507094 Z" id="Shape" fill="#0077FF" fill-rule="nonzero"></path>
    </g>
</svg>