<?xml version="1.0" encoding="UTF-8"?>
<svg width="35px" height="35px" viewBox="0 0 35 35" version="1.1" xmlns="http://www.w3.org/2000/svg" xmlns:xlink="http://www.w3.org/1999/xlink">
    <!-- Generator: Sketch 52.2 (67145) - http://www.bohemiancoding.com/sketch -->
    <title>controls</title>
    <desc>Created with Sketch.</desc>
    <g id="8.Controls-2" stroke="none" stroke-width="1" fill="none" fill-rule="evenodd">
        <rect fill="#FFFFFF" x="0" y="0" width="35" height="35"></rect>
        <g id="刷新" transform="translate(1.000000, 3.000000)" fill="#7F7F7F" fill-rule="nonzero">
            <path d="M2.48862838,12.2077209 C2.57772102,12.2077209 2.66750428,12.1960503 2.75797821,12.1727091 L7.88045932,10.8086252 C8.43228114,10.6610268 8.76033541,10.0967203 8.61253833,9.54683035 C8.46405061,8.99762696 7.89841598,8.67496994 7.34314098,8.81844935 L4.63652057,9.53996531 C6.75057134,5.01521572 11.3163962,2.05981487 16.429899,2.05981487 C22.6960809,2.05981487 28.076171,6.49737841 29.2219437,12.6113854 C29.3151802,13.1070415 29.7502838,13.4523531 30.2392573,13.4523531 C30.3021056,13.4523531 30.3656445,13.4475476 30.4298741,13.4351905 C30.9920556,13.3315284 31.3636202,12.7939955 31.2586428,12.2344946 C29.9298503,5.14565153 23.6933659,0.000302064897 16.429899,0.000302064897 C10.5663605,0.000302064897 5.32508922,3.35250239 2.84016441,8.50197088 L2.03764008,5.52254236 C1.88915237,4.97333894 1.32213645,4.65068195 0.768242701,4.79416136 C0.215730259,4.94175976 -0.112324047,5.50606625 0.0354730414,6.05595617 L1.48858083,11.4450146 C1.61220547,11.9049725 2.03142433,12.2077209 2.48862838,12.2077209 Z M32.9362088,23.314536 L31.483101,17.9261641 C31.3353039,17.3776472 30.768288,17.0543037 30.2143943,17.1984696 L25.0919131,18.5625535 C24.5394006,18.710152 24.2113464,19.2744585 24.3591435,19.8243484 C24.5076312,20.3735518 25.0739565,20.6968953 25.6285408,20.5527294 L28.5195623,19.7817851 C26.5698839,24.6346838 21.7561191,27.9353963 16.429899,27.9353963 C10.1416166,27.9353963 4.75876396,23.4799836 3.62956661,17.3412624 C3.52666115,16.781075 2.98450831,16.4103627 2.4243988,16.5133383 C1.86152674,16.6156275 1.48927145,17.1517873 1.59148625,17.7112883 C2.90094079,24.8289645 9.14087839,29.9949091 16.429899,29.9949091 C22.3935804,29.9949091 27.7971522,26.4195949 30.1950563,21.1060519 L30.9347324,23.8479499 C31.058357,24.3079078 31.4775759,24.6113426 31.9347799,24.6113426 C32.0238726,24.6113426 32.1136558,24.5996721 32.2034391,24.5763309 C32.7559516,24.4287325 33.0840059,23.864426 32.9362088,23.314536 Z" id="Shape"></path>
        </g>
    </g>
</svg>