<?xml version="1.0" encoding="UTF-8"?>
<svg width="15px" height="15px" viewBox="0 0 15 15" version="1.1" xmlns="http://www.w3.org/2000/svg" xmlns:xlink="http://www.w3.org/1999/xlink">
    <!-- Generator: Sketch 50.2 (55047) - http://www.bohemiancoding.com/sketch -->
    <title>5.icon_wallet</title>
    <desc>Created with Sketch.</desc>
    <defs></defs>
    <g id="5.icon_wallet" stroke="none" stroke-width="1" fill="none" fill-rule="evenodd">
        <g transform="translate(0.800000, 0.500000)" fill-rule="nonzero" id="Shape">
            <path d="M8.97807487,3.451 C9.74470588,2.562 10.3470588,1.47 10.1964706,0.756 C10.1348663,0.455 9.94320856,0.231 9.67625668,0.14 C9.36139037,0.028 9.06705882,0.133 8.78641711,0.238 C8.53315508,0.329 8.26620321,0.427 7.94449198,0.399 C7.56802139,0.371 7.28053476,0.266 7.02042781,0.175 C6.7740107,0.084 6.54128342,0 6.28117647,0 C6.02106952,0 5.78834225,0.084 5.54192513,0.175 C5.2886631,0.266 4.99433155,0.371 4.61786096,0.399 C4.29614973,0.42 4.02919786,0.329 3.77593583,0.238 C3.49529412,0.133 3.20780749,0.028 2.88609626,0.14 C2.61914439,0.231 2.42748663,0.462 2.36588235,0.756 C2.21529412,1.477 2.81764706,2.576 3.59112299,3.465 C1.63347594,4.55 0.00438502674,6.664 0.00438502674,9.1 C0.00438502674,11.333 1.10641711,14 6.36331551,14 C10.4634225,14 12.722246,12.222 12.722246,8.995 C12.7359358,6.608 10.928877,4.522 8.97807487,3.451 Z M3.68695187,1.477 C3.96074866,1.561 4.30983957,1.638 4.72053476,1.61 C5.2544385,1.568 5.65828877,1.421 5.9457754,1.316 C6.07582888,1.267 6.23326203,1.211 6.28802139,1.211 C6.34278075,1.211 6.50705882,1.267 6.63026738,1.316 C6.92459893,1.421 7.32160428,1.568 7.85550802,1.61 C8.26620321,1.645 8.61529412,1.568 8.88909091,1.477 C8.71796791,1.855 8.36887701,2.387 7.82128342,2.947 C7.31475936,2.779 6.82192513,2.681 6.37016043,2.681 C5.8431016,2.681 5.29550802,2.779 4.75475936,2.954 C4.20716578,2.394 3.85807487,1.855 3.68695187,1.477 Z M6.37700535,12.789 C1.20224599,12.789 1.20224599,10.01 1.20224599,9.1 C1.20224599,6.125 4.34406417,3.885 6.37700535,3.885 C8.14983957,3.885 11.5586096,6.041 11.5586096,8.995 C11.5586096,11.515 9.81315508,12.789 6.37700535,12.789 Z" fill="#FFBA00"></path>
            <path d="M8.0540107,8.757 C8.38256684,8.757 8.6426738,8.484 8.6426738,8.155 C8.6426738,7.826 8.37572193,7.553 8.0540107,7.553 L7.1573262,7.553 L7.92395722,6.769 C8.15668449,6.531 8.15668449,6.153 7.92395722,5.915 C7.69122995,5.677 7.32160428,5.677 7.08887701,5.915 L6.37700535,6.636 L5.66513369,5.908 C5.43240642,5.67 5.06278075,5.67 4.83005348,5.908 C4.5973262,6.146 4.5973262,6.524 4.83005348,6.762 L5.59668449,7.546 L4.52203209,7.546 C4.19347594,7.546 3.93336898,7.819 3.93336898,8.148 C3.93336898,8.477 4.20032086,8.75 4.52203209,8.75 L5.69251337,8.75 L5.69251337,9.219 L4.52203209,9.219 C4.19347594,9.219 3.93336898,9.492 3.93336898,9.821 C3.93336898,10.157 4.20032086,10.423 4.52203209,10.423 L5.69251337,10.423 L5.69251337,10.941 C5.69251337,11.277 5.95946524,11.543 6.28117647,11.543 C6.60973262,11.543 6.86983957,11.27 6.86983957,10.941 L6.86983957,10.437 L8.04032086,10.437 C8.36887701,10.437 8.62898396,10.164 8.62898396,9.835 C8.62898396,9.499 8.36203209,9.233 8.04032086,9.233 L6.86983957,9.233 L6.86983957,8.757 L8.0540107,8.757 Z" fill="#FEC744"></path>
        </g>
    </g>
</svg>