<?xml version="1.0" encoding="UTF-8"?>
<svg width="24px" height="21px" viewBox="0 0 24 21" version="1.1" xmlns="http://www.w3.org/2000/svg" xmlns:xlink="http://www.w3.org/1999/xlink">
    <!-- Generator: Sketch 52.2 (67145) - http://www.bohemiancoding.com/sketch -->
    <title>icon_import1</title>
    <desc>Created with Sketch.</desc>
    <g id="Page-1" stroke="none" stroke-width="1" fill="none" fill-rule="evenodd">
        <g id="39.合约-部署合约" transform="translate(-348.000000, -282.000000)" fill="#9EABBE">
            <g id="内容" transform="translate(210.000000, 80.000000)">
                <g id="Group-2" transform="translate(0.000000, 189.000000)">
                    <g id="39.icon_import1" transform="translate(138.000000, 13.000000)">
                        <path d="M20.2500622,21 L3.74996178,21 C1.6816269,21 0,19.2951131 0,17.1982455 L0,6.55348839 C0,6.13326414 0.335332399,5.79310345 0.749886821,5.79310345 C1.16444124,5.79310345 1.49986957,6.13326414 1.49986957,6.55348839 L1.49986957,17.1982455 C1.49986957,18.4560987 2.50927263,19.479376 3.74996175,19.479376 L20.2500622,19.479376 C21.4907993,19.479376 22.5002024,18.4560987 22.5002024,17.1982455 L22.5002024,6.55348839 C22.5002024,6.13326414 22.8355827,5.79310345 23.2501372,5.79310345 C23.6646196,5.79310345 24,6.13326414 24,6.55348839 L24,17.1982455 C23.999976,19.2951375 22.3184931,21 20.2500622,21 Z" id="Path"></path>
                        <path d="M12.363695,12.6893711 L9.61828082,10.0524196 C10.3317831,9.67056513 10.8155952,8.94005779 10.8155952,8.10081926 L10.8155952,4.38347172 L13.9118444,4.38347172 L13.9118444,8.10081926 C13.9118444,8.94008155 14.3955575,9.6705651 15.1091587,10.0524196 L12.363695,12.6893711 Z M12.363695,14.4827586 C12.5616508,14.4827586 12.7598788,14.4115308 12.9109758,14.2663419 L18.0087888,9.36999166 C18.3095964,9.08101621 18.2082545,8.84435056 17.7820196,8.84435056 L16.2337713,8.84435056 C15.8076106,8.84435056 15.4597956,8.51038535 15.4597956,8.10081926 L15.4597956,3.64003548 C15.4597956,3.23049317 15.1122282,2.89655172 14.6857705,2.89655172 L10.0414463,2.89655172 C9.61523613,2.89655172 9.26742112,3.23049317 9.26742112,3.64003548 L9.26742112,8.10079548 C9.26742112,8.51036157 8.91965563,8.84432678 8.49339598,8.84432678 L6.94522188,8.84432678 C6.51903649,8.84432678 6.41762034,9.08099242 6.7185765,9.36996788 L11.81634,14.2663182 C11.9676349,14.4115308 12.1655907,14.4827586 12.363695,14.4827586 Z" id="Shape" fill-rule="nonzero"></path>
                        <path d="M8.72727273,0.724172654 C8.72727273,0.325244554 9.05259823,0 9.45451056,0 C9.85660897,0 10.1818182,0.325244576 10.1818182,0.724172654 C10.1818182,1.12587863 9.85660897,1.44827586 9.45451056,1.44827586 C9.05259823,1.448299 8.72727273,1.12587863 8.72727273,0.724172654 Z" id="Path"></path>
                        <path d="M13.8181818,0.724172654 C13.8181818,0.325244554 14.1435566,0 14.5454313,0 C14.9474921,0 15.2727273,0.325244576 15.2727273,0.724172654 C15.2727273,1.12587863 14.9475153,1.44827586 14.5454313,1.44827586 C14.1435566,1.448299 13.8181818,1.12587863 13.8181818,0.724172654 Z" id="Path"></path>
                        <polygon id="Path" points="10.1818182 0 14.5454545 0 14.5454545 1.44827586 10.1818182 1.44827586 10.1818182 1.60730202e-16"></polygon>
                    </g>
                </g>
            </g>
        </g>
    </g>
</svg>