<?xml version="1.0" encoding="UTF-8"?>
<svg width="16px" height="16px" viewBox="0 0 16 16" version="1.1" xmlns="http://www.w3.org/2000/svg" xmlns:xlink="http://www.w3.org/1999/xlink">
    <!-- Generator: Sketch 52.1 (67048) - http://www.bohemiancoding.com/sketch -->
    <title>50.icon_contract4</title>
    <desc>Created with Sketch.</desc>
    <g id="50.icon_contract4" stroke="none" stroke-width="1" fill="none" fill-rule="evenodd">
        <g id="部署-(1)" fill="#9EABBE" fill-rule="nonzero">
            <path d="M11.1428571,3.70285714 C10.6514286,3.70285714 10.24,3.36 10.24,2.94857142 L10.24,1.25714286 L13.6342857,3.70285714 L11.1428571,3.70285714 Z M10.32,0 L2.19428572,0 C0.982857141,0 0,1.04 0,2.32 L0,13.6685714 C0,14.9485714 0.982857141,16 2.19428572,16 L8.30857142,16 L7.69142858,14.9257143 L2.19428572,14.9257143 C1.5657143,14.9257143 1.06285714,14.3657143 1.06285714,13.6685714 L1.06285714,2.32 C1.06285714,1.62285714 1.56571428,1.06285714 2.19428572,1.06285714 L9.17714286,1.06285714 L9.17714286,2.94857142 C9.17714286,3.9542857 10.0571429,4.77714284 11.1428571,4.77714286 L13.7942857,4.77714286 L13.7942857,7.14285714 L14.8571429,7.14285714 L14.8571429,3.28 L10.32,0 Z" id="Shape"></path>
            <path d="M10.816,5.77371428 L2.53714286,5.77371428 C2.39600047,5.77401651 2.26077597,5.83045367 2.16129512,5.93057772 C2.06181427,6.03070177 2.00624975,6.16628717 2.00685714,6.30742858 C2.00685714,6.60228572 2.24342856,6.84114286 2.53714286,6.84114286 L10.8171429,6.84114286 C11.1108274,6.83988309 11.3480615,6.60111515 11.3474286,6.30742858 C11.3480615,6.013742 11.1108274,5.77497405 10.8171429,5.77371428 L10.816,5.77371428 Z M7.84,8.70857142 L7.22285714,9.77142858 L2.53714286,9.77142858 C2.24,9.77142858 2,9.53142858 2,9.24571428 C2,8.94857142 2.24,8.70857142 2.53714286,8.70857142 L7.84,8.70857142 Z M6.41142858,12.7085714 L2.53714286,12.7085714 C2.24048706,12.7085714 2.00000001,12.4680844 2,12.1714286 C2,11.8742857 2.24,11.6457143 2.53714286,11.6457143 L6.13714286,11.6457143 L5.96571428,11.9428571 L6.41142858,12.7085714 Z" id="Shape"></path>
            <path d="M8.7761194,12.7761194 L11.2238806,12.7761194 L11.2238806,15.2238806 C11.2238806,15.6537313 11.5701493,16 12,16 C12.4298507,16 12.7761194,15.6537313 12.7761194,15.2238806 L12.7761194,12.7761194 L15.2238806,12.7761194 C15.6537313,12.7761194 16,12.4298507 16,12 C16,11.5701493 15.6537313,11.2238806 15.2238806,11.2238806 L12.7761194,11.2238806 L12.7761194,8.7761194 C12.7761194,8.34626866 12.4298507,8 12,8 C11.5701493,8 11.2238806,8.34626866 11.2238806,8.7761194 L11.2238806,11.2238806 L8.7761194,11.2238806 C8.34626866,11.2238806 8,11.5701493 8,12 C8,12.4298507 8.34626866,12.7761194 8.7761194,12.7761194 Z" id="Path"></path>
        </g>
    </g>
</svg>