<?xml version="1.0" encoding="UTF-8"?>
<svg width="14px" height="14px" viewBox="0 0 14 14" version="1.1" xmlns="http://www.w3.org/2000/svg" xmlns:xlink="http://www.w3.org/1999/xlink">
    <!-- Generator: Sketch 50.2 (55047) - http://www.bohemiancoding.com/sketch -->
    <title>icon_delete</title>
    <desc>Created with Sketch.</desc>
    <defs></defs>
    <g id="9.icon_delete" stroke="none" stroke-width="1" fill="none" fill-rule="evenodd">
        <path d="M0,7 C0,3.13425 3.133375,0 7,0 C10.86575,0 14,3.13425 14,7 C14,10.86575 10.86575,14 7,14 C3.133375,14 0,10.86575 0,7 Z M8.150625,9.37825 C8.48925,9.716875 9.039625,9.716875 9.37825,9.37825 C9.71775,9.039625 9.71775,8.48925 9.37825,8.150625 L8.23375,7.006125 L9.37825,5.86075 C9.716875,5.522125 9.716875,4.972625 9.37825,4.633125 C9.03875,4.293625 8.48925,4.293625 8.150625,4.633125 L7.006125,5.777625 L5.85725,4.629625 C5.518625,4.290125 4.96825,4.290125 4.629625,4.629625 C4.290125,4.96825 4.290125,5.51775 4.629625,5.85725 L5.777625,7.00525 L4.629625,8.154125 C4.290125,8.493625 4.290125,9.043125 4.629625,9.38175 C4.96825,9.72125 5.518625,9.72125 5.85725,9.38175 L7.006125,8.23375 L8.150625,9.37825 Z" fill="#9EABBE"></path>
    </g>
</svg>