<?xml version="1.0" encoding="UTF-8"?>
<svg width="23px" height="20px" viewBox="0 0 23 20" version="1.1" xmlns="http://www.w3.org/2000/svg" xmlns:xlink="http://www.w3.org/1999/xlink">
    <!-- Generator: Sketch 52.2 (67145) - http://www.bohemiancoding.com/sketch -->
    <title>icon_imported_file</title>
    <desc>Created with Sketch.</desc>
    <g id="Page-1" stroke="none" stroke-width="1" fill="none" fill-rule="evenodd">
        <g id="39.1合约-部署合约-2" transform="translate(-348.000000, -282.000000)" fill="#9EABBE" fill-rule="nonzero">
            <g id="内容" transform="translate(210.000000, 80.000000)">
                <g id="Group-2" transform="translate(0.000000, 189.000000)">
                    <g id="39.icon_file" transform="translate(138.000000, 13.000000)">
                        <path d="M21.275,16.8115942 C21.275,17.6110145 20.630425,18.2608696 19.8375,18.2608696 L3.1625,18.2608696 C2.36885349,18.2602302 1.72563415,17.6117419 1.72499998,16.8115942 L1.72499998,4.92753624 L19.8375,4.92753624 C20.630425,4.92753624 21.275,5.5773913 21.275,6.37681159 L21.275,16.8115942 Z M1.72499998,2.02898552 C1.72499998,1.86956523 1.85437499,1.73913044 2.01249999,1.73913044 L9.5496,1.73913044 C9.6508,1.73913044 9.745675,1.79362318 9.79742501,1.88173914 L10.563325,3.1884058 L1.72499998,3.1884058 L1.72499998,2.02898552 Z M19.8375,3.1884058 L12.566625,3.1884058 L11.28265,0.997101451 C10.9193972,0.380276561 10.2611234,0.00154210679 9.5496,0 L2.01249999,0 C0.902749981,-3.53984153e-16 0,0.910144932 0,2.02898552 L0,16.8115942 C0,18.5692754 1.4191,20 3.1625,20 L19.8375,20 C21.5809,20 23,18.5692754 23,16.8115942 L23,6.37681159 C23,4.61913044 21.5809,3.1884058 19.8375,3.1884058 Z" id="Shape"></path>
                    </g>
                </g>
            </g>
        </g>
    </g>
</svg>