<?xml version="1.0" encoding="UTF-8"?>
<svg width="24px" height="24px" viewBox="0 0 24 24" version="1.1" xmlns="http://www.w3.org/2000/svg" xmlns:xlink="http://www.w3.org/1999/xlink">
    <!-- Generator: Sketch 50.2 (55047) - http://www.bohemiancoding.com/sketch -->
    <title>icon_Interface</title>
    <desc>Created with Sketch.</desc>
    <defs></defs>
    <g id="42.icon_contract-" stroke="none" stroke-width="1" fill="none" fill-rule="evenodd">
        <g id="42.icon_contract" transform="translate(1.000000, 0.000000)" fill="#525768" fill-rule="nonzero">
            <path d="M14.736888,14.0939044 C14.4941358,14.0939044 14.3323011,14.0189368 14.1704663,13.8690017 C13.8467968,13.5691314 13.8467968,13.1193259 14.1704663,12.8194556 L15.8697314,11.2451365 L14.1704663,9.67081737 C13.8467968,9.37094707 13.8467968,8.9211416 14.1704663,8.6212713 C14.4941358,8.32140101 14.9796402,8.32140101 15.3033097,8.6212713 L17.4071617,10.5704283 C17.8117486,10.9452662 17.8117486,11.5450068 17.4071617,11.9198447 L15.3033097,13.8690017 C15.1414749,14.0189368 14.9796402,14.0939044 14.736888,14.0939044 Z" id="Shape"></path>
            <path d="M20.9675266,23.9896245 C20.6438571,23.9896245 20.4011049,23.9146569 20.0774353,23.7647218 L11.1765231,18.591959 L2.43744561,23.7647218 C1.95194129,24.0645921 1.30460224,24.0645921 0.819097921,23.8396893 C0.333593606,23.539819 0.00992407887,23.0900136 0.00992407887,22.4902729 L0.00992407887,1.49935153 C0.00992407887,0.67470818 0.738180527,0 1.62827176,0 L21.048444,0 C21.9385352,0 22.6667916,0.67470818 22.6667916,1.49935153 L22.6667916,22.4902729 C22.6667916,23.015046 22.3431221,23.539819 21.8576178,23.8396893 C21.5339483,23.9146569 21.2102787,23.9896245 20.9675266,23.9896245 Z M20.9675266,22.4902729 L20.9675266,1.49935153 L1.54735437,1.49935153 L1.54735437,22.4902729 L10.3673492,17.3175102 C10.8528536,17.0176399 11.58111,17.0176399 12.0666143,17.3175102 L20.9675266,22.4902729 Z" id="Shape"></path>
            <path d="M16.9216574,7.49675766 L5.59322358,7.49675766 C5.10771926,7.49675766 4.78404974,7.19688736 4.78404974,6.74708189 C4.78404974,6.29727642 5.10771926,5.99740612 5.59322358,5.99740612 L16.9216574,5.99740612 C17.4071617,5.99740612 17.7308312,6.29727642 17.7308312,6.74708189 C17.7308312,7.19688736 17.4071617,7.49675766 16.9216574,7.49675766 Z M16.1124835,11.9948123 L5.59322358,11.9948123 C5.10771926,11.9948123 4.78404974,11.694942 4.78404974,11.2451365 C4.78404974,10.795331 5.10771926,10.4954607 5.59322358,10.4954607 L16.1124835,10.4954607 C16.5979878,10.4954607 16.9216574,10.795331 16.9216574,11.2451365 C16.9216574,11.694942 16.5979878,11.9948123 16.1124835,11.9948123 Z" id="Shape"></path>
        </g>
    </g>
</svg>