<?xml version="1.0" encoding="UTF-8"?>
<svg width="16px" height="14px" viewBox="0 0 16 14" version="1.1" xmlns="http://www.w3.org/2000/svg" xmlns:xlink="http://www.w3.org/1999/xlink">
    <!-- Generator: Sketch 52.1 (67048) - http://www.bohemiancoding.com/sketch -->
    <title>54.icon_import2</title>
    <desc>Created with Sketch.</desc>
    <g id="54.icon_import2" stroke="none" stroke-width="1" fill="none" fill-rule="evenodd">
        <g fill="#0077FF">
            <path d="M13.5000415,14 L2.49997452,14 C1.1210846,14 0,12.8634088 0,11.465497 L0,4.36899226 C0,4.08884276 0.223554933,3.86206897 0.499924547,3.86206897 C0.776294162,3.86206897 0.999913048,4.08884276 0.999913048,4.36899226 L0.999913048,11.465497 C0.999913048,12.3040658 1.67284842,12.9862507 2.4999745,12.9862507 L13.5000415,12.9862507 C14.3271995,12.9862507 15.0001349,12.3040658 15.0001349,11.465497 L15.0001349,4.36899226 C15.0001349,4.08884276 15.2237218,3.86206897 15.5000914,3.86206897 C15.7764131,3.86206897 16,4.08884276 16,4.36899226 L16,11.465497 C15.999984,12.863425 14.8789954,14 13.5000415,14 Z" id="Path"></path>
            <path d="M8.24246334,8.45958075 L6.41218722,6.70161307 C6.88785537,6.44704342 7.2103968,5.96003853 7.2103968,5.40054617 L7.2103968,2.92231448 L9.2745629,2.92231448 L9.2745629,5.40054617 C9.2745629,5.96005437 9.59703832,6.4470434 10.0727725,6.70161307 L8.24246334,8.45958075 Z M8.24246334,9.65517241 C8.37443385,9.65517241 8.50658589,9.60768718 8.60731718,9.51089463 L12.0058592,6.24666111 C12.2063976,6.0540108 12.1388364,5.89623371 11.8546798,5.89623371 L10.8225142,5.89623371 C10.5384071,5.89623371 10.3065304,5.67359024 10.3065304,5.40054617 L10.3065304,2.42669032 C10.3065304,2.15366211 10.0748188,1.93103448 9.79051366,1.93103448 L6.69429751,1.93103448 C6.41015742,1.93103448 6.17828075,2.15366211 6.17828075,2.42669032 L6.17828075,5.40053032 C6.17828075,5.67357438 5.94643709,5.89621785 5.66226398,5.89621785 L4.63014792,5.89621785 C4.34602432,5.89621785 4.27841356,6.05399495 4.479051,6.24664525 L7.87756,9.51087877 C7.97842329,9.60768719 8.11039381,9.65517241 8.24246334,9.65517241 Z" id="Shape" fill-rule="nonzero"></path>
            <path d="M5.81818182,0.482781769 C5.81818182,0.216829702 6.03506549,0 6.30300704,0 C6.57107265,0 6.78787879,0.216829718 6.78787879,0.482781769 C6.78787879,0.750585753 6.57107265,0.965517241 6.30300704,0.965517241 C6.03506549,0.965532669 5.81818182,0.750585753 5.81818182,0.482781769 Z" id="Path"></path>
            <path d="M9.21212121,0.482781769 C9.21212121,0.216829702 9.42903772,0 9.6969542,0 C9.96499471,0 10.1818182,0.216829718 10.1818182,0.482781769 C10.1818182,0.750585753 9.96501021,0.965517241 9.6969542,0.965517241 C9.42903772,0.965532669 9.21212121,0.750585753 9.21212121,0.482781769 Z" id="Path"></path>
            <polygon id="Path" points="6.78787879 0 9.6969697 0 9.6969697 0.965517241 6.78787879 0.965517241 6.78787879 1.07153468e-16"></polygon>
        </g>
    </g>
</svg>