<?xml version="1.0" encoding="UTF-8"?>
<svg width="15px" height="15px" viewBox="0 0 15 15" version="1.1" xmlns="http://www.w3.org/2000/svg" xmlns:xlink="http://www.w3.org/1999/xlink">
    <!-- Generator: Sketch 50.2 (55047) - http://www.bohemiancoding.com/sketch -->
    <title>16.icon_file</title>
    <desc>Created with Sketch.</desc>
    <defs></defs>
    <g id="16.icon_file" stroke="none" stroke-width="1" fill="none" fill-rule="evenodd">
        <g transform="translate(1.300000, 0.500000)" fill="#FFBA00" fill-rule="nonzero" id="Shape">
            <path d="M10.0156996,0 L2.11763377,0 C0.959373514,0 0.0113537137,0.933499998 0.0113537137,2.074 L0.0113537137,11.926 C0.0113537137,13.0665 0.959373514,14 2.11763377,14 L7.93557845,14 C8.49036264,14.0003135 9.0254419,13.7877051 9.43681165,13.4035 L11.5164483,11.3555 C11.9112547,10.9665 12.1219796,10.448 12.1219796,9.878 L12.1219796,2.074 C12.1219796,0.933499998 11.1739598,0 10.0156996,0 Z M1.06449375,11.926 L1.06449375,2.074 C1.06449375,1.504 1.53826143,1.037 2.11763377,1.037 L10.0156996,1.037 C10.5950719,1.037 11.0688396,1.5035 11.0688396,2.074 L11.0688396,9.5925 L9.48961397,9.5925 C8.33086928,9.5925 7.38284948,10.526 7.38284948,11.6665 L7.38284948,12.963 L2.11714935,12.963 C1.53826143,12.963 1.06449375,12.4965 1.06449375,11.926 Z M8.67287337,12.652 C8.59391208,12.7295 8.5149508,12.7815 8.43598952,12.8335 L8.43598952,11.6665 C8.43598952,11.0965 8.91024163,10.6295 9.48912955,10.6295 L10.7268355,10.6295 L8.67287337,12.652 Z"></path>
            <path d="M3.93035226,4.425 L8.68740612,4.425 C8.97806114,4.425 9.21542941,4.19000001 9.21542941,3.9025 C9.21542941,3.6145 8.97806114,3.3795 8.68740612,3.3795 L3.93035226,3.3795 C3.63969724,3.3795 3.40232897,3.6145 3.40232897,3.9025 C3.40232897,4.18999999 3.63969724,4.4255 3.93035226,4.4255 L3.93035226,4.425 Z M6.04486754,8.609 L3.93035226,8.609 C3.63969724,8.609 3.40184454,8.8445 3.40184454,9.13199999 C3.40184454,9.42 3.6392128,9.65499999 3.92986784,9.655 L6.04438311,9.655 C6.33503813,9.655 6.5724064,9.42000001 6.5724064,9.13199999 C6.5724064,8.8445 6.33503813,8.609 6.04438311,8.609 L6.04486754,8.609 Z M3.93035226,7.04 L8.68643727,7.04 C8.97709229,7.04 9.21494499,6.805 9.21494497,6.517 C9.21494497,6.22950001 8.97757671,5.9945 8.68692169,5.9945 L3.93035226,5.9945 C3.63969724,5.9945 3.40232897,6.22949999 3.40232897,6.517 C3.40232897,6.805 3.63969724,7.04 3.93035226,7.04 Z"></path>
        </g>
    </g>
</svg>