<?xml version="1.0" encoding="UTF-8"?>
<svg width="16px" height="16px" viewBox="0 0 16 16" version="1.1" xmlns="http://www.w3.org/2000/svg" xmlns:xlink="http://www.w3.org/1999/xlink">
    <!-- Generator: Sketch 52.1 (67048) - http://www.bohemiancoding.com/sketch -->
    <title>18.icon_Receive2</title>
    <desc>Created with Sketch.</desc>
    <g id="18.icon_Receive2" stroke="none" stroke-width="1" fill="none" fill-rule="evenodd">
        <g id="11.icon_send" transform="translate(8.000000, 8.000000) rotate(-180.000000) translate(-8.000000, -8.000000) translate(1.000000, 1.000000)">
            <circle id="Oval-3" stroke="#0077FF" stroke-width="0.875" cx="7" cy="7" r="6.5625"></circle>
            <path d="M5.04083554,6.37561375 L6.60555923,4.85679214 L6.60555923,10.1072013 C6.60555923,10.3232406 6.78159065,10.5 6.99674016,10.5 C7.21188967,10.5 7.38792108,10.3232406 7.38792108,10.1072013 L7.38792108,4.82405892 L8.95264478,6.38870704 C9.10259747,6.54582651 9.35034539,6.54582651 9.50681776,6.39525368 C9.66329013,6.24468085 9.66329013,5.99590835 9.51333744,5.83878887 L9.50681776,5.83224223 L7.29012585,3.61292962 C7.14017316,3.46235679 6.89242525,3.46235679 6.74247256,3.61292962 L4.49318224,5.81260229 C4.33670987,5.96317512 4.33670987,6.21194763 4.48666256,6.3690671 C4.63661525,6.52618658 4.88436317,6.52618658 5.04083554,6.37561375 Z" id="Shape" fill="#0077FF" fill-rule="nonzero"></path>
        </g>
    </g>
</svg>