<?xml version="1.0" encoding="UTF-8"?>
<svg width="16px" height="16px" viewBox="0 0 16 16" version="1.1" xmlns="http://www.w3.org/2000/svg" xmlns:xlink="http://www.w3.org/1999/xlink">
    <!-- Generator: Sketch 52.1 (67048) - http://www.bohemiancoding.com/sketch -->
    <title>18.icon_Transactions</title>
    <desc>Created with Sketch.</desc>
    <g id="18.icon_Transactions" stroke="none" stroke-width="1" fill="none" fill-rule="evenodd">
        <g id="记录-(1)" transform="translate(2.000000, 2.000000)" fill="#0077FF" fill-rule="nonzero">
            <path d="M2.9990287,3.862667 L8.98680914,3.862667 C9.22289608,3.862667 9.41450895,3.67105416 9.41450893,3.43493378 C9.41450893,3.19884684 9.22289608,3.00723398 8.98680914,3.00723399 L2.9990287,3.00723399 C2.76294176,3.00723399 2.5713289,3.19884684 2.57132891,3.43493378 C2.57134562,3.67105414 2.76294176,3.86266699 2.9990287,3.862667 Z M8.98680914,5.56658289 L2.9990287,5.56658289 C2.76294176,5.56658289 2.5713289,5.75822916 2.57132891,5.9943161 C2.57132893,6.23040304 2.76294176,6.4220159 2.9990287,6.42201589 L8.98680914,6.42201589 C9.22289608,6.42201589 9.41450895,6.23040304 9.41450893,5.9943161 C9.41450891,5.75822916 9.22289608,5.56658289 8.98680914,5.56658289 Z M8.98680914,8.13279837 L2.9990287,8.13279837 C2.76294176,8.13279837 2.5713289,8.32441122 2.57132891,8.56049817 C2.57132893,8.79658513 2.76294176,8.98819798 2.9990287,8.98819796 L8.98680914,8.98819796 C9.22289608,8.98819796 9.41450895,8.79658511 9.41450893,8.56049817 C9.41450891,8.32441123 9.22289608,8.13279837 8.98680914,8.13279837 Z M4.7457647,1.29300986 L6.88424697,1.29300986 C7.23882013,1.29300986 7.52576325,1.00563236 7.52576325,0.651493584 C7.52576325,0.297354808 7.23835233,0.00994388571 6.88424697,0.00994388571 L4.7457647,0.00994388571 C4.39162593,0.00994388571 4.104215,0.297354808 4.104215,0.651493584 C4.104215,1.00563236 4.39162593,1.29300986 4.7457647,1.29300986 Z M10.2699252,0.437626988 L9.84222544,0.437626988 C9.60610508,0.437626988 9.41445881,0.629239837 9.41445881,0.865326776 C9.41445881,1.10141371 9.60610508,1.29302658 9.84222544,1.29302658 L10.2699252,1.29302658 C10.7416648,1.29302658 11.1253081,1.67670336 11.1253081,2.14844287 L11.1253081,10.2747223 C11.1253081,10.7464618 10.7416647,11.1301052 10.2699252,11.1301052 L1.71594602,11.1301052 C1.24420651,11.1301052 0.860563135,10.7464618 0.860563135,10.2747223 L0.860563135,2.14844287 C0.860563135,1.67670336 1.24420651,1.29302658 1.71594602,1.29302658 L2.14364581,1.29302658 C2.37973275,1.29302658 2.57134562,1.10141373 2.57134562,0.865326776 C2.57134562,0.62923982 2.37973277,0.437626971 2.14364581,0.437626988 L1.71594602,0.437626988 C0.771147151,0.437626988 0.00514684082,1.203644 0.00514684082,2.14842617 L0.00514684082,10.2747056 C0.00514684082,11.2195045 0.771163853,11.9855048 1.71594602,11.9855048 L10.2699252,11.9855048 C11.2146907,11.9855048 11.9807244,11.2194878 11.9807244,10.2747056 L11.9807244,2.14842617 C11.9807244,1.203644 11.2146907,0.437626988 10.2699252,0.437626988 Z" id="Shape"></path>
        </g>
    </g>
</svg>