<?xml version="1.0" encoding="UTF-8"?>
<svg width="16px" height="16px" viewBox="0 0 16 16" version="1.1" xmlns="http://www.w3.org/2000/svg" xmlns:xlink="http://www.w3.org/1999/xlink">
    <!-- Generator: Sketch 52.1 (67048) - http://www.bohemiancoding.com/sketch -->
    <title>32.icon_Sign</title>
    <desc>Created with Sketch.</desc>
    <g id="32.icon_Sign" stroke="none" stroke-width="1" fill="none" fill-rule="evenodd">
        <g id="记录-(1)" transform="translate(2.000000, 2.000000)" fill="#0077FF" fill-rule="nonzero">
            <path d="M2.9990287,3.862667 L8.98680914,3.862667 C9.22289608,3.862667 9.41450895,3.67105416 9.41450893,3.43493378 C9.41450893,3.19884684 9.22289608,3.00723398 8.98680914,3.00723399 L2.9990287,3.00723399 C2.76294176,3.00723399 2.5713289,3.19884684 2.57132891,3.43493378 C2.57134562,3.67105414 2.76294176,3.86266699 2.9990287,3.862667 Z M2.9990287,5.56658289 C2.76294176,5.56658289 2.5713289,5.75822916 2.57132891,5.9943161 C2.57132893,6.23040304 2.76294176,6.4220159 2.9990287,6.42201589 L6.98680914,6.42201589 C7.22289608,6.42201589 7.41450895,6.23040304 7.41450893,5.9943161 C7.41450891,5.75822916 7.22289608,5.56658289 6.98680914,5.56658289 L2.9990287,5.56658289 Z M2.9990287,8.13279837 C2.76294176,8.13279837 2.5713289,8.32441122 2.57132891,8.56049817 C2.57132893,8.79658513 2.76294176,8.98819798 2.9990287,8.98819796 L5.98680914,8.98819796 C6.22289608,8.98819796 6.41450895,8.79658511 6.41450893,8.56049817 C6.41450891,8.32441123 6.22289608,8.13279837 5.98680914,8.13279837 L2.9990287,8.13279837 Z M4.7457647,1.29300986 L6.88424697,1.29300986 C7.23882013,1.29300986 7.52576325,1.00563236 7.52576325,0.651493584 C7.52576325,0.297354808 7.23835233,0.00994388571 6.88424697,0.00994388571 L4.7457647,0.00994388571 C4.39162593,0.00994388571 4.104215,0.297354808 4.104215,0.651493584 C4.104215,1.00563236 4.39162593,1.29300986 4.7457647,1.29300986 Z M5.99933079,11.1301052 C5.46568556,11.1301052 3.61967259,11.1301052 1.71594602,11.1301052 C1.24420651,11.1301052 0.860563135,10.7464618 0.860563135,10.2747223 L0.860563135,2.14844287 C0.860563135,1.67670336 1.24420651,1.29302658 1.71594602,1.29302658 L2.14364581,1.29302658 C2.37973275,1.29302658 2.57134562,1.10141373 2.57134562,0.865326776 C2.57134562,0.62923982 2.37973277,0.437626971 2.14364581,0.437626988 L1.71594602,0.437626988 C0.771147151,0.437626988 0.00514684082,1.203644 0.00514684082,2.14842617 L0.00514684082,10.2747056 C0.00514684082,11.2195045 0.771163853,11.9855048 1.71594602,11.9855048 C3.61735507,11.9855048 5.4552567,11.9855048 5.99411637,11.9855048 C6.53297603,11.9855048 6.53297603,11.1301052 5.99933079,11.1301052 Z M11.9807244,4.58327738 C11.9807244,4.01022329 11.9807244,3.23058226 11.9807244,2.14842617 C11.9807244,1.203644 11.2146907,0.437626988 10.2699252,0.437626988 L9.84222544,0.437626988 C9.60610508,0.437626988 9.41445881,0.629239837 9.41445881,0.865326776 C9.41445881,1.10141371 9.60610508,1.29302658 9.84222544,1.29302658 L10.2699252,1.29302658 C10.7416648,1.29302658 11.1253081,1.67670336 11.1253081,2.14844287 C11.1253081,3.24222054 11.1253081,4.0625538 11.1253081,4.60944263 C11.1253081,5.15633147 11.9807244,5.15633147 11.9807244,4.58327738 Z" id="Shape"></path>
            <g id="签名" transform="translate(7.000000, 5.000000)">
                <path d="M5.42254889,6.42252864 L0.82660219,6.42252864 L0.82660219,5.76615786 L2.60840589,5.76615786 C2.76526108,5.76615786 2.89241686,5.63723671 2.89241686,5.47820377 L2.89241686,3.97310888 C2.89241686,3.84772546 2.81248805,3.73673971 2.69474522,3.69872978 C2.10578761,3.50826871 1.71003861,2.95909913 1.71003861,2.33226422 C1.71003861,1.54137775 2.34460027,0.897923764 3.12473784,0.897923764 C3.9048754,0.897923764 4.53951821,1.54137775 4.53951821,2.33226422 C4.53951821,2.95901686 4.1437692,3.50818645 3.5548116,3.69881205 C3.43706875,3.73682199 3.35713996,3.84772546 3.35713996,3.97310888 L3.35713996,5.47820377 C3.35713996,5.63723671 3.48429572,5.76615786 3.64115093,5.76615786 L5.42254889,5.76615786 L5.42254889,6.42252864 Z M5.70655986,5.19024969 L3.9251619,5.19024969 L3.9251619,4.17171493 C4.64022038,3.85323772 5.10754015,3.13861795 5.10754015,2.33226422 C5.10754015,1.22380552 4.21801778,0.322015584 3.12473784,0.322015584 C2.03145788,0.322015584 1.14201666,1.22380552 1.14201666,2.33226422 C1.14201666,3.13870021 1.60925528,3.85331999 2.32439491,4.17171493 L2.32439491,5.19024969 L0.542591217,5.19024969 C0.385817158,5.19024969 0.258580244,5.31925312 0.258580244,5.47820377 L0.258580244,6.71048273 C0.258580244,6.86951566 0.385817158,6.99843682 0.542591217,6.99843682 L5.70655986,6.99843682 C5.86341506,6.99843682 5.99057084,6.86951566 5.99057084,6.71048273 L5.99057084,5.47820377 C5.99057084,5.31925312 5.86341506,5.19024969 5.70655986,5.19024969 Z" id="Shape"></path>
            </g>
        </g>
    </g>
</svg>