<?xml version="1.0" encoding="UTF-8"?>
<svg width="16px" height="18px" viewBox="0 0 16 18" version="1.1" xmlns="http://www.w3.org/2000/svg" xmlns:xlink="http://www.w3.org/1999/xlink">
    <!-- Generator: Sketch 52.1 (67048) - http://www.bohemiancoding.com/sketch -->
    <title>8.icon_Ordinary purse 8</title>
    <desc>Created with Sketch.</desc>
    <g id="8.icon_Ordinary-purse-8" stroke="none" stroke-width="1" fill="none" fill-rule="evenodd">
        <g id="钱包-(2)" transform="translate(0.000000, 2.000000)" fill-rule="nonzero">
            <path d="M15.999948,12.3968987 C16.001625,12.610674 15.9627167,12.8228302 15.8852826,13.022138 C15.8110909,13.2121513 15.700391,13.385836 15.5594194,13.5334069 C15.4196787,13.6796176 15.2519069,13.7962575 15.0660914,13.8763831 C14.8711771,13.9597457 14.6610622,14.0018179 14.4490313,13.9999398 L1.65343568,13.9999398 C1.43595208,14.0010939 1.22040534,13.9590956 1.01930917,13.8763831 C0.822881484,13.7963828 0.6433744,13.6800131 0.490248194,13.5334069 C0.338040861,13.3876798 0.215284491,13.2141118 0.128652087,13.022138 C0.0412328169,12.8253951 -0.00261035457,12.6121215 0.000120136755,12.3968987 L0.000120136755,1.60360605 C-0.00287285731,1.17841893 0.164545872,0.769695735 0.465081199,0.468485916 C0.765616526,0.167276097 1.17430429,-0.00140015684 1.60010292,3.24140579e-05 L14.3946319,3.24140579e-05 C14.8213089,-0.00268380077 15.2312908,0.165408491 15.532953,0.466743245 C15.8346152,0.768077999 16.0028098,1.17753469 15.999948,1.60360605 L15.999948,5.00017905 L11.999991,5.00017905 C11.5741921,4.99168542 11.1634156,5.15734084 10.8629366,5.45872337 C10.5564355,5.75290536 10.3872112,6.16175117 10.3962749,6.58617782 C10.4019311,6.86732745 10.4681419,7.14396512 10.5904062,7.39728464 C10.6993386,7.61464217 10.8597016,7.8021984 11.0576012,7.94370329 C11.3368589,8.12573059 11.6677656,8.21226493 12.0005244,8.19028402 L15.999948,8.19028402 L15.999948,12.3968987 Z M11.1991749,6.49834403 C11.1917058,6.22067428 11.3410587,5.96095825 11.5892636,5.82000252 C11.8374685,5.67904678 12.145442,5.67904678 12.3936469,5.82000252 C12.6418518,5.96095825 12.7912048,6.22067428 12.7837356,6.49834403 C12.7873838,6.70476678 12.7050179,6.90397547 12.5550856,7.05135274 C12.4071448,7.19827165 12.2038233,7.28117768 11.9914553,7.28117768 C11.7790873,7.28117768 11.5757658,7.19827165 11.4278249,7.05135274 C11.2778927,6.90397547 11.1955267,6.70476678 11.1991749,6.49834403 Z" id="Shape" fill="#0077FF"></path>
            <path d="M3.1840796,7.4989339 L4.8159204,7.4989339 L4.8159204,9.07249467 C4.8159204,9.34882729 5.04676617,9.57142857 5.33333333,9.57142857 C5.6199005,9.57142857 5.85074627,9.34882729 5.85074627,9.07249467 L5.85074627,7.4989339 L7.48258706,7.4989339 C7.76915423,7.4989339 8,7.27633262 8,7 C8,6.72366738 7.76915423,6.5010661 7.48258706,6.5010661 L5.85074627,6.5010661 L5.85074627,4.92750533 C5.85074627,4.65117271 5.6199005,4.42857143 5.33333333,4.42857143 C5.04676617,4.42857143 4.8159204,4.65117271 4.8159204,4.92750533 L4.8159204,6.5010661 L3.1840796,6.5010661 C2.89751244,6.5010661 2.66666667,6.72366738 2.66666667,7 C2.66666667,7.27633262 2.89751244,7.4989339 3.1840796,7.4989339 Z" id="Path" fill="#FFFFFF"></path>
        </g>
    </g>
</svg>