<?xml version="1.0" encoding="UTF-8"?>
<svg width="16px" height="18px" viewBox="0 0 16 18" version="1.1" xmlns="http://www.w3.org/2000/svg" xmlns:xlink="http://www.w3.org/1999/xlink">
    <!-- Generator: Sketch 52.1 (67048) - http://www.bohemiancoding.com/sketch -->
    <title>8.icon_Ordinary purse8</title>
    <desc>Created with Sketch.</desc>
    <g id="8.icon_Ordinary-purse8" stroke="none" stroke-width="1" fill="none" fill-rule="evenodd">
        <g id="钱包-(2)" transform="translate(0.000000, 1.000000)" fill="#9EABBE" fill-rule="nonzero">
            <path d="M15.9896462,14.2292756 C15.9913221,14.4509685 15.9524389,14.6709823 15.8750547,14.8776719 C15.8009108,15.0747227 15.6902823,15.2548401 15.5494016,15.4078767 C15.409751,15.5595026 15.2420873,15.6804625 15.0563916,15.7635557 C14.861603,15.8500058 14.6516235,15.8936362 14.4397294,15.8916885 L1.65238291,15.8916885 C1.43503952,15.8928854 1.21963174,15.8493316 1.01866522,15.7635557 C0.822364173,15.6805924 0.642972816,15.5599127 0.489945328,15.4078767 C0.337836122,15.2567522 0.215158892,15.0767558 0.12858234,14.8776719 C0.041219428,14.6736422 -0.00259547817,14.4524695 0.00013325283,14.2292756 L0.00013325283,5.11030541 C-0.00285781168,4.66937062 0.164452984,4.24550953 0.464794559,3.9331438 C0.765136133,3.62077806 1.17356042,3.44585454 1.59908454,3.44734016 L14.385365,3.44734016 C14.8117669,3.44452335 15.2214845,3.61884128 15.5229522,3.93133658 C15.8244199,4.24383188 15.9925061,4.66845364 15.9896462,5.11030541 L15.9896462,7.59564038 L11.9922679,7.59564038 C11.5667435,7.58683217 11.1562319,7.75862298 10.8559466,8.07116782 C10.549643,8.37624545 10.3805279,8.80023369 10.3895858,9.24037985 C10.3952382,9.53194242 10.4614063,9.81882593 10.5835918,10.0815277 C10.692454,10.3069355 10.8527136,10.5014382 11.0504856,10.648184 C11.3295633,10.8369531 11.6602567,10.9266924 11.9928009,10.9038974 L15.9896462,10.9038974 L15.9896462,14.2292756 Z M13.5944171,2.63613769 L5.59966066,2.63613769 C6.23391134,2.30710905 6.83280743,1.98962839 7.39634894,1.68369571 C7.88491739,1.42750818 8.37224221,1.16883339 8.85832341,0.907671351 C9.34440461,0.646509308 9.72015816,0.446640397 9.98558406,0.308064619 C10.3170959,0.106006651 10.6979596,-0.00059829809 11.0861955,1.27054942e-21 C11.366651,0.0089506758 11.6435183,0.0657301065 11.9048586,0.167889887 C12.1586935,0.293794938 12.3859594,0.46732047 12.5742862,0.679021313 L13.5954831,2.63720367 L13.5944171,2.63613769 Z M11.1991881,9.21309751 C11.191719,8.92514369 11.3410719,8.65580856 11.5892768,8.50963224 C11.8374817,8.36345592 12.1454552,8.36345592 12.3936601,8.50963224 C12.641865,8.65580856 12.791218,8.92514369 12.7837488,9.21309751 C12.787397,9.42716555 12.7050311,9.63375234 12.5550988,9.78658803 C12.407158,9.93894837 12.2038364,10.024925 11.9914685,10.024925 C11.7791005,10.024925 11.575779,9.93894837 11.4278381,9.78658803 C11.2779059,9.63375234 11.1955399,9.42716555 11.1991881,9.21309751 Z" id="Shape"></path>
        </g>
    </g>
</svg>