<?xml version="1.0" encoding="UTF-8"?>
<svg width="16px" height="18px" viewBox="0 0 16 18" version="1.1" xmlns="http://www.w3.org/2000/svg" xmlns:xlink="http://www.w3.org/1999/xlink">
    <!-- Generator: Sketch 52.1 (67048) - http://www.bohemiancoding.com/sketch -->
    <title>8.icon_Ordinary purse9</title>
    <desc>Created with Sketch.</desc>
    <g id="8.icon_Ordinary-purse9" stroke="none" stroke-width="1" fill="none" fill-rule="evenodd">
        <g id="钱包-(2)" transform="translate(0.000000, 1.000000)" fill-rule="nonzero">
            <path d="M15.999948,14.3262007 C16.001625,14.5494036 15.9627167,14.770916 15.8852826,14.9790135 C15.8110909,15.1774065 15.700391,15.3587508 15.5594194,15.5128298 C15.4196787,15.6654885 15.2519069,15.7872723 15.0660914,15.8709315 C14.8711771,15.9579704 14.6610622,16.0018981 14.4490313,15.9999371 L1.65343568,15.9999371 C1.43595208,16.0011421 1.22040534,15.9572917 1.01930917,15.8709315 C0.822881484,15.7874031 0.6433744,15.6659014 0.490248194,15.5128298 C0.338040861,15.360676 0.215284491,15.1794535 0.128652087,14.9790135 C0.0412328169,14.773594 -0.00261035457,14.5509149 0.000120136755,14.3262007 L0.000120136755,5.14511672 C-0.00287285731,4.70117851 0.164545872,4.2744303 0.465081199,3.95993688 C0.765616526,3.64544347 1.17430429,3.46932846 1.60010292,3.4708242 L14.3946319,3.4708242 C14.8213089,3.4679882 15.2312908,3.6434935 15.532953,3.95811736 C15.8346152,4.27274122 16.0028098,4.70025528 15.999948,5.14511672 L15.999948,7.64738052 L11.999991,7.64738052 C11.5741921,7.63851231 11.1634156,7.81147327 10.8629366,8.12614701 C10.5564355,8.43330267 10.3872112,8.8601789 10.3962749,9.30332311 C10.4019311,9.59687166 10.4681419,9.88570928 10.5904062,10.1502004 C10.6993386,10.3771436 10.8597016,10.5729712 11.0576012,10.7207165 C11.3368589,10.9107714 11.6677656,11.001122 12.0005244,10.9781717 L15.999948,10.9781717 L15.999948,14.3262007 Z M13.6031738,2.65409623 L5.60325985,2.65409623 C6.23791968,2.32282642 6.83720212,2.00318325 7.40110717,1.69516671 C7.88999081,1.43723416 8.37763001,1.17679741 8.86402478,0.913856466 C9.35041955,0.650915521 9.7264155,0.449685205 9.99201263,0.310165519 C10.3237383,0.106731236 10.7048477,-0.000599851763 11.0933341,2.52162791e-06 C11.3739705,0.00901416485 11.6510164,0.0661803481 11.9125253,0.169035989 C12.1665239,0.29579864 12.3939365,0.47050614 12.5823848,0.683648981 L13.6042404,2.65516947 L13.6031738,2.65409623 Z M11.2063996,9.27585494 C11.1989256,8.98593973 11.3483749,8.71477002 11.5967399,8.56759803 C11.8451049,8.42042603 12.1532772,8.42042603 12.4016422,8.56759803 C12.6500072,8.71477002 12.7994565,8.98593973 12.7919825,9.27585494 C12.795633,9.49138111 12.713214,9.69937506 12.563185,9.85325179 C12.4151487,10.0066499 12.211696,10.0932122 11.999191,10.0932122 C11.7866861,10.0932122 11.5832334,10.0066499 11.4351971,9.85325179 C11.2851681,9.69937506 11.2027491,9.49138111 11.2063996,9.27585494 Z" id="Shape" fill="#9EABBE"></path>
            <path d="M4.41574203,9.35954062 L3.88888586,9.88843851 L3.41514019,10.3660866 C3.27280404,10.509586 2.87341308,10.9011345 2.77781417,10.9995341 L2.59511405,11.1860834 C2.54272876,11.2367596 2.49575537,11.292389 2.45490233,11.3521327 C2.42105445,11.4050059 2.39191622,11.4605549 2.36780111,11.518182 C2.33373983,11.5876992 2.30532869,11.6596656 2.28282431,11.7334312 C2.24883358,11.8372974 2.21271844,11.9514136 2.17447888,12.0757798 C2.13623932,12.200146 2.10154046,12.3197288 2.0703823,12.4345284 C2.04446257,12.5214292 2.02389061,12.609733 2.00877412,12.6989773 C1.98845236,12.7825013 2.00376192,12.8704018 2.05126252,12.9429264 C2.09091836,12.9907595 2.16881376,13.0085261 2.28494873,12.9962262 C2.34159993,12.9880262 2.42728487,12.9682096 2.54200355,12.9367764 C2.65672223,12.9053432 2.77639789,12.8691267 2.90103054,12.8281268 C3.0242469,12.7884936 3.14675512,12.7461271 3.2685552,12.7010273 C3.36045668,12.668763 3.45051732,12.6318111 3.53835655,12.5903278 C3.60153715,12.5629222 3.66079962,12.5277837 3.71468341,12.4857782 C3.77133461,12.442045 3.82090442,12.4003619 3.86339282,12.3607287 C3.88038818,12.3470621 3.93420682,12.2951289 4.02484874,12.2049293 L4.36263153,11.8482307 C4.50071883,11.7067813 4.93834936,11.280383 5.11042738,11.1102337 L5.63091029,10.5813358 L6.9884147,9.19554127 L5.76262433,8.004496 L4.41574203,9.35954062 Z M7.99963864,7.89584644 C8.00391712,7.76120261 7.97013517,7.62797432 7.90191531,7.51044797 C7.85059293,7.41842153 7.78464422,7.33472343 7.70646867,7.26239896 C7.5742033,7.13573827 7.40667537,7.04885564 7.22422532,7.01229995 C7.18560274,7.00570853 7.14656915,7.0015995 7.10738222,7 L7.08826244,7 C7.01614326,7.00057614 6.94452557,7.01163352 6.87582043,7.03279987 C6.789444,7.06006399 6.70936341,7.1032266 6.64000981,7.15989936 C6.58052605,7.20909917 6.50971205,7.27743223 6.42756781,7.36489855 L6.18113508,7.57399772 L7.40055219,8.77324295 C7.43879175,8.74044308 7.47915573,8.70217656 7.52164413,8.6584434 L7.65548259,8.52724393 L7.82968503,8.36324458 C7.88574365,8.30330185 7.92969516,8.2337745 7.95927466,8.15824539 C7.98473227,8.09262987 7.99838339,8.02329907 7.99963864,7.95324621 L7.99963864,7.90814639 L7.99963864,7.89584644 Z" id="Shape-Copy" fill="#FFFFFF"></path>
        </g>
    </g>
</svg>