<?xml version="1.0" encoding="UTF-8"?>
<svg width="26px" height="26px" viewBox="0 0 26 26" version="1.1" xmlns="http://www.w3.org/2000/svg" xmlns:xlink="http://www.w3.org/1999/xlink">
    <!-- Generator: Sketch 52.1 (67048) - http://www.bohemiancoding.com/sketch -->
    <title>28.icon_add</title>
    <desc>Created with Sketch.</desc>
    <g id="28.icon_add" stroke="none" stroke-width="1" fill="none" fill-rule="evenodd">
        <g id="19.icon_add" fill="#9EABBE" fill-rule="nonzero">
            <path d="M13.0003412,20.8439622 C13.1796074,20.847335 13.3525362,20.777655 13.4793835,20.6509368 C13.6062308,20.5242185 13.6760868,20.3513607 13.6728964,20.1720912 L13.6728964,13.6723209 L20.1726667,13.6723209 C20.3519363,13.6755112 20.5247941,13.6056552 20.6515123,13.478808 C20.7782306,13.3519607 20.8479105,13.1790319 20.8445377,12.9997657 C20.8479105,12.8204995 20.7782306,12.6475706 20.6515123,12.5207234 C20.5247941,12.3938761 20.3519363,12.3240201 20.1726667,12.3272105 L13.6728964,12.3272105 L13.6728964,5.82744014 C13.6762749,5.64805303 13.606502,5.47501599 13.4796337,5.34814765 C13.3527654,5.22127932 13.1797283,5.15150646 13.0003412,5.15488495 C12.8209541,5.15150646 12.6479171,5.22127932 12.5210487,5.34814765 C12.3941804,5.47501599 12.3244075,5.64805303 12.327786,5.82744014 L12.327786,12.3272105 L5.8280157,12.3272105 C5.64862859,12.323832 5.47559155,12.3936048 5.34872321,12.5204732 C5.22185488,12.6473415 5.15208202,12.8203786 5.15546051,12.9997657 C5.15546051,13.3808575 5.44692391,13.6723209 5.8280157,13.6723209 L12.327786,13.6723209 L12.327786,20.1720912 C12.327786,20.553183 12.6192494,20.8439622 13.0003412,20.8439622 Z M10.7589467,1.34465116 L15.2417357,1.34465116 C15.4210019,1.34802397 15.5939307,1.27834399 15.720778,1.15162575 C15.8476253,1.02490751 15.9174812,0.852049692 15.9142909,0.672780155 C15.9176694,0.493393043 15.8478965,0.320356007 15.7210282,0.19348767 C15.5941598,0.0666193319 15.4211228,-0.00315352345 15.2417357,0.000224966111 L10.7589467,0.000224966111 C10.5795596,-0.00315351646 10.4065226,0.0666193419 10.2796543,0.193487679 C10.1527859,0.320356016 10.0830131,0.493393047 10.0863916,0.672780155 C10.0863916,1.05387195 10.377855,1.34533534 10.7589467,1.34533534 L10.7589467,1.34465116 Z M0.673355716,6.94882156 C0.852742828,6.95220005 1.02577986,6.88242719 1.1526482,6.75555885 C1.27951654,6.62869052 1.34928939,6.45565348 1.3459109,6.27626637 L1.3459109,3.13790359 C1.3459109,2.15199107 2.1525666,1.34533534 3.13847915,1.34533534 L6.27615775,1.34533534 C6.45554486,1.34871383 6.6285819,1.27894098 6.75545023,1.15207264 C6.88231857,1.0252043 6.95209143,0.852167267 6.94871294,0.672780155 C6.95209143,0.493393043 6.88231857,0.320356007 6.75545023,0.19348767 C6.6285819,0.0666193319 6.45554486,-0.00315352345 6.27615775,0.000224966111 L3.13847915,0.000224966111 C1.40777029,0.00548436731 0.00605992842,1.40719473 0.000800527214,3.13790359 L0.000800527214,6.27558219 C0.000800527214,6.65667398 0.292263922,6.94813738 0.673355716,6.94813738 L0.673355716,6.94882156 Z M0.673355716,15.9143995 C0.852742824,15.917778 1.02577985,15.8480051 1.15264819,15.7211368 C1.27951653,15.5942685 1.34928939,15.4212315 1.3459109,15.2418443 L1.3459109,10.7590553 C1.34928939,10.5796682 1.27951653,10.4066312 1.15264819,10.2797629 C1.02577985,10.1528945 0.852742824,10.0831217 0.673355716,10.0865002 C0.493968608,10.0831217 0.320931577,10.1528945 0.19406324,10.2797629 C0.067194903,10.4066312 -0.00257795536,10.5796682 0.000800527214,10.7590553 L0.000800527214,15.2418443 C0.000800527214,15.6229361 0.292263922,15.9143995 0.673355716,15.9143995 Z M6.27684195,24.6548802 L3.13779497,24.6548802 C2.14903441,24.6518748 1.3482321,23.8510725 1.34522672,22.8623119 L1.34522672,19.7246333 C1.34860521,19.5452462 1.27883236,19.3722092 1.15196402,19.2453408 C1.02509568,19.1184725 0.852058648,19.0486996 0.672671536,19.0520781 C0.493284424,19.0486996 0.320247388,19.1184725 0.193379051,19.2453408 C0.0665107129,19.3722092 -0.0032621424,19.5452462 0.000116347159,19.7246333 L0.000116347159,22.8623119 C0.00575310761,24.5930196 1.40776914,25.9944244 3.13847915,25.9993063 L6.27615775,25.9993063 C6.45554486,26.0026848 6.6285819,25.932912 6.75545023,25.8060436 C6.88231857,25.6791753 6.95209143,25.5061383 6.94871294,25.3267511 C6.95209142,25.147364 6.88231856,24.974327 6.75545022,24.8474587 C6.62858189,24.7205903 6.45554486,24.6508175 6.27615775,24.654196 L6.27684195,24.6548802 Z M15.2417357,24.6548802 L10.7589467,24.6548802 C10.5795596,24.6515017 10.4065226,24.7212745 10.2796543,24.8481429 C10.1527859,24.9750112 10.0830131,25.1480482 10.0863916,25.3274354 C10.0863916,25.7085271 10.377855,25.9999905 10.7589467,25.9999905 L15.2417357,25.9999905 C15.4211228,26.003369 15.5941598,25.9335962 15.7210282,25.8067278 C15.8478965,25.6798595 15.9176694,25.5068225 15.9142909,25.3274354 C15.9176694,25.1480482 15.8478965,24.9750112 15.7210282,24.8481429 C15.5941598,24.7212745 15.4211228,24.6515017 15.2417357,24.6548802 Z M25.3273267,19.051394 C25.1478186,19.0480096 24.9746732,19.1178753 24.8477837,19.2448938 C24.7208943,19.3719123 24.6512047,19.5451287 24.6547715,19.7246333 L24.6547715,22.8623119 C24.6547715,23.8482244 23.8481158,24.6548802 22.8622033,24.6548802 L19.7245247,24.6548802 C19.5451376,24.6515017 19.3721005,24.7212745 19.2452322,24.8481429 C19.1183639,24.9750112 19.048591,25.1480482 19.0519695,25.3274354 C19.0519695,25.7085271 19.3434329,25.9999905 19.7245247,25.9999905 L22.8622033,25.9999905 C24.5931782,25.9947292 25.994998,24.5926038 25.9998819,22.8616277 L25.9998819,19.7232649 C26.0030722,19.5439954 25.9332163,19.3711376 25.806369,19.2444194 C25.6795217,19.1177011 25.5065929,19.0480212 25.3273267,19.051394 Z M25.3273267,10.0865002 C25.1479396,10.0831217 24.9749026,10.1528945 24.8480343,10.2797629 C24.7211659,10.4066312 24.6513931,10.5796682 24.6547715,10.7590553 L24.6547715,15.2418443 C24.6547715,15.6229361 24.9462349,15.9143995 25.3273267,15.9143995 C25.5067138,15.917778 25.6797509,15.8480051 25.8066192,15.7211368 C25.9334875,15.5942685 26.0032604,15.4212314 25.9998819,15.2418443 L25.9998819,10.7590553 C26.0032604,10.5796682 25.9334875,10.4066312 25.8066192,10.2797629 C25.6797509,10.1528946 25.5067138,10.0831217 25.3273267,10.0865002 Z M22.8622033,0.000224966258 L19.7245247,0.000224966258 C19.5451376,-0.00315351632 19.3721005,0.0666193421 19.2452322,0.193487679 C19.1183639,0.320356016 19.048591,0.493393047 19.0519695,0.672780155 C19.0519695,1.05387195 19.3434329,1.34533534 19.7245247,1.34533534 L22.8622033,1.34533534 C23.8481158,1.34533534 24.6547715,2.15199104 24.6547715,3.13790359 L24.6547715,6.27558219 C24.6547715,6.65667398 24.9462349,6.94813738 25.3273267,6.94813738 C25.5067138,6.95151586 25.6797509,6.881743 25.8066192,6.75487466 C25.9334875,6.62800633 26.0032604,6.4549693 25.9998819,6.27558219 L25.9998819,3.13790359 C25.9946225,1.40719474 24.5929121,0.00548438139 22.8622033,0.000224966258 Z" id="Shape"></path>
        </g>
    </g>
</svg>