<?xml version="1.0" encoding="UTF-8"?>
<svg width="301px" height="27px" viewBox="0 0 301 27" version="1.1" xmlns="http://www.w3.org/2000/svg" xmlns:xlink="http://www.w3.org/1999/xlink">
    <!-- Generator: Sketch 52.2 (67145) - http://www.bohemiancoding.com/sketch -->
    <title>19.icon_add</title>
    <desc>Created with Sketch.</desc>
    <g id="19.icon_add" stroke="none" stroke-width="1" fill="none" fill-rule="evenodd">
        <g fill="#D3D8E1" fill-rule="nonzero" id="Shape">
            <path d="M149.844997,20.6893022 C150.024263,20.692675 150.197192,20.622995 150.324039,20.4962768 C150.450887,20.3695585 150.520743,20.1967007 150.517552,20.0174312 L150.517552,13.5176609 L157.017323,13.5176609 C157.196592,13.5208512 157.36945,13.4509953 157.496168,13.324148 C157.622886,13.1973007 157.692566,13.0243719 157.689194,12.8451057 C157.692566,12.6658395 157.622886,12.4929107 157.496168,12.3660634 C157.36945,12.2392161 157.196592,12.1693602 157.017323,12.1725505 L150.517552,12.1725505 L150.517552,5.67278015 C150.520931,5.49339304 150.451158,5.32035601 150.32429,5.19348767 C150.197421,5.06661933 150.024384,4.99684648 149.844997,5.00022497 C149.66561,4.99684648 149.492573,5.06661933 149.365705,5.19348767 C149.238836,5.32035601 149.169063,5.49339304 149.172442,5.67278015 L149.172442,12.1725505 L142.672672,12.1725505 C142.493284,12.169172 142.320247,12.2389449 142.193379,12.3658132 C142.066511,12.4926815 141.996738,12.6657186 142.000116,12.8451057 C142.000116,13.2261975 142.29158,13.5176609 142.672672,13.5176609 L149.172442,13.5176609 L149.172442,20.0174312 C149.172442,20.398523 149.463905,20.6893022 149.844997,20.6893022 Z M0.673355716,6.94882156 C0.852742828,6.95220005 1.02577986,6.88242719 1.1526482,6.75555885 C1.27951654,6.62869052 1.34928939,6.45565348 1.3459109,6.27626637 L1.3459109,3.13790359 C1.3459109,2.15199107 2.1525666,1.34533534 3.13847915,1.34533534 L6.27615775,1.34533534 C6.45554486,1.34871383 6.6285819,1.27894098 6.75545023,1.15207264 C6.88231857,1.0252043 6.95209143,0.852167267 6.94871294,0.672780155 C6.95209143,0.493393043 6.88231857,0.320356007 6.75545023,0.19348767 C6.6285819,0.0666193319 6.45554486,-0.00315352345 6.27615775,0.000224966111 L3.13847915,0.000224966111 C1.40777029,0.00548436731 0.00605992842,1.40719473 0.000800527214,3.13790359 L0.000800527214,6.27558219 C0.000800527214,6.65667398 0.292263922,6.94813738 0.673355716,6.94813738 L0.673355716,6.94882156 Z M0.673355716,15.9143995 C0.852742824,15.917778 1.02577985,15.8480051 1.15264819,15.7211368 C1.27951653,15.5942685 1.34928939,15.4212315 1.3459109,15.2418443 L1.3459109,10.7590553 C1.34928939,10.5796682 1.27951653,10.4066312 1.15264819,10.2797629 C1.02577985,10.1528945 0.852742824,10.0831217 0.673355716,10.0865002 C0.493968608,10.0831217 0.320931577,10.1528945 0.19406324,10.2797629 C0.067194903,10.4066312 -0.00257795536,10.5796682 0.000800527214,10.7590553 L0.000800527214,15.2418443 C0.000800527214,15.6229361 0.292263922,15.9143995 0.673355716,15.9143995 Z M6.27684195,24.6548802 L3.13779497,24.6548802 C2.14903441,24.6518748 1.3482321,23.8510725 1.34522672,22.8623119 L1.34522672,19.7246333 C1.34860521,19.5452462 1.27883236,19.3722092 1.15196402,19.2453408 C1.02509568,19.1184725 0.852058648,19.0486996 0.672671536,19.0520781 C0.493284424,19.0486996 0.320247388,19.1184725 0.193379051,19.2453408 C0.0665107129,19.3722092 -0.0032621424,19.5452462 0.000116347159,19.7246333 L0.000116347159,22.8623119 C0.00575310761,24.5930196 1.40776914,25.9944244 3.13847915,25.9993063 L6.27615775,25.9993063 C6.45554486,26.0026848 6.6285819,25.932912 6.75545023,25.8060436 C6.88231857,25.6791753 6.95209143,25.5061383 6.94871294,25.3267511 C6.95209142,25.147364 6.88231856,24.974327 6.75545022,24.8474587 C6.62858189,24.7205903 6.45554486,24.6508175 6.27615775,24.654196 L6.27684195,24.6548802 Z M10.7589467,1.34465116 L15.2417357,1.34465116 C15.4210019,1.34802397 15.5939307,1.27834399 15.720778,1.15162575 C15.8476253,1.02490751 15.9174812,0.852049692 15.9142909,0.672780155 C15.9176694,0.493393043 15.8478965,0.320356007 15.7210282,0.19348767 C15.5941598,0.0666193319 15.4211228,-0.00315352345 15.2417357,0.000224966111 L10.7589467,0.000224966111 C10.5795596,-0.00315351646 10.4065226,0.0666193419 10.2796543,0.193487679 C10.1527859,0.320356016 10.0830131,0.493393047 10.0863916,0.672780155 C10.0863916,1.05387195 10.377855,1.34533534 10.7589467,1.34533534 L10.7589467,1.34465116 Z M15.2417357,24.6548802 L10.7589467,24.6548802 C10.5795596,24.6515017 10.4065226,24.7212745 10.2796543,24.8481429 C10.1527859,24.9750112 10.0830131,25.1480482 10.0863916,25.3274354 C10.0863916,25.7085271 10.377855,25.9999905 10.7589467,25.9999905 L15.2417357,25.9999905 C15.4211228,26.003369 15.5941598,25.9335962 15.7210282,25.8067278 C15.8478965,25.6798595 15.9176694,25.5068225 15.9142909,25.3274354 C15.9176694,25.1480482 15.8478965,24.9750112 15.7210282,24.8481429 C15.5941598,24.7212745 15.4211228,24.6515017 15.2417357,24.6548802 Z M19.7589467,1.34465116 L24.2417357,1.34465116 C24.4210019,1.34802397 24.5939307,1.27834399 24.720778,1.15162575 C24.8476253,1.02490751 24.9174812,0.852049692 24.9142909,0.672780155 C24.9176694,0.493393043 24.8478965,0.320356007 24.7210282,0.19348767 C24.5941598,0.0666193319 24.4211228,-0.00315352345 24.2417357,0.000224966111 L19.7589467,0.000224966111 C19.5795596,-0.00315351646 19.4065226,0.0666193419 19.2796543,0.193487679 C19.1527859,0.320356016 19.0830131,0.493393047 19.0863916,0.672780155 C19.0863916,1.05387195 19.377855,1.34533534 19.7589467,1.34533534 L19.7589467,1.34465116 Z M24.2417357,24.6548802 L19.7589467,24.6548802 C19.5795596,24.6515017 19.4065226,24.7212745 19.2796543,24.8481429 C19.1527859,24.9750112 19.0830131,25.1480482 19.0863916,25.3274354 C19.0863916,25.7085271 19.377855,25.9999905 19.7589467,25.9999905 L24.2417357,25.9999905 C24.4211228,26.003369 24.5941598,25.9335962 24.7210282,25.8067278 C24.8478965,25.6798595 24.9176694,25.5068225 24.9142909,25.3274354 C24.9176694,25.1480482 24.8478965,24.9750112 24.7210282,24.8481429 C24.5941598,24.7212745 24.4211228,24.6515017 24.2417357,24.6548802 Z M28.6726715,1.34465116 L33.1554605,1.34465116 C33.3347267,1.34802397 33.5076555,1.27834399 33.6345028,1.15162575 C33.7613501,1.02490751 33.831206,0.852049692 33.8280157,0.672780155 C33.8313942,0.493393043 33.7616213,0.320356007 33.634753,0.19348767 C33.5078846,0.0666193319 33.3348476,-0.00315352345 33.1554605,0.000224966111 L28.6726715,0.000224966111 C28.4932844,-0.00315351646 28.3202474,0.0666193419 28.193379,0.193487679 C28.0665107,0.320356016 27.9967379,0.493393047 28.0001163,0.672780155 C28.0001163,1.05387195 28.2915797,1.34533534 28.6726715,1.34533534 L28.6726715,1.34465116 Z M33.1554605,25.000225 L28.6726715,25.000225 C28.4932844,24.9968465 28.3202474,25.0666193 28.193379,25.1934877 C28.0665107,25.320356 27.9967379,25.493393 28.0001163,25.6727802 C28.0001163,26.0538719 28.2915797,26.3453353 28.6726715,26.3453353 L33.1554605,26.3453353 C33.3348476,26.3487138 33.5078846,26.278941 33.634753,26.1520726 C33.7616213,26.0252043 33.8313942,25.8521673 33.8280157,25.6727802 C33.8313942,25.493393 33.7616213,25.320356 33.634753,25.1934877 C33.5078846,25.0666193 33.3348476,24.9968465 33.1554605,25.000225 Z M37.6726715,1.34465116 L42.1554605,1.34465116 C42.3347267,1.34802397 42.5076555,1.27834399 42.6345028,1.15162575 C42.7613501,1.02490751 42.831206,0.852049692 42.8280157,0.672780155 C42.8313942,0.493393043 42.7616213,0.320356007 42.634753,0.19348767 C42.5078846,0.0666193319 42.3348476,-0.00315352345 42.1554605,0.000224966111 L37.6726715,0.000224966111 C37.4932844,-0.00315351646 37.3202474,0.0666193419 37.193379,0.193487679 C37.0665107,0.320356016 36.9967379,0.493393047 37.0001163,0.672780155 C37.0001163,1.05387195 37.2915797,1.34533534 37.6726715,1.34533534 L37.6726715,1.34465116 Z M42.1554605,25.000225 L37.6726715,25.000225 C37.4932844,24.9968465 37.3202474,25.0666193 37.193379,25.1934877 C37.0665107,25.320356 36.9967379,25.493393 37.0001163,25.6727802 C37.0001163,26.0538719 37.2915797,26.3453353 37.6726715,26.3453353 L42.1554605,26.3453353 C42.3348476,26.3487138 42.5078846,26.278941 42.634753,26.1520726 C42.7616213,26.0252043 42.8313942,25.8521673 42.8280157,25.6727802 C42.8313942,25.493393 42.7616213,25.320356 42.634753,25.1934877 C42.5078846,25.0666193 42.3348476,24.9968465 42.1554605,25.000225 Z M51.1554605,1.34465116 C51.3347267,1.34802397 51.5076555,1.27834399 51.6345028,1.15162575 C51.7613501,1.02490751 51.831206,0.852049692 51.8280157,0.672780155 C51.8313942,0.493393043 51.7616213,0.320356007 51.634753,0.19348767 C51.5078846,0.0666193319 51.3348476,-0.00315352345 51.1554605,0.000224966111 L46.6726715,0.000224966111 C46.4932844,-0.00315351646 46.3202474,0.0666193419 46.193379,0.193487679 C46.0665107,0.320356016 45.9967379,0.493393047 46.0001163,0.672780155 C46.0001163,1.05387195 46.2915797,1.34533534 46.6726715,1.34533534 L51.1554605,1.34465116 Z M60.1554605,1.34465116 C60.3347267,1.34802397 60.5076555,1.27834399 60.6345028,1.15162575 C60.7613501,1.02490751 60.831206,0.852049692 60.8280157,0.672780155 C60.8313942,0.493393043 60.7616213,0.320356007 60.634753,0.19348767 C60.5078846,0.0666193319 60.3348476,-0.00315352345 60.1554605,0.000224966111 L55.6726715,0.000224966111 C55.4932844,-0.00315351646 55.3202474,0.0666193419 55.193379,0.193487679 C55.0665107,0.320356016 54.9967379,0.493393047 55.0001163,0.672780155 C55.0001163,1.05387195 55.2915797,1.34533534 55.6726715,1.34533534 L60.1554605,1.34465116 Z M51.1554605,25.000225 L46.6726715,25.000225 C46.4932844,24.9968465 46.3202474,25.0666193 46.193379,25.1934877 C46.0665107,25.320356 45.9967379,25.493393 46.0001163,25.6727802 C46.0001163,26.0538719 46.2915797,26.3453353 46.6726715,26.3453353 L51.1554605,26.3453353 C51.3348476,26.3487138 51.5078846,26.278941 51.634753,26.1520726 C51.7616213,26.0252043 51.8313942,25.8521673 51.8280157,25.6727802 C51.8313942,25.493393 51.7616213,25.320356 51.634753,25.1934877 C51.5078846,25.0666193 51.3348476,24.9968465 51.1554605,25.000225 Z M19.7589467,1.34465116 L24.2417357,1.34465116 C24.4210019,1.34802397 24.5939307,1.27834399 24.720778,1.15162575 C24.8476253,1.02490751 24.9174812,0.852049692 24.9142909,0.672780155 C24.9176694,0.493393043 24.8478965,0.320356007 24.7210282,0.19348767 C24.5941598,0.0666193319 24.4211228,-0.00315352345 24.2417357,0.000224966111 L19.7589467,0.000224966111 C19.5795596,-0.00315351646 19.4065226,0.0666193419 19.2796543,0.193487679 C19.1527859,0.320356016 19.0830131,0.493393047 19.0863916,0.672780155 C19.0863916,1.05387195 19.377855,1.34533534 19.7589467,1.34533534 L19.7589467,1.34465116 Z M60.1554605,25.000225 L55.6726715,25.000225 C55.4932844,24.9968465 55.3202474,25.0666193 55.193379,25.1934877 C55.0665107,25.320356 54.9967379,25.493393 55.0001163,25.6727802 C55.0001163,26.0538719 55.2915797,26.3453353 55.6726715,26.3453353 L60.1554605,26.3453353 C60.3348476,26.3487138 60.5078846,26.278941 60.634753,26.1520726 C60.7616213,26.0252043 60.8313942,25.8521673 60.8280157,25.6727802 C60.8313942,25.493393 60.7616213,25.320356 60.634753,25.1934877 C60.5078846,25.0666193 60.3348476,24.9968465 60.1554605,25.000225 Z M64.6726715,1.34465116 L69.1554605,1.34465116 C69.3347267,1.34802397 69.5076555,1.27834399 69.6345028,1.15162575 C69.7613501,1.02490751 69.831206,0.852049692 69.8280157,0.672780155 C69.8313942,0.493393043 69.7616213,0.320356007 69.634753,0.19348767 C69.5078846,0.0666193319 69.3348476,-0.00315352345 69.1554605,0.000224966111 L64.6726715,0.000224966111 C64.4932844,-0.00315351646 64.3202474,0.0666193419 64.193379,0.193487679 C64.0665107,0.320356016 63.9967379,0.493393047 64.0001163,0.672780155 C64.0001163,1.05387195 64.2915797,1.34533534 64.6726715,1.34533534 L64.6726715,1.34465116 Z M69.1554605,25.000225 L64.6726715,25.000225 C64.4932844,24.9968465 64.3202474,25.0666193 64.193379,25.1934877 C64.0665107,25.320356 63.9967379,25.493393 64.0001163,25.6727802 C64.0001163,26.0538719 64.2915797,26.3453353 64.6726715,26.3453353 L69.1554605,26.3453353 C69.3348476,26.3487138 69.5078846,26.278941 69.634753,26.1520726 C69.7616213,26.0252043 69.8313942,25.8521673 69.8280157,25.6727802 C69.8313942,25.493393 69.7616213,25.320356 69.634753,25.1934877 C69.5078846,25.0666193 69.3348476,24.9968465 69.1554605,25.000225 Z M73.6726715,1.34465116 L78.1554605,1.34465116 C78.3347267,1.34802397 78.5076555,1.27834399 78.6345028,1.15162575 C78.7613501,1.02490751 78.831206,0.852049692 78.8280157,0.672780155 C78.8313942,0.493393043 78.7616213,0.320356007 78.634753,0.19348767 C78.5078846,0.0666193319 78.3348476,-0.00315352345 78.1554605,0.000224966111 L73.6726715,0.000224966111 C73.4932844,-0.00315351646 73.3202474,0.0666193419 73.193379,0.193487679 C73.0665107,0.320356016 72.9967379,0.493393047 73.0001163,0.672780155 C73.0001163,1.05387195 73.2915797,1.34533534 73.6726715,1.34533534 L73.6726715,1.34465116 Z M78.1554605,25.000225 L73.6726715,25.000225 C73.4932844,24.9968465 73.3202474,25.0666193 73.193379,25.1934877 C73.0665107,25.320356 72.9967379,25.493393 73.0001163,25.6727802 C73.0001163,26.0538719 73.2915797,26.3453353 73.6726715,26.3453353 L78.1554605,26.3453353 C78.3348476,26.3487138 78.5078846,26.278941 78.634753,26.1520726 C78.7616213,26.0252043 78.8313942,25.8521673 78.8280157,25.6727802 C78.8313942,25.493393 78.7616213,25.320356 78.634753,25.1934877 C78.5078846,25.0666193 78.3348476,24.9968465 78.1554605,25.000225 Z M82.7589467,1.34465116 L87.2417357,1.34465116 C87.4210019,1.34802397 87.5939307,1.27834399 87.720778,1.15162575 C87.8476253,1.02490751 87.9174812,0.852049692 87.9142909,0.672780155 C87.9176694,0.493393043 87.8478965,0.320356007 87.7210282,0.19348767 C87.5941598,0.0666193319 87.4211228,-0.00315352345 87.2417357,0.000224966111 L82.7589467,0.000224966111 C82.5795596,-0.00315351646 82.4065226,0.0666193419 82.2796543,0.193487679 C82.1527859,0.320356016 82.0830131,0.493393047 82.0863916,0.672780155 C82.0863916,1.05387195 82.377855,1.34533534 82.7589467,1.34533534 L82.7589467,1.34465116 Z M87.2417357,24.6548802 L82.7589467,24.6548802 C82.5795596,24.6515017 82.4065226,24.7212745 82.2796543,24.8481429 C82.1527859,24.9750112 82.0830131,25.1480482 82.0863916,25.3274354 C82.0863916,25.7085271 82.377855,25.9999905 82.7589467,25.9999905 L87.2417357,25.9999905 C87.4211228,26.003369 87.5941598,25.9335962 87.7210282,25.8067278 C87.8478965,25.6798595 87.9176694,25.5068225 87.9142909,25.3274354 C87.9176694,25.1480482 87.8478965,24.9750112 87.7210282,24.8481429 C87.5941598,24.7212745 87.4211228,24.6515017 87.2417357,24.6548802 Z M91.7589467,1.34465116 L96.2417357,1.34465116 C96.4210019,1.34802397 96.5939307,1.27834399 96.720778,1.15162575 C96.8476253,1.02490751 96.9174812,0.852049692 96.9142909,0.672780155 C96.9176694,0.493393043 96.8478965,0.320356007 96.7210282,0.19348767 C96.5941598,0.0666193319 96.4211228,-0.00315352345 96.2417357,0.000224966111 L91.7589467,0.000224966111 C91.5795596,-0.00315351646 91.4065226,0.0666193419 91.2796543,0.193487679 C91.1527859,0.320356016 91.0830131,0.493393047 91.0863916,0.672780155 C91.0863916,1.05387195 91.377855,1.34533534 91.7589467,1.34533534 L91.7589467,1.34465116 Z M96.2417357,24.6548802 L91.7589467,24.6548802 C91.5795596,24.6515017 91.4065226,24.7212745 91.2796543,24.8481429 C91.1527859,24.9750112 91.0830131,25.1480482 91.0863916,25.3274354 C91.0863916,25.7085271 91.377855,25.9999905 91.7589467,25.9999905 L96.2417357,25.9999905 C96.4211228,26.003369 96.5941598,25.9335962 96.7210282,25.8067278 C96.8478965,25.6798595 96.9176694,25.5068225 96.9142909,25.3274354 C96.9176694,25.1480482 96.8478965,24.9750112 96.7210282,24.8481429 C96.5941598,24.7212745 96.4211228,24.6515017 96.2417357,24.6548802 Z M100.672672,1.34465116 L105.15546,1.34465116 C105.334727,1.34802397 105.507656,1.27834399 105.634503,1.15162575 C105.76135,1.02490751 105.831206,0.852049692 105.828016,0.672780155 C105.831394,0.493393043 105.761621,0.320356007 105.634753,0.19348767 C105.507885,0.0666193319 105.334848,-0.00315352345 105.15546,0.000224966111 L100.672672,0.000224966111 C100.493284,-0.00315351646 100.320247,0.0666193419 100.193379,0.193487679 C100.066511,0.320356016 99.9967379,0.493393047 100.000116,0.672780155 C100.000116,1.05387195 100.29158,1.34533534 100.672672,1.34533534 L100.672672,1.34465116 Z M105.15546,25.000225 L100.672672,25.000225 C100.493284,24.9968465 100.320247,25.0666193 100.193379,25.1934877 C100.066511,25.320356 99.9967379,25.493393 100.000116,25.6727802 C100.000116,26.0538719 100.29158,26.3453353 100.672672,26.3453353 L105.15546,26.3453353 C105.334848,26.3487138 105.507885,26.278941 105.634753,26.1520726 C105.761621,26.0252043 105.831394,25.8521673 105.828016,25.6727802 C105.831394,25.493393 105.761621,25.320356 105.634753,25.1934877 C105.507885,25.0666193 105.334848,24.9968465 105.15546,25.000225 Z M109.672672,1.34465116 L114.15546,1.34465116 C114.334727,1.34802397 114.507656,1.27834399 114.634503,1.15162575 C114.76135,1.02490751 114.831206,0.852049692 114.828016,0.672780155 C114.831394,0.493393043 114.761621,0.320356007 114.634753,0.19348767 C114.507885,0.0666193319 114.334848,-0.00315352345 114.15546,0.000224966111 L109.672672,0.000224966111 C109.493284,-0.00315351646 109.320247,0.0666193419 109.193379,0.193487679 C109.066511,0.320356016 108.996738,0.493393047 109.000116,0.672780155 C109.000116,1.05387195 109.29158,1.34533534 109.672672,1.34533534 L109.672672,1.34465116 Z M114.15546,25.000225 L109.672672,25.000225 C109.493284,24.9968465 109.320247,25.0666193 109.193379,25.1934877 C109.066511,25.320356 108.996738,25.493393 109.000116,25.6727802 C109.000116,26.0538719 109.29158,26.3453353 109.672672,26.3453353 L114.15546,26.3453353 C114.334848,26.3487138 114.507885,26.278941 114.634753,26.1520726 C114.761621,26.0252043 114.831394,25.8521673 114.828016,25.6727802 C114.831394,25.493393 114.761621,25.320356 114.634753,25.1934877 C114.507885,25.0666193 114.334848,24.9968465 114.15546,25.000225 Z M123.15546,1.34465116 C123.334727,1.34802397 123.507656,1.27834399 123.634503,1.15162575 C123.76135,1.02490751 123.831206,0.852049692 123.828016,0.672780155 C123.831394,0.493393043 123.761621,0.320356007 123.634753,0.19348767 C123.507885,0.0666193319 123.334848,-0.00315352345 123.15546,0.000224966111 L118.672672,0.000224966111 C118.493284,-0.00315351646 118.320247,0.0666193419 118.193379,0.193487679 C118.066511,0.320356016 117.996738,0.493393047 118.000116,0.672780155 C118.000116,1.05387195 118.29158,1.34533534 118.672672,1.34533534 L123.15546,1.34465116 Z M132.15546,1.34465116 C132.334727,1.34802397 132.507656,1.27834399 132.634503,1.15162575 C132.76135,1.02490751 132.831206,0.852049692 132.828016,0.672780155 C132.831394,0.493393043 132.761621,0.320356007 132.634753,0.19348767 C132.507885,0.0666193319 132.334848,-0.00315352345 132.15546,0.000224966111 L127.672672,0.000224966111 C127.493284,-0.00315351646 127.320247,0.0666193419 127.193379,0.193487679 C127.066511,0.320356016 126.996738,0.493393047 127.000116,0.672780155 C127.000116,1.05387195 127.29158,1.34533534 127.672672,1.34533534 L132.15546,1.34465116 Z M123.15546,25.000225 L118.672672,25.000225 C118.493284,24.9968465 118.320247,25.0666193 118.193379,25.1934877 C118.066511,25.320356 117.996738,25.493393 118.000116,25.6727802 C118.000116,26.0538719 118.29158,26.3453353 118.672672,26.3453353 L123.15546,26.3453353 C123.334848,26.3487138 123.507885,26.278941 123.634753,26.1520726 C123.761621,26.0252043 123.831394,25.8521673 123.828016,25.6727802 C123.831394,25.493393 123.761621,25.320356 123.634753,25.1934877 C123.507885,25.0666193 123.334848,24.9968465 123.15546,25.000225 Z M91.7589467,1.34465116 L96.2417357,1.34465116 C96.4210019,1.34802397 96.5939307,1.27834399 96.720778,1.15162575 C96.8476253,1.02490751 96.9174812,0.852049692 96.9142909,0.672780155 C96.9176694,0.493393043 96.8478965,0.320356007 96.7210282,0.19348767 C96.5941598,0.0666193319 96.4211228,-0.00315352345 96.2417357,0.000224966111 L91.7589467,0.000224966111 C91.5795596,-0.00315351646 91.4065226,0.0666193419 91.2796543,0.193487679 C91.1527859,0.320356016 91.0830131,0.493393047 91.0863916,0.672780155 C91.0863916,1.05387195 91.377855,1.34533534 91.7589467,1.34533534 L91.7589467,1.34465116 Z M132.15546,25.000225 L127.672672,25.000225 C127.493284,24.9968465 127.320247,25.0666193 127.193379,25.1934877 C127.066511,25.320356 126.996738,25.493393 127.000116,25.6727802 C127.000116,26.0538719 127.29158,26.3453353 127.672672,26.3453353 L132.15546,26.3453353 C132.334848,26.3487138 132.507885,26.278941 132.634753,26.1520726 C132.761621,26.0252043 132.831394,25.8521673 132.828016,25.6727802 C132.831394,25.493393 132.761621,25.320356 132.634753,25.1934877 C132.507885,25.0666193 132.334848,24.9968465 132.15546,25.000225 Z M136.672672,1.34465116 L141.15546,1.34465116 C141.334727,1.34802397 141.507656,1.27834399 141.634503,1.15162575 C141.76135,1.02490751 141.831206,0.852049692 141.828016,0.672780155 C141.831394,0.493393043 141.761621,0.320356007 141.634753,0.19348767 C141.507885,0.0666193319 141.334848,-0.00315352345 141.15546,0.000224966111 L136.672672,0.000224966111 C136.493284,-0.00315351646 136.320247,0.0666193419 136.193379,0.193487679 C136.066511,0.320356016 135.996738,0.493393047 136.000116,0.672780155 C136.000116,1.05387195 136.29158,1.34533534 136.672672,1.34533534 L136.672672,1.34465116 Z M141.15546,25.000225 L136.672672,25.000225 C136.493284,24.9968465 136.320247,25.0666193 136.193379,25.1934877 C136.066511,25.320356 135.996738,25.493393 136.000116,25.6727802 C136.000116,26.0538719 136.29158,26.3453353 136.672672,26.3453353 L141.15546,26.3453353 C141.334848,26.3487138 141.507885,26.278941 141.634753,26.1520726 C141.761621,26.0252043 141.831394,25.8521673 141.828016,25.6727802 C141.831394,25.493393 141.761621,25.320356 141.634753,25.1934877 C141.507885,25.0666193 141.334848,24.9968465 141.15546,25.000225 Z M145.672672,1.34465116 L150.15546,1.34465116 C150.334727,1.34802397 150.507656,1.27834399 150.634503,1.15162575 C150.76135,1.02490751 150.831206,0.852049692 150.828016,0.672780155 C150.831394,0.493393043 150.761621,0.320356007 150.634753,0.19348767 C150.507885,0.0666193319 150.334848,-0.00315352345 150.15546,0.000224966111 L145.672672,0.000224966111 C145.493284,-0.00315351646 145.320247,0.0666193419 145.193379,0.193487679 C145.066511,0.320356016 144.996738,0.493393047 145.000116,0.672780155 C145.000116,1.05387195 145.29158,1.34533534 145.672672,1.34533534 L145.672672,1.34465116 Z M150.15546,25.000225 L145.672672,25.000225 C145.493284,24.9968465 145.320247,25.0666193 145.193379,25.1934877 C145.066511,25.320356 144.996738,25.493393 145.000116,25.6727802 C145.000116,26.0538719 145.29158,26.3453353 145.672672,26.3453353 L150.15546,26.3453353 C150.334848,26.3487138 150.507885,26.278941 150.634753,26.1520726 C150.761621,26.0252043 150.831394,25.8521673 150.828016,25.6727802 C150.831394,25.493393 150.761621,25.320356 150.634753,25.1934877 C150.507885,25.0666193 150.334848,24.9968465 150.15546,25.000225 Z M154.758947,1.34465116 L159.241736,1.34465116 C159.421002,1.34802397 159.593931,1.27834399 159.720778,1.15162575 C159.847625,1.02490751 159.917481,0.852049692 159.914291,0.672780155 C159.917669,0.493393043 159.847897,0.320356007 159.721028,0.19348767 C159.59416,0.0666193319 159.421123,-0.00315352345 159.241736,0.000224966111 L154.758947,0.000224966111 C154.57956,-0.00315351646 154.406523,0.0666193419 154.279654,0.193487679 C154.152786,0.320356016 154.083013,0.493393047 154.086392,0.672780155 C154.086392,1.05387195 154.377855,1.34533534 154.758947,1.34533534 L154.758947,1.34465116 Z M159.241736,24.6548802 L154.758947,24.6548802 C154.57956,24.6515017 154.406523,24.7212745 154.279654,24.8481429 C154.152786,24.9750112 154.083013,25.1480482 154.086392,25.3274354 C154.086392,25.7085271 154.377855,25.9999905 154.758947,25.9999905 L159.241736,25.9999905 C159.421123,26.003369 159.59416,25.9335962 159.721028,25.8067278 C159.847897,25.6798595 159.917669,25.5068225 159.914291,25.3274354 C159.917669,25.1480482 159.847897,24.9750112 159.721028,24.8481429 C159.59416,24.7212745 159.421123,24.6515017 159.241736,24.6548802 Z M163.758947,1.34465116 L168.241736,1.34465116 C168.421002,1.34802397 168.593931,1.27834399 168.720778,1.15162575 C168.847625,1.02490751 168.917481,0.852049692 168.914291,0.672780155 C168.917669,0.493393043 168.847897,0.320356007 168.721028,0.19348767 C168.59416,0.0666193319 168.421123,-0.00315352345 168.241736,0.000224966111 L163.758947,0.000224966111 C163.57956,-0.00315351646 163.406523,0.0666193419 163.279654,0.193487679 C163.152786,0.320356016 163.083013,0.493393047 163.086392,0.672780155 C163.086392,1.05387195 163.377855,1.34533534 163.758947,1.34533534 L163.758947,1.34465116 Z M168.241736,24.6548802 L163.758947,24.6548802 C163.57956,24.6515017 163.406523,24.7212745 163.279654,24.8481429 C163.152786,24.9750112 163.083013,25.1480482 163.086392,25.3274354 C163.086392,25.7085271 163.377855,25.9999905 163.758947,25.9999905 L168.241736,25.9999905 C168.421123,26.003369 168.59416,25.9335962 168.721028,25.8067278 C168.847897,25.6798595 168.917669,25.5068225 168.914291,25.3274354 C168.917669,25.1480482 168.847897,24.9750112 168.721028,24.8481429 C168.59416,24.7212745 168.421123,24.6515017 168.241736,24.6548802 Z M172.672672,1.34465116 L177.15546,1.34465116 C177.334727,1.34802397 177.507656,1.27834399 177.634503,1.15162575 C177.76135,1.02490751 177.831206,0.852049692 177.828016,0.672780155 C177.831394,0.493393043 177.761621,0.320356007 177.634753,0.19348767 C177.507885,0.0666193319 177.334848,-0.00315352345 177.15546,0.000224966111 L172.672672,0.000224966111 C172.493284,-0.00315351646 172.320247,0.0666193419 172.193379,0.193487679 C172.066511,0.320356016 171.996738,0.493393047 172.000116,0.672780155 C172.000116,1.05387195 172.29158,1.34533534 172.672672,1.34533534 L172.672672,1.34465116 Z M177.15546,25.000225 L172.672672,25.000225 C172.493284,24.9968465 172.320247,25.0666193 172.193379,25.1934877 C172.066511,25.320356 171.996738,25.493393 172.000116,25.6727802 C172.000116,26.0538719 172.29158,26.3453353 172.672672,26.3453353 L177.15546,26.3453353 C177.334848,26.3487138 177.507885,26.278941 177.634753,26.1520726 C177.761621,26.0252043 177.831394,25.8521673 177.828016,25.6727802 C177.831394,25.493393 177.761621,25.320356 177.634753,25.1934877 C177.507885,25.0666193 177.334848,24.9968465 177.15546,25.000225 Z M181.672672,1.34465116 L186.15546,1.34465116 C186.334727,1.34802397 186.507656,1.27834399 186.634503,1.15162575 C186.76135,1.02490751 186.831206,0.852049692 186.828016,0.672780155 C186.831394,0.493393043 186.761621,0.320356007 186.634753,0.19348767 C186.507885,0.0666193319 186.334848,-0.00315352345 186.15546,0.000224966111 L181.672672,0.000224966111 C181.493284,-0.00315351646 181.320247,0.0666193419 181.193379,0.193487679 C181.066511,0.320356016 180.996738,0.493393047 181.000116,0.672780155 C181.000116,1.05387195 181.29158,1.34533534 181.672672,1.34533534 L181.672672,1.34465116 Z M186.15546,25.000225 L181.672672,25.000225 C181.493284,24.9968465 181.320247,25.0666193 181.193379,25.1934877 C181.066511,25.320356 180.996738,25.493393 181.000116,25.6727802 C181.000116,26.0538719 181.29158,26.3453353 181.672672,26.3453353 L186.15546,26.3453353 C186.334848,26.3487138 186.507885,26.278941 186.634753,26.1520726 C186.761621,26.0252043 186.831394,25.8521673 186.828016,25.6727802 C186.831394,25.493393 186.761621,25.320356 186.634753,25.1934877 C186.507885,25.0666193 186.334848,24.9968465 186.15546,25.000225 Z M195.15546,1.34465116 C195.334727,1.34802397 195.507656,1.27834399 195.634503,1.15162575 C195.76135,1.02490751 195.831206,0.852049692 195.828016,0.672780155 C195.831394,0.493393043 195.761621,0.320356007 195.634753,0.19348767 C195.507885,0.0666193319 195.334848,-0.00315352345 195.15546,0.000224966111 L190.672672,0.000224966111 C190.493284,-0.00315351646 190.320247,0.0666193419 190.193379,0.193487679 C190.066511,0.320356016 189.996738,0.493393047 190.000116,0.672780155 C190.000116,1.05387195 190.29158,1.34533534 190.672672,1.34533534 L195.15546,1.34465116 Z M204.15546,1.34465116 C204.334727,1.34802397 204.507656,1.27834399 204.634503,1.15162575 C204.76135,1.02490751 204.831206,0.852049692 204.828016,0.672780155 C204.831394,0.493393043 204.761621,0.320356007 204.634753,0.19348767 C204.507885,0.0666193319 204.334848,-0.00315352345 204.15546,0.000224966111 L199.672672,0.000224966111 C199.493284,-0.00315351646 199.320247,0.0666193419 199.193379,0.193487679 C199.066511,0.320356016 198.996738,0.493393047 199.000116,0.672780155 C199.000116,1.05387195 199.29158,1.34533534 199.672672,1.34533534 L204.15546,1.34465116 Z M195.15546,25.000225 L190.672672,25.000225 C190.493284,24.9968465 190.320247,25.0666193 190.193379,25.1934877 C190.066511,25.320356 189.996738,25.493393 190.000116,25.6727802 C190.000116,26.0538719 190.29158,26.3453353 190.672672,26.3453353 L195.15546,26.3453353 C195.334848,26.3487138 195.507885,26.278941 195.634753,26.1520726 C195.761621,26.0252043 195.831394,25.8521673 195.828016,25.6727802 C195.831394,25.493393 195.761621,25.320356 195.634753,25.1934877 C195.507885,25.0666193 195.334848,24.9968465 195.15546,25.000225 Z M163.758947,1.34465116 L168.241736,1.34465116 C168.421002,1.34802397 168.593931,1.27834399 168.720778,1.15162575 C168.847625,1.02490751 168.917481,0.852049692 168.914291,0.672780155 C168.917669,0.493393043 168.847897,0.320356007 168.721028,0.19348767 C168.59416,0.0666193319 168.421123,-0.00315352345 168.241736,0.000224966111 L163.758947,0.000224966111 C163.57956,-0.00315351646 163.406523,0.0666193419 163.279654,0.193487679 C163.152786,0.320356016 163.083013,0.493393047 163.086392,0.672780155 C163.086392,1.05387195 163.377855,1.34533534 163.758947,1.34533534 L163.758947,1.34465116 Z M204.15546,25.000225 L199.672672,25.000225 C199.493284,24.9968465 199.320247,25.0666193 199.193379,25.1934877 C199.066511,25.320356 198.996738,25.493393 199.000116,25.6727802 C199.000116,26.0538719 199.29158,26.3453353 199.672672,26.3453353 L204.15546,26.3453353 C204.334848,26.3487138 204.507885,26.278941 204.634753,26.1520726 C204.761621,26.0252043 204.831394,25.8521673 204.828016,25.6727802 C204.831394,25.493393 204.761621,25.320356 204.634753,25.1934877 C204.507885,25.0666193 204.334848,24.9968465 204.15546,25.000225 Z M208.672672,1.34465116 L213.15546,1.34465116 C213.334727,1.34802397 213.507656,1.27834399 213.634503,1.15162575 C213.76135,1.02490751 213.831206,0.852049692 213.828016,0.672780155 C213.831394,0.493393043 213.761621,0.320356007 213.634753,0.19348767 C213.507885,0.0666193319 213.334848,-0.00315352345 213.15546,0.000224966111 L208.672672,0.000224966111 C208.493284,-0.00315351646 208.320247,0.0666193419 208.193379,0.193487679 C208.066511,0.320356016 207.996738,0.493393047 208.000116,0.672780155 C208.000116,1.05387195 208.29158,1.34533534 208.672672,1.34533534 L208.672672,1.34465116 Z M213.15546,25.000225 L208.672672,25.000225 C208.493284,24.9968465 208.320247,25.0666193 208.193379,25.1934877 C208.066511,25.320356 207.996738,25.493393 208.000116,25.6727802 C208.000116,26.0538719 208.29158,26.3453353 208.672672,26.3453353 L213.15546,26.3453353 C213.334848,26.3487138 213.507885,26.278941 213.634753,26.1520726 C213.761621,26.0252043 213.831394,25.8521673 213.828016,25.6727802 C213.831394,25.493393 213.761621,25.320356 213.634753,25.1934877 C213.507885,25.0666193 213.334848,24.9968465 213.15546,25.000225 Z M217.672672,1.34465116 L222.15546,1.34465116 C222.334727,1.34802397 222.507656,1.27834399 222.634503,1.15162575 C222.76135,1.02490751 222.831206,0.852049692 222.828016,0.672780155 C222.831394,0.493393043 222.761621,0.320356007 222.634753,0.19348767 C222.507885,0.0666193319 222.334848,-0.00315352345 222.15546,0.000224966111 L217.672672,0.000224966111 C217.493284,-0.00315351646 217.320247,0.0666193419 217.193379,0.193487679 C217.066511,0.320356016 216.996738,0.493393047 217.000116,0.672780155 C217.000116,1.05387195 217.29158,1.34533534 217.672672,1.34533534 L217.672672,1.34465116 Z M226.672672,1.34465116 L231.15546,1.34465116 C231.334727,1.34802397 231.507656,1.27834399 231.634503,1.15162575 C231.76135,1.02490751 231.831206,0.852049692 231.828016,0.672780155 C231.831394,0.493393043 231.761621,0.320356007 231.634753,0.19348767 C231.507885,0.0666193319 231.334848,-0.00315352345 231.15546,0.000224966111 L226.672672,0.000224966111 C226.493284,-0.00315351646 226.320247,0.0666193419 226.193379,0.193487679 C226.066511,0.320356016 225.996738,0.493393047 226.000116,0.672780155 C226.000116,1.05387195 226.29158,1.34533534 226.672672,1.34533534 L226.672672,1.34465116 Z M222.15546,25.000225 L217.672672,25.000225 C217.493284,24.9968465 217.320247,25.0666193 217.193379,25.1934877 C217.066511,25.320356 216.996738,25.493393 217.000116,25.6727802 C217.000116,26.0538719 217.29158,26.3453353 217.672672,26.3453353 L222.15546,26.3453353 C222.334848,26.3487138 222.507885,26.278941 222.634753,26.1520726 C222.761621,26.0252043 222.831394,25.8521673 222.828016,25.6727802 C222.831394,25.493393 222.761621,25.320356 222.634753,25.1934877 C222.507885,25.0666193 222.334848,24.9968465 222.15546,25.000225 Z M231.15546,25.000225 L226.672672,25.000225 C226.493284,24.9968465 226.320247,25.0666193 226.193379,25.1934877 C226.066511,25.320356 225.996738,25.493393 226.000116,25.6727802 C226.000116,26.0538719 226.29158,26.3453353 226.672672,26.3453353 L231.15546,26.3453353 C231.334848,26.3487138 231.507885,26.278941 231.634753,26.1520726 C231.761621,26.0252043 231.831394,25.8521673 231.828016,25.6727802 C231.831394,25.493393 231.761621,25.320356 231.634753,25.1934877 C231.507885,25.0666193 231.334848,24.9968465 231.15546,25.000225 Z M235.672672,1.34465116 L240.15546,1.34465116 C240.334727,1.34802397 240.507656,1.27834399 240.634503,1.15162575 C240.76135,1.02490751 240.831206,0.852049692 240.828016,0.672780155 C240.831394,0.493393043 240.761621,0.320356007 240.634753,0.19348767 C240.507885,0.0666193319 240.334848,-0.00315352345 240.15546,0.000224966111 L235.672672,0.000224966111 C235.493284,-0.00315351646 235.320247,0.0666193419 235.193379,0.193487679 C235.066511,0.320356016 234.996738,0.493393047 235.000116,0.672780155 C235.000116,1.05387195 235.29158,1.34533534 235.672672,1.34533534 L235.672672,1.34465116 Z M240.15546,25.000225 L235.672672,25.000225 C235.493284,24.9968465 235.320247,25.0666193 235.193379,25.1934877 C235.066511,25.320356 234.996738,25.493393 235.000116,25.6727802 C235.000116,26.0538719 235.29158,26.3453353 235.672672,26.3453353 L240.15546,26.3453353 C240.334848,26.3487138 240.507885,26.278941 240.634753,26.1520726 C240.761621,26.0252043 240.831394,25.8521673 240.828016,25.6727802 C240.831394,25.493393 240.761621,25.320356 240.634753,25.1934877 C240.507885,25.0666193 240.334848,24.9968465 240.15546,25.000225 Z M244.672672,1.34465116 L249.15546,1.34465116 C249.334727,1.34802397 249.507656,1.27834399 249.634503,1.15162575 C249.76135,1.02490751 249.831206,0.852049692 249.828016,0.672780155 C249.831394,0.493393043 249.761621,0.320356007 249.634753,0.19348767 C249.507885,0.0666193319 249.334848,-0.00315352345 249.15546,0.000224966111 L244.672672,0.000224966111 C244.493284,-0.00315351646 244.320247,0.0666193419 244.193379,0.193487679 C244.066511,0.320356016 243.996738,0.493393047 244.000116,0.672780155 C244.000116,1.05387195 244.29158,1.34533534 244.672672,1.34533534 L244.672672,1.34465116 Z M253.672672,1.34465116 L258.15546,1.34465116 C258.334727,1.34802397 258.507656,1.27834399 258.634503,1.15162575 C258.76135,1.02490751 258.831206,0.852049692 258.828016,0.672780155 C258.831394,0.493393043 258.761621,0.320356007 258.634753,0.19348767 C258.507885,0.0666193319 258.334848,-0.00315352345 258.15546,0.000224966111 L253.672672,0.000224966111 C253.493284,-0.00315351646 253.320247,0.0666193419 253.193379,0.193487679 C253.066511,0.320356016 252.996738,0.493393047 253.000116,0.672780155 C253.000116,1.05387195 253.29158,1.34533534 253.672672,1.34533534 L253.672672,1.34465116 Z M249.15546,25.000225 L244.672672,25.000225 C244.493284,24.9968465 244.320247,25.0666193 244.193379,25.1934877 C244.066511,25.320356 243.996738,25.493393 244.000116,25.6727802 C244.000116,26.0538719 244.29158,26.3453353 244.672672,26.3453353 L249.15546,26.3453353 C249.334848,26.3487138 249.507885,26.278941 249.634753,26.1520726 C249.761621,26.0252043 249.831394,25.8521673 249.828016,25.6727802 C249.831394,25.493393 249.761621,25.320356 249.634753,25.1934877 C249.507885,25.0666193 249.334848,24.9968465 249.15546,25.000225 Z M258.15546,25.000225 L253.672672,25.000225 C253.493284,24.9968465 253.320247,25.0666193 253.193379,25.1934877 C253.066511,25.320356 252.996738,25.493393 253.000116,25.6727802 C253.000116,26.0538719 253.29158,26.3453353 253.672672,26.3453353 L258.15546,26.3453353 C258.334848,26.3487138 258.507885,26.278941 258.634753,26.1520726 C258.761621,26.0252043 258.831394,25.8521673 258.828016,25.6727802 C258.831394,25.493393 258.761621,25.320356 258.634753,25.1934877 C258.507885,25.0666193 258.334848,24.9968465 258.15546,25.000225 Z M263.672672,1.34465116 L268.15546,1.34465116 C268.334727,1.34802397 268.507656,1.27834399 268.634503,1.15162575 C268.76135,1.02490751 268.831206,0.852049692 268.828016,0.672780155 C268.831394,0.493393043 268.761621,0.320356007 268.634753,0.19348767 C268.507885,0.0666193319 268.334848,-0.00315352345 268.15546,0.000224966111 L263.672672,0.000224966111 C263.493284,-0.00315351646 263.320247,0.0666193419 263.193379,0.193487679 C263.066511,0.320356016 262.996738,0.493393047 263.000116,0.672780155 C263.000116,1.05387195 263.29158,1.34533534 263.672672,1.34533534 L263.672672,1.34465116 Z M281.672672,1.34465116 L286.15546,1.34465116 C286.334727,1.34802397 286.507656,1.27834399 286.634503,1.15162575 C286.76135,1.02490751 286.831206,0.852049692 286.828016,0.672780155 C286.831394,0.493393043 286.761621,0.320356007 286.634753,0.19348767 C286.507885,0.0666193319 286.334848,-0.00315352345 286.15546,0.000224966111 L281.672672,0.000224966111 C281.493284,-0.00315351646 281.320247,0.0666193419 281.193379,0.193487679 C281.066511,0.320356016 280.996738,0.493393047 281.000116,0.672780155 C281.000116,1.05387195 281.29158,1.34533534 281.672672,1.34533534 L281.672672,1.34465116 Z M268.15546,25.000225 L263.672672,25.000225 C263.493284,24.9968465 263.320247,25.0666193 263.193379,25.1934877 C263.066511,25.320356 262.996738,25.493393 263.000116,25.6727802 C263.000116,26.0538719 263.29158,26.3453353 263.672672,26.3453353 L268.15546,26.3453353 C268.334848,26.3487138 268.507885,26.278941 268.634753,26.1520726 C268.761621,26.0252043 268.831394,25.8521673 268.828016,25.6727802 C268.831394,25.493393 268.761621,25.320356 268.634753,25.1934877 C268.507885,25.0666193 268.334848,24.9968465 268.15546,25.000225 Z M272.672672,1.34465116 L277.15546,1.34465116 C277.334727,1.34802397 277.507656,1.27834399 277.634503,1.15162575 C277.76135,1.02490751 277.831206,0.852049692 277.828016,0.672780155 C277.831394,0.493393043 277.761621,0.320356007 277.634753,0.19348767 C277.507885,0.0666193319 277.334848,-0.00315352345 277.15546,0.000224966111 L272.672672,0.000224966111 C272.493284,-0.00315351646 272.320247,0.0666193419 272.193379,0.193487679 C272.066511,0.320356016 271.996738,0.493393047 272.000116,0.672780155 C272.000116,1.05387195 272.29158,1.34533534 272.672672,1.34533534 L272.672672,1.34465116 Z M277.15546,25.000225 L272.672672,25.000225 C272.493284,24.9968465 272.320247,25.0666193 272.193379,25.1934877 C272.066511,25.320356 271.996738,25.493393 272.000116,25.6727802 C272.000116,26.0538719 272.29158,26.3453353 272.672672,26.3453353 L277.15546,26.3453353 C277.334848,26.3487138 277.507885,26.278941 277.634753,26.1520726 C277.761621,26.0252043 277.831394,25.8521673 277.828016,25.6727802 C277.831394,25.493393 277.761621,25.320356 277.634753,25.1934877 C277.507885,25.0666193 277.334848,24.9968465 277.15546,25.000225 Z M287.15546,25.000225 L282.672672,25.000225 C282.493284,24.9968465 282.320247,25.0666193 282.193379,25.1934877 C282.066511,25.320356 281.996738,25.493393 282.000116,25.6727802 C282.000116,26.0538719 282.29158,26.3453353 282.672672,26.3453353 L287.15546,26.3453353 C287.334848,26.3487138 287.507885,26.278941 287.634753,26.1520726 C287.761621,26.0252043 287.831394,25.8521673 287.828016,25.6727802 C287.831394,25.493393 287.761621,25.320356 287.634753,25.1934877 C287.507885,25.0666193 287.334848,24.9968465 287.15546,25.000225 Z M299.275474,19.0002252 C299.095965,18.9968408 298.92282,19.0667066 298.795931,19.1937251 C298.669041,19.3207436 298.599351,19.49396 298.602918,19.6734646 L298.602918,22.8111432 C298.602918,23.7970557 297.796263,24.6037114 296.81035,24.6037114 L293.672672,24.6037114 C293.493284,24.6003329 293.320247,24.6701058 293.193379,24.7969741 C293.066511,24.9238425 292.996738,25.0968795 293.000116,25.2762666 C293.000116,25.6573584 293.29158,25.9488218 293.672672,25.9488218 L296.81035,25.9488218 C298.541325,25.9435605 299.943145,24.541435 299.948029,22.810459 L299.948029,19.6720962 C299.951219,19.4928267 299.881363,19.3199689 299.754516,19.1932506 C299.627669,19.0665324 299.45474,18.9968524 299.275474,19.0002252 Z M299.672672,10.000225 C299.493284,9.99684648 299.320247,10.0666193 299.193379,10.1934877 C299.066511,10.320356 298.996738,10.493393 299.000116,10.6727801 L299.000116,15.1555691 C299.000116,15.5366609 299.29158,15.8281243 299.672672,15.8281243 C299.852059,15.8315028 300.025096,15.7617299 300.151964,15.6348616 C300.278832,15.5079933 300.348605,15.3349562 300.345227,15.1555691 L300.345227,10.6727801 C300.348605,10.493393 300.278832,10.320356 300.151964,10.1934877 C300.025096,10.0666193 299.852059,9.99684648 299.672672,10.000225 Z M296.81035,0.000224965632 L293.672672,0.000224965632 C293.493284,-0.00315351694 293.320247,0.0666193415 293.193379,0.193487678 C293.066511,0.320356015 292.996738,0.493393047 293.000116,0.672780154 C293.000116,1.05387195 293.29158,1.34533534 293.672672,1.34533534 L296.81035,1.34533534 C297.796263,1.34533534 298.602918,2.15199104 298.602918,3.13790359 L298.602918,6.27558219 C298.602918,6.65667398 298.894382,6.94813738 299.275474,6.94813738 C299.454861,6.95151586 299.627898,6.881743 299.754766,6.75487466 C299.881634,6.62800633 299.951407,6.4549693 299.948029,6.27558219 L299.948029,3.13790359 C299.942769,1.40719474 298.541059,0.00548438077 296.81035,0.000224965632 Z"></path>
        </g>
    </g>
</svg>