<?xml version="1.0" encoding="UTF-8"?>
<svg width="35px" height="35px" viewBox="0 0 35 35" version="1.1" xmlns="http://www.w3.org/2000/svg" xmlns:xlink="http://www.w3.org/1999/xlink">
    <!-- Generator: Sketch 52.2 (67145) - http://www.bohemiancoding.com/sketch -->
    <title>8.Controls</title>
    <desc>Created with Sketch.</desc>
    <g id="8.Controls" stroke="none" stroke-width="1" fill="none" fill-rule="evenodd">
        <rect fill="#FFFFFF" x="0" y="0" width="35" height="35"></rect>
        <g id="加载" transform="translate(1.000000, 1.000000)">
            <path d="M13.4815817,7.98730489 L10.5455775,2.89823101 C10.1163371,2.15306972 9.18917794,1.79937565 8.4062435,2.1496358 C7.50655567,2.55483871 7.17003122,3.6433923 7.65078044,4.47783559 L10.6279917,9.63215401 C11.0778356,10.4150884 12.0771072,10.6795005 12.8600416,10.2262227 C12.8703434,10.2193548 12.8806452,10.2159209 12.887513,10.2090531 C13.6670135,9.766077 13.9314256,8.76680541 13.4815817,7.98730489 Z" id="Path" fill="#CCCCCC"></path>
            <path d="M25.3011446,28.4603538 L22.3651405,23.3712799 C21.9152966,22.5883455 20.916025,22.3239334 20.1330905,22.7772112 C20.1227888,22.7840791 20.112487,22.787513 20.1056191,22.7943809 C19.3261186,23.2442248 19.0617066,24.2400624 19.5115505,25.019563 L22.4887617,30.1738814 C22.9695109,31.0083247 24.082102,31.262435 24.882206,30.6855359 C25.5758585,30.1841831 25.730385,29.2055151 25.3011446,28.4603538 Z" id="Path" fill="#9E9E9E"></path>
            <path d="M9.62872008,10.6348595 L4.5396462,7.69885536 C3.79448491,7.26961498 2.81581686,7.42414152 2.31103018,8.12122789 C1.73413111,8.92133195 1.98824142,10.033923 2.8226847,10.5146722 L7.97700312,13.4918835 C8.75650364,13.9417274 9.75234131,13.6773153 10.2021852,12.8978148 C10.2090531,12.887513 10.212487,12.8772112 10.2193548,12.8703434 C10.6760666,12.0874089 10.4082206,11.0881374 9.62872008,10.6348595 Z" id="Path" fill="#C9C9C9"></path>
            <path d="M30.0983351,22.4544225 L25.0092612,19.5184183 C24.2297607,19.0685744 23.233923,19.3329865 22.7840791,20.112487 C22.7772112,20.1227888 22.7737773,20.1330905 22.7669095,20.1399584 C22.3136316,20.9194589 22.5780437,21.9187305 23.3609781,22.3720083 L28.5152966,25.3492196 C29.3497399,25.8299688 30.4382934,25.4934443 30.8434964,24.5937565 C31.2006243,23.8108221 30.8434964,22.8836629 30.0983351,22.4544225 Z" id="Path" fill="#969696"></path>
            <path d="M9.24412071,16.5034339 L9.24412071,16.4862643 C9.24755463,15.5900104 8.54703434,14.8551509 7.65078044,14.8551509 L1.73756504,14.8551509 C0.879084287,14.8551509 0.106451613,15.4801249 0.020603538,16.3351717 C-0.0789802289,17.3172737 0.697086368,18.151717 1.66201873,18.151717 L7.65078044,18.151717 C8.54703434,18.151717 9.24755463,17.4168574 9.24412071,16.5206035 L9.24412071,16.5034339 Z" id="Path" fill="#BCBCBC"></path>
            <path d="M31.2521332,14.8551509 L25.3389178,14.8551509 C24.4426639,14.8551509 23.7421436,15.5900104 23.7455775,16.4862643 L23.7455775,16.5206035 C23.7421436,17.4168574 24.4426639,18.151717 25.3389178,18.151717 L31.3276795,18.151717 C32.2891779,18.151717 33.0652445,17.3172737 32.9690947,16.3351717 C32.8832466,15.4801249 32.1106139,14.8551509 31.2521332,14.8551509 Z" id="Path" fill="#8E8E8E"></path>
            <path d="M7.98043704,19.5184183 L2.89136316,22.4544225 C2.14620187,22.8836629 1.7925078,23.8108221 2.14276795,24.5937565 C2.54797086,25.4934443 3.63652445,25.8299688 4.47096774,25.3492196 L9.62528616,22.3720083 C10.4082206,21.9221644 10.6726327,20.9228928 10.2193548,20.1399584 C10.212487,20.1296566 10.2090531,20.1193548 10.2021852,20.112487 C9.75577523,19.3329865 8.75993757,19.0685744 7.98043704,19.5184183 Z" id="Path" fill="#B5B5B5"></path>
            <path d="M30.6786681,8.12122789 C30.1773153,7.42414152 29.1952133,7.26961498 28.450052,7.69885536 L23.3609781,10.6348595 C22.5780437,11.0847034 22.3136316,12.083975 22.7669095,12.8669095 C22.7737773,12.8772112 22.7772112,12.887513 22.7840791,12.8943809 C23.233923,13.6738814 24.2297607,13.9382934 25.0092612,13.4884495 L30.1635796,10.5112383 C31.0014568,10.033923 31.2555671,8.92133195 30.6786681,8.12122789 Z" id="Path" fill="#878787"></path>
            <path d="M10.6279917,23.3712799 L7.69198751,28.4603538 C7.26274714,29.2055151 7.41727367,30.1841831 8.11436004,30.6855359 C8.9144641,31.262435 10.0270552,31.0083247 10.5078044,30.1738814 L13.4850156,25.019563 C13.9348595,24.2400624 13.6704475,23.2442248 12.8909469,22.7943809 C12.8806452,22.787513 12.8703434,22.7840791 12.8634755,22.7772112 C12.0771072,22.3239334 11.0778356,22.5883455 10.6279917,23.3712799 Z" id="Path" fill="#ADADAD"></path>
            <path d="M24.5868887,2.15306972 C23.8039542,1.79937565 22.876795,2.15650364 22.4475546,2.90166493 L19.5115505,7.99073881 C19.0617066,8.77023933 19.3261186,9.766077 20.1056191,10.2159209 C20.1159209,10.2227888 20.1262227,10.2262227 20.1330905,10.2330905 C20.9125911,10.6863684 21.9118626,10.4219563 22.3651405,9.63902185 L25.3423517,4.48470343 C25.819667,3.64682622 25.4865765,2.55827263 24.5868887,2.15306972 Z" id="Path" fill="#7F7F7F"></path>
            <path d="M16.4965661,9.25098855 L16.5137357,9.25098855 C17.4099896,9.25442248 18.1448491,8.55390219 18.1448491,7.65764828 L18.1448491,1.66888658 C18.1448491,0.762330905 17.4031217,0.020603538 16.4965661,0.020603538 C15.5900104,0.020603538 14.848283,0.762330905 14.848283,1.66888658 L14.848283,7.65764828 C14.848283,8.55390219 15.5831426,9.25442248 16.4793965,9.25098855 L16.4965661,9.25098855 Z" id="Path" fill="#777777"></path>
            <path d="M16.4965661,23.7558793 L16.4793965,23.7558793 C15.5831426,23.7524454 14.848283,24.4529657 14.848283,25.3492196 L14.848283,31.3379813 C14.848283,32.2445369 15.5900104,32.9862643 16.4965661,32.9862643 C17.4031217,32.9862643 18.1448491,32.2445369 18.1448491,31.3379813 L18.1448491,25.3492196 C18.1448491,24.4529657 17.4099896,23.7524454 16.5137357,23.7558793 L16.4965661,23.7558793 Z" id="Path" fill="#A5A5A5"></path>
        </g>
    </g>
</svg>