<?xml version="1.0" encoding="UTF-8"?>
<svg width="16px" height="16px" viewBox="0 0 16 16" version="1.1" xmlns="http://www.w3.org/2000/svg" xmlns:xlink="http://www.w3.org/1999/xlink">
    <!-- Generator: Sketch 50.2 (55047) - http://www.bohemiancoding.com/sketch -->
    <title>4.icon_add</title>
    <desc>Created with Sketch.</desc>
    <defs></defs>
    <g id="4.icon_add" stroke="none" stroke-width="1" fill="none" fill-rule="evenodd">
        <g transform="translate(1.000000, 0.000000)" fill-rule="nonzero" id="Shape">
            <path d="M8.08931419,12.4721892 C8.22465109,11.5123013 8.75503588,10.6550438 9.54944765,10.1121848 C10.3438594,9.56932583 11.3282158,9.3914894 12.2593514,9.62260645 C12.404084,9.65712212 12.5527521,9.58333239 12.6142945,9.44643441 C13.0489497,8.48052188 13.2483231,7.42331547 13.1957044,6.36342366 C13.1063754,4.48679214 12.2378327,2.73549395 10.8039697,1.5408156 C9.37010659,0.346137252 7.50417224,-0.180899571 5.66568421,0.0894967742 C6.26746276,1.80536964 5.92213006,3.71538715 4.75889569,5.10489776 C3.59566132,6.49440836 1.78983354,7.15400226 0.0170802764,6.83688602 C0.0681527216,9.17602332 1.32973273,11.3163304 3.34004466,12.4743914 C3.59747302,12.6239642 3.71711094,12.9346851 3.62748325,13.2209204 C3.22027858,13.7692559 3.01123232,14.7382022 2.91977459,15.2689204 C2.90433634,15.3619315 2.93034634,15.4570867 2.99083092,15.5288735 C3.0513155,15.6006603 3.14008683,15.6417347 3.23334397,15.6410839 L8.55966826,15.627871 C8.68262771,15.6264183 8.7937332,15.5533871 8.84496833,15.4403392 C8.89620346,15.3272914 8.87837989,15.1945006 8.79920043,15.0993548 C8.21405631,14.3603061 7.95713055,13.4094685 8.08931419,12.4721892 Z M4.56601382,7.76895875 C4.55398746,7.58928385 4.64195234,7.41780109 4.79412538,7.32426763 C4.94629842,7.23073417 5.13732518,7.23073417 5.28949822,7.32426763 C5.44167126,7.41780109 5.52963614,7.58928385 5.51760978,7.76895875 C5.51792674,8.1773415 5.74172267,8.55200299 6.09901967,8.74230929 C6.01472626,8.56015146 5.96945966,8.36203172 5.9661882,8.16094154 C5.96603999,8.36123797 6.00758881,8.55932243 6.08813184,8.74230929 C6.42721002,8.93405789 6.84162771,8.92856931 7.17562415,8.72790644 C7.50962059,8.52724356 7.71258805,8.1618112 7.7082403,7.76895875 C7.69621394,7.58928385 7.78417882,7.41780109 7.93635186,7.32426763 C8.0885249,7.23073417 8.27955166,7.23073417 8.4317247,7.32426763 C8.58389774,7.41780109 8.67186262,7.58928385 8.65983626,7.76895875 C8.65903354,8.52331041 8.25167026,9.21723093 7.59718448,9.57912649 C8.29783703,9.4813394 8.82001165,8.87621988 8.82097608,8.16094154 C8.82001165,8.87621988 8.29783703,9.4813394 7.59718448,9.57912649 C6.96483411,9.93028048 6.19612569,9.91764123 5.57539765,9.54588388 C4.95466961,9.17412652 4.57420112,8.49851756 4.57472408,7.76895875 L4.56601382,7.76895875 Z" fill="#FFBA00"></path>
            <path d="M11.6126146,10.0894624 C10.000447,10.0894642 8.69330362,11.4107111 8.69250334,13.0410803 C8.69170306,14.6714496 9.9975487,15.9940082 11.6097155,15.9956286 C13.2218822,15.9972491 14.530325,14.6773182 14.5327294,13.0469505 C14.5338856,12.2629812 14.226742,11.5107208 13.6789889,10.9559572 C13.1312357,10.4011936 12.3878323,10.0894615 11.6126146,10.0894624 Z M12.7950324,13.4653591 L12.0307071,13.4653591 L12.0307071,14.238314 C12.0307071,14.4718271 11.8435207,14.6611268 11.6126146,14.6611268 C11.3817085,14.6611268 11.1945221,14.4718271 11.1945221,14.238314 L11.1945221,13.4697634 L10.4301967,13.4697634 C10.1992906,13.4697634 10.0121042,13.2804637 10.0121042,13.0469505 C10.0121042,12.8134374 10.1992906,12.6241376 10.4301967,12.6241376 L11.1923445,12.6241376 L11.1923445,11.8511828 C11.1923445,11.6176697 11.3795309,11.4283699 11.610437,11.4283699 C11.8413431,11.4283699 12.0285295,11.6176697 12.0285295,11.8511828 L12.0285295,12.6241376 L12.7928549,12.6241376 C13.023761,12.6241376 13.2109474,12.8134374 13.2109474,13.0469505 C13.2109474,13.2804637 13.023761,13.4697634 12.7928549,13.4697634 L12.7950324,13.4653591 Z" fill="#FFBA00"></path>
            <path d="M10.4301967,12.9554261 C10.3753609,12.9570139 10.3311835,13.0177579 10.3300287,13.0931571 C10.3300287,13.1296856 10.3405821,13.164718 10.3593672,13.1905476 C10.3781524,13.2163772 10.4036305,13.2308881 10.4301967,13.2308881 L11.1923445,13.2308881 L11.1923445,12.9554261 L10.4301967,12.9554261 Z M12.7928549,13.2219056 C12.8487774,13.2219056 12.8941116,13.1595711 12.8941116,13.0826775 C12.8941116,13.005784 12.8487774,12.9434495 12.7928549,12.9434495 L12.0307071,12.9434495 L12.0307071,13.2219056 L12.7928549,13.2219056 Z" fill="#FFFFFF"></path>
            <path d="M12.7928549,12.6241376 L12.0307071,12.6241376 L12.0307071,12.7848946 L12.9343966,12.7848946 C13.0012565,12.7860708 13.0551772,12.8406002 13.0563402,12.9082151 L13.0563402,13.1834839 C13.0551772,13.2510987 13.0012565,13.3056281 12.9343966,13.3068043 L12.0307071,13.3068043 L12.0307071,13.4675613 L12.7950324,13.4675613 C13.0259385,13.4675613 13.2131249,13.2782615 13.2131249,13.0447484 C13.2131249,12.8112353 13.0259385,12.6219355 12.7950324,12.6219355 L12.7928549,12.6241376 Z M10.2930101,13.3090065 C10.2261502,13.3078303 10.1722295,13.2533008 10.1710665,13.185686 L10.1710665,12.9082151 C10.1722295,12.8406002 10.2261502,12.7860708 10.2930101,12.7848946 L11.1923445,12.7848946 L11.1923445,12.6241376 L10.4301967,12.6241376 C10.2808266,12.6241376 10.142803,12.7047253 10.0681179,12.8355441 C9.9934329,12.9663628 9.9934329,13.1275382 10.0681179,13.258357 C10.142803,13.3891758 10.2808266,13.4697635 10.4301967,13.4697634 L11.1923445,13.4697634 L11.1923445,13.3090065 L10.2930101,13.3090065 Z" fill="#FFFFFF"></path>
            <path d="M12.7928549,12.9522581 C12.8487774,12.9522581 12.8941116,12.9981041 12.8941116,13.0546581 C12.8941116,13.111212 12.8487774,13.1570581 12.7928549,13.1570581 L12.0307071,13.1570581 L12.0307071,13.3178151 L12.9343966,13.3178151 C13.0012565,13.3166389 13.0551772,13.2621094 13.0563402,13.1944946 L13.0563402,12.9082151 C13.0551772,12.8406002 13.0012565,12.7860708 12.9343966,12.7848946 L12.0307071,12.7848946 L12.0307071,12.9522581 L12.7928549,12.9522581 Z M10.4301967,13.1482495 C10.4036305,13.1482495 10.3781524,13.1375769 10.3593672,13.1185797 C10.3405821,13.0995825 10.3300287,13.0738167 10.3300287,13.0469505 C10.3344853,12.9940892 10.3777441,12.9531951 10.4301967,12.9522581 L11.1923445,12.9522581 L11.1923445,12.7915011 L10.2930101,12.7915011 C10.2261502,12.7926773 10.1722295,12.8472067 10.1710665,12.9148215 L10.1710665,13.1900903 C10.1722295,13.2577051 10.2261502,13.3122346 10.2930101,13.3134108 L11.1923445,13.3134108 L11.1923445,13.1526538 L10.4301967,13.1482495 Z M11.5124466,14.2427183 C11.5124466,14.2986641 11.5572933,14.3440172 11.6126146,14.3440172 C11.6674504,14.3428493 11.7116277,14.2981732 11.7127826,14.2427183 L11.7127826,13.4697634 L11.510269,13.4697634 L11.5124466,14.2427183 Z M11.7127826,11.8511828 C11.7127826,11.7946288 11.6674484,11.7487828 11.6115258,11.7487828 C11.5556032,11.7487828 11.510269,11.7946288 11.510269,11.8511828 L11.510269,12.6241376 L11.7127826,12.6241376 L11.7127826,11.8511828 Z M11.5124466,12.9456516 L11.7149601,12.9456516 L11.7149601,13.1504516 L11.5124466,13.1504516 L11.5124466,12.9456516 Z M11.5124466,12.6241376 L11.7149601,12.6241376 L11.7149601,12.7848946 L11.5124466,12.7848946 L11.5124466,12.6241376 Z" fill="#FFFFFF"></path>
            <path d="M11.5124466,13.3090065 L11.7149601,13.3090065 L11.7149601,13.4697634 L11.5124466,13.4697634 L11.5124466,13.3090065 Z M11.5124466,12.7848946 L11.7149601,12.7848946 L11.7149601,12.9456516 L11.5124466,12.9456516 L11.5124466,12.7848946 Z M11.5124466,13.1482495 L11.7149601,13.1482495 L11.7149601,13.3090065 L11.5124466,13.3090065 L11.5124466,13.1482495 Z M11.3534843,11.7146495 C11.3546474,11.6470346 11.408568,11.5925052 11.475428,11.591329 L11.7476236,11.591329 C11.8144835,11.5925052 11.8684042,11.6470346 11.8695673,11.7146495 L11.8695673,12.6241376 L12.0285295,12.6241376 L12.0285295,11.8511828 C12.0285295,11.7001263 11.9488415,11.5605443 11.8194833,11.4850161 C11.690125,11.4094878 11.530749,11.4094878 11.4013907,11.4850161 C11.2720325,11.5605443 11.1923445,11.7001263 11.1923445,11.8511828 L11.1923445,12.6241376 L11.3513068,12.6241376 L11.3534843,11.7146495 Z M11.8717448,14.3792516 C11.8705818,14.4468664 11.8166611,14.5013959 11.7498012,14.502572 L11.475428,14.502572 C11.408568,14.5013959 11.3546474,14.4468664 11.3534843,14.3792516 L11.3534843,13.4697634 L11.1923445,13.4697634 L11.1923445,14.2427183 C11.1923445,14.4762314 11.3795309,14.6655312 11.610437,14.6655312 C11.8413431,14.6655312 12.0285295,14.4762314 12.0285295,14.2427183 L12.0285295,13.4697634 L11.8695673,13.4697634 L11.8717448,14.3792516 Z M11.8717448,12.9456516 L12.0307071,12.9456516 L12.0307071,13.1504516 L11.8717448,13.1504516 L11.8717448,12.9456516 Z M11.1945221,12.9456516 L11.3534843,12.9456516 L11.3534843,13.1504516 L11.1945221,13.1504516 L11.1945221,12.9456516 Z M11.1945221,12.6241376 L11.3534843,12.6241376 L11.3534843,12.7848946 L11.1945221,12.7848946 L11.1945221,12.6241376 Z M11.8717448,13.3090065 L12.0307071,13.3090065 L12.0307071,13.4697634 L11.8717448,13.4697634 L11.8717448,13.3090065 Z M11.1945221,13.3090065 L11.3534843,13.3090065 L11.3534843,13.4697634 L11.1945221,13.4697634 L11.1945221,13.3090065 Z M11.8717448,12.6241376 L12.0307071,12.6241376 L12.0307071,12.7848946 L11.8717448,12.7848946 L11.8717448,12.6241376 Z" fill="#FFFFFF"></path>
            <path d="M11.8717448,13.1482495 L12.0307071,13.1482495 L12.0307071,13.3090065 L11.8717448,13.3090065 L11.8717448,13.1482495 Z M11.8717448,12.7848946 L12.0307071,12.7848946 L12.0307071,12.9456516 L11.8717448,12.9456516 L11.8717448,12.7848946 Z M11.1945221,13.1482495 L11.3534843,13.1482495 L11.3534843,13.3090065 L11.1945221,13.3090065 L11.1945221,13.1482495 Z M11.1945221,12.7848946 L11.3534843,12.7848946 L11.3534843,12.9456516 L11.1945221,12.9456516 L11.1945221,12.7848946 Z M11.5124466,11.8511828 C11.5124466,11.7946288 11.5577808,11.7487828 11.6137033,11.7487828 C11.6696259,11.7487828 11.7149601,11.7946288 11.7149601,11.8511828 L11.7149601,12.6241376 L11.8739224,12.6241376 L11.8739224,11.7146495 C11.8727593,11.6470346 11.8188387,11.5925052 11.7519787,11.591329 L11.475428,11.591329 C11.408568,11.5925052 11.3546474,11.6470346 11.3534843,11.7146495 L11.3534843,12.6241376 L11.5124466,12.6241376 L11.5124466,11.8511828 Z M11.7127826,14.2427183 C11.7116277,14.2981732 11.6674504,14.3428493 11.6126146,14.3440172 C11.5860484,14.3440172 11.5605702,14.3333447 11.5417851,14.3143474 C11.523,14.2953502 11.5124466,14.2695844 11.5124466,14.2427183 L11.5124466,13.4697634 L11.3534843,13.4697634 L11.3534843,14.3792516 C11.3546474,14.4468664 11.408568,14.5013959 11.475428,14.502572 L11.7476236,14.502572 C11.8144835,14.5013959 11.8684042,14.4468664 11.8695673,14.3792516 L11.8695673,13.4697634 L11.710605,13.4697634 L11.7127826,14.2427183 Z" fill="#FFFFFF"></path>
            <path d="M11.3534843,12.9456516 L11.5124466,12.9456516 L11.5124466,13.1504516 L11.3534843,13.1504516 L11.3534843,12.9456516 Z M11.7127826,12.9456516 L11.8717448,12.9456516 L11.8717448,13.1504516 L11.7127826,13.1504516 L11.7127826,12.9456516 Z M11.3534843,13.3090065 L11.5124466,13.3090065 L11.5124466,13.4697634 L11.3534843,13.4697634 L11.3534843,13.3090065 Z M11.7127826,12.6241376 L11.8717448,12.6241376 L11.8717448,12.7848946 L11.7127826,12.7848946 L11.7127826,12.6241376 Z M11.7127826,13.3090065 L11.8717448,13.3090065 L11.8717448,13.4697634 L11.7127826,13.4697634 L11.7127826,13.3090065 Z M11.3534843,12.6241376 L11.5124466,12.6241376 L11.5124466,12.7848946 L11.3534843,12.7848946 L11.3534843,12.6241376 Z" fill="#FFFFFF"></path>
            <path d="M11.7127826,13.1482495 L11.8717448,13.1482495 L11.8717448,13.3090065 L11.7127826,13.3090065 L11.7127826,13.1482495 Z M11.7127826,12.7848946 L11.8717448,12.7848946 L11.8717448,12.9456516 L11.7127826,12.9456516 L11.7127826,12.7848946 Z M11.3534843,12.7848946 L11.5124466,12.7848946 L11.5124466,12.9456516 L11.3534843,12.9456516 L11.3534843,12.7848946 Z M11.3534843,13.1482495 L11.5124466,13.1482495 L11.5124466,13.3090065 L11.3534843,13.3090065 L11.3534843,13.1482495 Z M7.39249335,9.59454154 C6.83198666,9.59448301 6.32414436,9.26044282 6.09684211,8.74230929 C5.73954511,8.55200299 5.51574917,8.1773415 5.51543222,7.76895875 C5.52745858,7.58928385 5.43949369,7.41780109 5.28732066,7.32426763 C5.13514762,7.23073417 4.94412086,7.23073417 4.79194782,7.32426763 C4.63977478,7.41780109 4.5518099,7.58928385 4.56383626,7.76895875 C4.56331329,8.49851756 4.94378179,9.17412652 5.56450983,9.54588388 C6.18523787,9.91764123 6.95394628,9.93028048 7.58629665,9.57912649 C7.52211816,9.58872305 7.45736624,9.59387339 7.39249335,9.59454154 Z" fill="#FFFFFF"></path>
            <path d="M7.39249335,9.59454154 C7.45736624,9.59387339 7.52211816,9.58872305 7.58629665,9.57912649 C8.24078243,9.21723093 8.64814571,8.52331041 8.64894843,7.76895875 C8.66097479,7.58928385 8.57300991,7.41780109 8.42083687,7.32426763 C8.26866383,7.23073417 8.07763707,7.23073417 7.92546403,7.32426763 C7.77329099,7.41780109 7.68532611,7.58928385 7.69735247,7.76895875 C7.69786285,8.15585644 7.49753953,8.51463605 7.16967804,8.71402504 C6.84181656,8.91341404 6.43453121,8.92415171 6.09684211,8.74230929 C6.32414436,9.26044282 6.83198666,9.59448301 7.39249335,9.59454154 Z" fill="#FFFFFF"></path>
            <path d="M5.9661882,1.79836559 C5.96666982,1.21621253 5.86871976,0.638262003 5.67657204,0.0894967742 C2.42650473,0.559743661 0.0132403514,3.37571779 0.0149027113,6.69594839 L0.0149027113,6.84349247 C1.49100194,7.11195928 3.00878124,6.70388253 4.15814786,5.72952154 C5.30751448,4.75516055 5.96984705,3.31507508 5.9661882,1.79836559 Z" fill="#FFBA00"></path>
            <path d="M5.9661882,1.79836559 C5.96666982,1.21621253 5.86871976,0.638262003 5.67657204,0.0894967742 C2.42650473,0.559743661 0.0132403514,3.37571779 0.0149027113,6.69594839 L0.0149027113,6.84349247 C1.49100194,7.11195928 3.00878124,6.70388253 4.15814786,5.72952154 C5.30751448,4.75516055 5.96984705,3.31507508 5.9661882,1.79836559 Z" fill="#FEC744"></path>
            <path d="M7.90909091,4.4542718 C8.1627907,4.4542718 8.36363636,4.2493569 8.36363636,4.00240819 C8.36363636,3.75545947 8.15750529,3.55054458 7.90909091,3.55054458 L7.2167019,3.55054458 L7.80866808,2.96207104 C7.98837209,2.78342729 7.98837209,2.49969898 7.80866808,2.32105522 C7.62896406,2.14241147 7.3435518,2.14241147 7.16384778,2.32105522 L6.6141649,2.86224071 L6.06448203,2.315801 C5.88477801,2.13715724 5.59936575,2.13715724 5.41966173,2.315801 C5.23995772,2.49444475 5.23995772,2.77817306 5.41966173,2.95681681 L6.01162791,3.54529035 L5.18181818,3.54529035 C4.92811839,3.54529035 4.72727273,3.75020524 4.72727273,3.99715396 C4.72727273,4.24410268 4.93340381,4.44901757 5.18181818,4.44901757 L6.08562368,4.44901757 L6.08562368,4.80105085 L5.18181818,4.80105085 C4.92811839,4.80105085 4.72727273,5.00596574 4.72727273,5.25291445 C4.72727273,5.5051174 4.93340381,5.70477806 5.18181818,5.70477806 L6.08562368,5.70477806 L6.08562368,6.09359094 C6.08562368,6.34579388 6.29175476,6.54545455 6.54016913,6.54545455 C6.79386892,6.54545455 6.99471459,6.34053965 6.99471459,6.09359094 L6.99471459,5.71528652 L7.89852008,5.71528652 C8.15221987,5.71528652 8.35306554,5.51037163 8.35306554,5.26342291 C8.35306554,5.01121997 8.14693446,4.8115593 7.89852008,4.8115593 L6.99471459,4.8115593 L6.99471459,4.4542718 L7.90909091,4.4542718 Z" fill="#FFFFFF"></path>
        </g>
    </g>
</svg>