<?xml version="1.0" encoding="UTF-8"?>
<svg width="10px" height="10px" viewBox="0 0 10 10" version="1.1" xmlns="http://www.w3.org/2000/svg" xmlns:xlink="http://www.w3.org/1999/xlink">
    <!-- Generator: Sketch 50.2 (55047) - http://www.bohemiancoding.com/sketch -->
    <title>6.icon_warning</title>
    <desc>Created with Sketch.</desc>
    <defs></defs>
    <g id="6.icon_warning" stroke="none" stroke-width="1" fill="none" fill-rule="evenodd">
        <g fill="#F32E25" fill-rule="nonzero" id="Shape">
            <g>
                <path d="M9.78835386,8.30200501 L5.87010078,0.70802005 C5.39081747,-0.220551378 4.60806271,-0.220551378 4.1287794,0.70802005 L0.210526316,8.30200501 C-0.268756999,9.23182957 0.123180291,9.9887218 1.0806271,9.9887218 L8.91825308,9.9887218 C9.87458007,9.98997494 10.2676372,9.23182957 9.78835386,8.30200501 Z M4.46136618,2.86340852 C4.60246361,2.69298246 4.78163494,2.60776942 5,2.60776942 C5.21836506,2.60776942 5.39753639,2.69172932 5.53863382,2.85964912 C5.67861142,3.02756892 5.74916013,3.23809524 5.74916013,3.49122807 C5.74916013,3.70927318 5.4568869,5.30952381 5.35946249,6.47368421 L4.65509518,6.47368421 C4.5699888,5.30952381 4.25307951,3.70927318 4.25307951,3.49122807 C4.25083987,3.24185464 4.32026876,3.03258145 4.46136618,2.86340852 Z M5.52743561,8.39974937 C5.37849944,8.56140351 5.20268757,8.64160401 4.99888018,8.64160401 C4.79507279,8.64160401 4.61926092,8.56140351 4.47032475,8.39974937 C4.3225084,8.23934837 4.24860022,8.04385965 4.24860022,7.81453634 C4.24860022,7.58646617 4.3225084,7.38972431 4.47032475,7.22431078 C4.6181411,7.05889724 4.79507279,6.97619048 4.99888018,6.97619048 C5.20268757,6.97619048 5.37961926,7.05889724 5.52743561,7.22431078 C5.67525196,7.38972431 5.74916013,7.58646617 5.74916013,7.81453634 C5.74804031,8.04385965 5.67525196,8.23809524 5.52743561,8.39974937 Z"></path>
            </g>
        </g>
    </g>
</svg>