<?xml version="1.0" encoding="UTF-8"?>
<svg width="16px" height="16px" viewBox="0 0 16 16" version="1.1" xmlns="http://www.w3.org/2000/svg" xmlns:xlink="http://www.w3.org/1999/xlink">
    <!-- Generator: Sketch 50.2 (55047) - http://www.bohemiancoding.com/sketch -->
    <title>4.icon_Shape2</title>
    <desc>Created with Sketch.</desc>
    <defs></defs>
    <g id="4.icon_Shape2" stroke="none" stroke-width="1" fill="none" fill-rule="evenodd">
        <path d="M15.9184337,7.44892107 C15.8012461,7.65679055 15.5763084,7.78594347 15.3314488,7.78594347 C15.219685,7.7858665 15.109707,7.75866946 15.0114798,7.7068166 L14.0895571,7.21995919 C13.9202913,7.52538859 13.7074318,7.8165943 13.4530565,8.09050669 L14.2538698,8.83852683 C14.3823386,8.958562 14.4547293,9.11976381 14.4579324,9.29246917 C14.4610574,9.46525052 14.3944949,9.62886853 14.2704323,9.75318904 C14.1454009,9.87867966 13.970057,9.95070988 13.7896037,9.95070988 C13.6153848,9.95070988 13.4505097,9.886217 13.3253221,9.76897794 L12.4406025,8.9427731 C12.0550397,9.19896666 11.6299612,9.42030002 11.1712733,9.60365795 L11.4900392,10.5945901 C11.6000236,10.9365057 11.4066016,11.302553 11.0588044,11.4105375 C10.9927206,11.431155 10.9237364,11.4416294 10.8543355,11.4415834 C10.5599602,11.4415834 10.3035069,11.2588334 10.2161474,10.9869269 L9.89666277,9.99366968 C9.47830302,10.0857893 9.04761514,10.1476381 8.609896,10.1785928 L8.609896,11.3532021 C8.609896,11.5276246 8.53558343,11.6971388 8.40598957,11.8182681 C8.28016133,11.9359782 8.11617681,12 7.94203603,12 C7.93419228,12 7.92636414,11.999848 7.91844226,11.9996049 C7.55655132,11.9876303 7.27298857,11.7000868 7.27298857,11.3449353 L7.27298857,10.1771796 C6.8548632,10.1466047 6.44290971,10.0878712 6.04222185,10.0015109 L5.72528407,10.9869877 C5.63761212,11.2589701 5.38115877,11.4415531 5.08718975,11.4415531 C5.01823657,11.4415531 4.95008026,11.4312804 4.88456458,11.4111302 C4.53556427,11.3038447 4.34109534,10.9374175 4.45140794,10.5944838 L4.76578322,9.61733458 C4.30190781,9.43450851 3.8717043,9.21287122 3.48118833,8.95543157 L2.60982819,9.76919069 C2.48487495,9.88612582 2.3199373,9.95069469 2.1457184,9.95069469 C1.96421824,9.95069469 1.78815558,9.87795024 1.66288985,9.75106157 C1.40892087,9.49495919 1.41987401,9.0829433 1.68753049,8.83296501 L2.46481243,8.10679706 C2.21492159,7.8401029 2.00445265,7.55669286 1.83543687,7.25949983 L0.988467374,7.7068318 C0.890262869,7.75866053 0.780308572,7.78582703 0.668576466,7.78586749 C0.423716874,7.78586749 0.198779175,7.65672977 0.0815134456,7.4487691 C-0.0949554607,7.13571118 0.0246383953,6.74205236 0.348201182,6.57121613 L1.39121773,6.02033692 C1.37324863,5.90992796 1.36059419,5.79876267 1.35329582,5.68720476 L1.35306145,5.68416551 C1.35248484,5.67281746 1.35219308,5.66145741 1.35218645,5.65009552 C1.35218645,5.62116186 1.35410832,5.59260811 1.35795208,5.56513329 C1.40154586,5.24406695 1.68663987,5.00218826 2.02165579,5.00218826 C2.39082799,5.00218826 2.69118763,5.29284691 2.69118763,5.65008032 L2.69118763,5.65210142 C2.72182828,6.0082559 2.83909401,6.35811914 3.03971919,6.69225425 C3.28514128,7.10115491 3.64421973,7.47381252 4.10706389,7.79993922 C4.59325182,8.14247786 5.16464295,8.41298628 5.80547164,8.60389675 C6.48276912,8.80570294 7.20470726,8.90808006 7.95134854,8.90808006 C8.6979117,8.90808006 9.41984984,8.80570294 10.0972254,8.60389675 C10.7379604,8.41298628 11.3094296,8.14247786 11.7956332,7.79993922 C12.2582274,7.47404047 12.6173996,7.10132207 12.8631341,6.69225425 C13.0595093,6.36480549 13.17615,6.02219086 13.2096657,5.67349774 C13.2093481,5.66530551 13.2091866,5.65710826 13.2091813,5.64891021 C13.2091813,5.29111454 13.510041,5 13.8798382,5 C14.2144478,5 14.4992293,5.2406326 14.5443388,5.56037687 L14.5477763,5.58122612 L14.5478544,5.59032867 C14.5505036,5.61849065 14.5512239,5.6467928 14.5500106,5.67504776 C14.5498544,5.68010811 14.5495263,5.68594347 14.5490575,5.69240188 C14.5486513,5.69761419 14.5483388,5.7024314 14.5479325,5.70711184 C14.5416515,5.79601948 14.5319363,5.88466607 14.5188075,5.97286384 L15.6518241,6.57120094 C15.9753869,6.74214354 16.0949808,7.13578717 15.9184337,7.44892107 Z" fill="#525768" fill-rule="nonzero"></path>
    </g>
</svg>