<?xml version="1.0" encoding="UTF-8"?>
<svg width="16px" height="16px" viewBox="0 0 16 16" version="1.1" xmlns="http://www.w3.org/2000/svg" xmlns:xlink="http://www.w3.org/1999/xlink">
    <!-- Generator: Sketch 50.2 (55047) - http://www.bohemiancoding.com/sketch -->
    <title>4.icon_Shape</title>
    <desc>Created with Sketch.</desc>
    <defs></defs>
    <g id="4.icon_Shape" stroke="none" stroke-width="1" fill="none" fill-rule="evenodd">
        <path d="M7.98552473,3 C4.93413752,3 2.16646562,4.75251509 0.124487334,7.59758551 C-0.041495778,7.83098592 -0.041495778,8.15694165 0.124487334,8.39034205 C2.16646562,11.2394366 4.93413752,12.9899396 7.98552473,12.9899396 C11.0369119,12.9899396 13.8045838,11.2374245 15.8465621,8.39235412 C16.0125452,8.15895372 16.0125452,7.83299799 15.8465621,7.59959759 C13.8045838,4.75251509 11.0369119,3 7.98552473,3 Z M8.20554885,11.5130785 C6.18094089,11.6458753 4.50759952,9.89537223 4.63498191,7.7665996 C4.73920386,6.01207243 6.0960193,4.58953722 7.76743064,4.47887324 C9.7920386,4.34607646 11.46538,6.09657948 11.3379976,8.22535211 C11.2299156,9.97585513 9.87503016,11.3983903 8.20554885,11.5130785 Z M8.10325694,9.88732394 C7.01278649,9.95975855 6.10952955,9.01609658 6.18287093,7.87122736 C6.23884198,6.92555332 6.97032569,6.16096579 7.87165259,6.09859155 C8.96212304,6.02615694 9.86537998,6.96981891 9.7920386,8.11468813 C9.73413752,9.06438632 9.0026538,9.82897384 8.10325694,9.88732394 Z" fill="#525768" fill-rule="nonzero"></path>
    </g>
</svg>