<?xml version="1.0" encoding="UTF-8"?>
<svg width="34px" height="34px" viewBox="0 0 34 34" version="1.1" xmlns="http://www.w3.org/2000/svg" xmlns:xlink="http://www.w3.org/1999/xlink">
    <!-- Generator: Sketch 50.2 (55047) - http://www.bohemiancoding.com/sketch -->
    <title>icon_Shared</title>
    <desc>Created with Sketch.</desc>
    <defs></defs>
    <g id="18.icon_Shared" stroke="none" stroke-width="1" fill="none" fill-rule="evenodd" opacity="0.200000003">
        <g>
            <circle id="Oval-3" fill="#E6F3FE" cx="17.5" cy="18.5" r="15.5"></circle>
            <path d="M34,25.4882654 C34,27.9972298 31.96,30.037229 29.4510345,30.037229 C26.942069,30.037229 24.902069,27.9972298 24.902069,25.4882654 C24.9037979,24.2229779 25.4318992,23.0154569 26.35976,22.1552066 C27.2876208,21.2949564 28.5315734,20.8595479 29.7933793,20.9533707 C30.7434275,15.697549 28.3615532,10.3989058 23.8,7.62068652 C23.2690186,7.28286313 23.1076887,6.58127963 23.4377732,6.04545326 C23.7678578,5.50962688 24.4670272,5.33813547 25.0075862,5.66041145 C30.4898128,9.0036143 33.2836621,15.4281516 31.9904827,21.7177842 C33.2262069,22.5548873 33.9976552,23.9547487 33.9976552,25.4906102 L34,25.4882654 Z M17,31.6950214 C18.7164138,31.6950214 20.3882758,31.3644008 21.9663448,30.7101942 C22.5453596,30.5036625 23.1846151,30.7874397 23.419812,31.3554148 C23.6550088,31.9233899 23.4035178,32.5760223 22.848,32.8392968 C20.9943372,33.6082358 19.0068199,34.0027108 17,33.999986 C13.0196669,33.9942979 9.19768421,32.4402779 6.34275861,29.6667464 C4.93784334,30.2670044 3.32553585,30.1227349 2.04950857,29.2825857 C0.773481293,28.4424364 0.00379911998,27.01838 0,25.4906102 C0,22.9793008 2.04,20.9393017 4.5489655,20.9393017 C7.05793101,20.9393017 9.09793101,22.9793008 9.09793104,25.4882654 C9.09793104,26.494196 8.76496551,27.4485404 8.17406896,28.2293677 C10.5763918,30.4517441 13.7273717,31.6881935 17,31.6926766 L17,31.6950214 Z M4.04013794,17.7690961 C3.9982389,18.3727157 3.49624463,18.840902 2.89117241,18.8406819 C2.84427587,18.8406819 2.84427587,18.8406819 2.80206898,18.8359922 C2.16958848,18.7897542 1.69417069,18.239823 1.73986208,17.6073031 C2.17183825,11.3125044 6.44120108,5.93616832 12.4744828,4.08937763 C12.7123941,1.76807449 14.666537,0.00225899101 17,0 C19.5089655,0 21.5489655,2.03999916 21.5489655,4.54896363 C21.5489655,7.0579281 19.5089655,9.09792726 17,9.09792729 C15.2015467,9.09539217 13.5732407,8.03405324 12.8449655,6.38965255 C7.87484202,8.04755238 4.39731639,12.5419398 4.04013794,17.7690961 Z" id="Shape" fill="#078BF4" fill-rule="nonzero"></path>
        </g>
    </g>
</svg>