<?xml version="1.0" encoding="UTF-8"?>
<svg width="34px" height="34px" viewBox="0 0 34 34" version="1.1" xmlns="http://www.w3.org/2000/svg" xmlns:xlink="http://www.w3.org/1999/xlink">
    <!-- Generator: Sketch 52.2 (67145) - http://www.bohemiancoding.com/sketch -->
    <title>6.icon_4</title>
    <desc>Created with Sketch.</desc>
    <g id="6.icon_4" stroke="none" stroke-width="1" fill="none" fill-rule="evenodd">
        <g id="6.icon_2" transform="translate(1.000000, 0.000000)" fill="#18C2E9" fill-rule="nonzero">
            <path d="M11.1526157,33.2108339 C11.1526157,33.6332572 10.8121299,33.975626 10.3922672,33.975626 C10.1659966,33.975626 9.96850991,33.8716049 9.82929916,33.7139172 C4.01158527,30.7986551 0.000743481027,24.7807432 0.000743481027,17.7989712 C0.000743481027,7.96892212 7.92329429,0 17.6963002,0 C21.1254803,0 24.3148654,0.998830633 27.0257931,2.69771166 C27.0709693,2.71544616 27.107613,2.7446832 27.1481159,2.77039468 C27.161428,2.77890582 27.1756606,2.78624178 27.1889727,2.79475292 L27.1874503,2.7972101 C27.3789891,2.93609485 27.511827,3.15125938 27.511827,3.40684294 C27.511827,3.82926625 27.1713412,4.17163498 26.7514785,4.17163498 C26.5328553,4.17163498 26.3390861,4.07623185 26.200371,3.92766076 C23.7256626,2.38835478 20.8197973,1.48325351 17.6963002,1.48325351 C8.73774093,1.48325351 1.47537909,8.78805726 1.47537909,17.7989712 C1.47537909,24.3094609 5.27598857,29.9127484 10.7587752,32.5303343 L10.7503135,32.5482468 C10.986285,32.6780863 11.1526157,32.9212414 11.1526157,33.2108339 Z M30.96795,17.7989712 C30.96795,25.1715791 25.0259661,31.1482173 17.6962648,31.1482173 C10.3664927,31.1482173 4.42457956,25.1715791 4.42457956,17.7989712 C4.42457956,10.42647 10.3664927,4.44972498 17.6962648,4.44972498 C25.0259661,4.44972498 30.96795,10.42647 30.96795,17.7989712 Z M21.8676309,22.6152094 L15.6551915,22.6152094 C15.8280012,22.331386 16.0468368,22.048987 16.31184,21.76787 C16.5767369,21.4868955 17.1758884,20.9524385 18.1090466,20.1643921 C19.2264855,19.2142424 20.0257437,18.4668288 20.5067501,17.9221513 C20.9876857,17.3776162 21.3319244,16.8590063 21.5392889,16.366464 C21.7466534,15.8740641 21.850318,15.3728683 21.850318,14.8629475 C21.850318,13.860627 21.4960599,13.0204811 20.7875438,12.342581 C20.0790275,11.664681 19.1169439,11.3257666 17.9016467,11.3257666 C16.6976789,11.3257666 15.7385693,11.6401447 15.0243883,12.2687228 C14.3100658,12.8974434 13.8981336,13.8113407 13.7888043,15.0106995 L15.3872851,15.1758299 C15.3929499,14.3762811 15.6205659,13.7505519 16.0698852,13.2986067 C16.5191692,12.846697 17.118179,12.6207066 17.8670564,12.6207066 C18.5755727,12.6207066 19.1501888,12.8336276 19.590834,13.2595053 C20.0315146,13.6853473 20.2518373,14.2083374 20.2518373,14.8282263 C20.2518373,15.4191987 20.0098825,16.0464236 19.5260437,16.7097942 C19.0422048,17.3733072 18.1118791,18.2728174 16.7352078,19.4082893 C15.8480756,20.1383601 15.1697949,20.7814678 14.7004012,21.3376834 C14.2308304,21.893899 13.8895657,22.4588038 13.6765011,23.0324335 C13.543911,23.3800727 13.48344,23.7422414 13.4950527,24.1187971 L21.8676309,24.1187971 L21.8675955,22.6152094 L21.8676309,22.6152094 Z" id="Shape"></path>
        </g>
    </g>
</svg>