<?xml version="1.0" encoding="UTF-8"?>
<svg width="16px" height="16px" viewBox="0 0 16 16" version="1.1" xmlns="http://www.w3.org/2000/svg" xmlns:xlink="http://www.w3.org/1999/xlink">
    <!-- Generator: Sketch 52.2 (67145) - http://www.bohemiancoding.com/sketch -->
    <title>9.icon_file</title>
    <desc>Created with Sketch.</desc>
    <g id="9.icon_file" stroke="none" stroke-width="1" fill="none" fill-rule="evenodd">
        <path d="M10.6894408,0.00261754956 L10.6894408,0.0166080709 C10.6199621,0.0166080709 10.3330427,-0.00788482011 9.61277725,0.00261754956 L3.15330806,0.00261754956 C1.96418957,0.00261754956 1,0.897840298 1,2.00149907 L1,13.9957171 C1,15.0998687 1.96418957,15.9950915 3.15330806,15.9950915 L12.8427678,15.9950915 C14.0313934,15.9950915 14.9955829,15.0998687 14.9955829,13.9957171 L14.9955829,4.00087347 L10.6894408,0.00263650691 L10.6894408,0.00261754956 Z M11.2272796,11.9973474 L4.76832227,11.9973474 C4.47091943,11.9973474 4.22999052,11.7739161 4.22999052,11.497518 C4.22999052,11.2211199 4.47091943,10.9976886 4.76832227,10.9976886 L11.2272796,10.9976886 C11.5251754,10.9976886 11.7661043,11.2211199 11.7661043,11.497518 C11.7661043,11.7739161 11.5251754,11.9973474 11.2272796,11.9973474 Z M11.2272796,8.99827632 L4.76832227,8.99827632 C4.47091943,8.99827632 4.22999052,8.77484504 4.22999052,8.49844693 C4.22999052,8.22303461 4.47091943,7.99861755 4.76832227,7.99861755 L11.2272796,7.99861755 C11.5251754,7.99861755 11.7661043,8.22256068 11.7661043,8.49844693 C11.7661043,8.774864 11.5251754,8.99827632 11.2272796,8.99827632 Z M11.7661232,4.00085452 C11.1718104,4.00085452 10.6894597,3.55300618 10.6894597,3.00117679 L10.6894597,1.00180238 L13.9189384,4.00034267 L11.7661232,4.00034267 L11.7661232,4.00085452 Z" fill="#18C2E9" fill-rule="nonzero"></path>
    </g>
</svg>