<?xml version="1.0" encoding="UTF-8"?>
<svg width="34px" height="34px" viewBox="0 0 34 34" version="1.1" xmlns="http://www.w3.org/2000/svg" xmlns:xlink="http://www.w3.org/1999/xlink">
    <!-- Generator: Sketch 52.2 (67145) - http://www.bohemiancoding.com/sketch -->
    <title>6.icon_3</title>
    <desc>Created with Sketch.</desc>
    <g id="6.icon_3" stroke="none" stroke-width="1" fill="none" fill-rule="evenodd">
        <g id="6.icon_1" transform="translate(1.000000, 0.000000)" fill="#D3D8E1" fill-rule="nonzero">
            <path d="M11.1526306,33.2108311 C11.1526306,33.6332733 10.812115,33.9756397 10.3922656,33.9756397 C10.1659933,33.9756397 9.9685067,33.8715865 9.82928348,33.7139406 C4.01159375,30.7986059 0.0007265625,24.7807103 0.0007265625,17.7989478 C0.0007265625,7.96891095 7.92333705,0 17.6963292,0 C21.1254967,0 24.3148638,0.998841351 27.0258069,2.69772774 C27.0709576,2.71547595 27.1075971,2.74470829 27.1481116,2.77039099 C27.1614319,2.77891709 27.1756518,2.78622518 27.1889721,2.79475128 L27.1874498,2.79718731 C27.3789855,2.93611054 27.5118426,3.15124667 27.5118426,3.40685568 C27.5118426,3.82926305 27.171327,4.17162948 26.7514777,4.17162948 C26.5328516,4.17162948 26.339067,4.07624156 26.2003627,3.92767861 C23.7256563,2.3883521 20.8198214,1.48322825 17.6962946,1.48322825 C8.73774442,1.48322825 1.47537165,8.78800819 1.47537165,17.7989478 C1.47537165,24.3094084 5.27598549,29.9127267 10.7587645,32.5303091 L10.7503225,32.5481965 C10.9862824,32.6780368 11.1526306,32.9212221 11.1526306,33.2107963 L11.1526306,33.2108311 Z M30.9679621,17.7990174 C30.9679621,25.1716233 25.0259609,31.1482456 17.69626,31.1482456 C10.36649,31.1482456 4.42459263,25.1716233 4.42459263,17.7990174 C4.42459263,10.4265159 10.36649,4.44975435 17.69626,4.44975435 C25.0259609,4.44975435 30.9679621,10.4265159 30.9679621,17.7990174 Z M19.0686328,11.1477195 L18.0662879,11.1477195 C17.7954877,11.6982272 17.3346741,12.2659959 16.6838125,12.8510952 C16.0328125,13.4364381 15.2724821,13.9346407 14.4027522,14.3459816 L14.4027522,15.8581638 C14.8866429,15.6786285 15.4323259,15.4092385 16.0401127,15.0499243 C16.6477612,14.6907144 17.138779,14.3315394 17.5133047,13.9722252 L17.5133047,23.9406981 L19.0686328,23.9406981 L19.0686328,11.1477195 Z" id="Shape"></path>
        </g>
    </g>
</svg>