<?xml version="1.0" encoding="UTF-8"?>
<svg width="40px" height="40px" viewBox="0 0 40 40" version="1.1" xmlns="http://www.w3.org/2000/svg" xmlns:xlink="http://www.w3.org/1999/xlink">
    <!-- Generator: Sketch 52.2 (67145) - http://www.bohemiancoding.com/sketch -->
    <title>2.icon_import</title>
    <desc>Created with Sketch.</desc>
    <g id="2.icon_import" stroke="none" stroke-width="1" fill="none" fill-rule="evenodd">
        <g transform="translate(0.000000, 1.000000)" fill="#D3D8E1" id="路径">
            <path d="M5,33.0136851 L5,18.1517219 C5,16.7837219 3.88070588,15.674728 2.5,15.674728 C1.11929412,15.674728 0,16.7837219 0,18.1517219 L0,35.4906789 C0,36.8586789 1.11929412,37.9676728 2.5,37.9676728 L37.5,37.9676728 C38.8807059,37.9676728 40,36.8586789 40,35.4906789 L40,18.1517219 C40,16.7837219 38.8807059,15.674728 37.5,15.674728 C36.1192941,15.674728 35,16.7837219 35,18.1517219 L35,33.0136851 L5,33.0136851 Z"></path>
            <path d="M17.5,2.47699387 L17.5,19.8159509 C17.5,21.1839509 18.6192941,22.2929448 20,22.2929448 C21.3807059,22.2929448 22.5,21.1839509 22.5,19.8159509 L22.5,2.47699387 C22.5,1.10899387 21.3807059,0 20,0 C18.6192941,0 17.5,1.10899387 17.5,2.47699387 Z"></path>
            <path d="M14.697451,15.5874601 C13.7211373,14.6201309 12.1382353,14.6201309 11.1619216,15.5874601 C10.1856078,16.5547894 10.1856078,18.1231247 11.1619216,19.090454 L18.2329804,26.0964417 C19.2092941,27.063771 20.7921961,27.063771 21.7685098,26.0964417 L28.8396078,19.090454 C29.8158824,18.1231247 29.8158824,16.5547894 28.8396078,15.5874601 C27.8632941,14.6201309 26.2803922,14.6201309 25.3040392,15.5874601 L20.0007843,20.8419509 L14.697451,15.5874601 Z"></path>
        </g>
    </g>
</svg>