<?xml version="1.0" encoding="UTF-8"?>
<svg width="40px" height="40px" viewBox="0 0 40 40" version="1.1" xmlns="http://www.w3.org/2000/svg" xmlns:xlink="http://www.w3.org/1999/xlink">
    <!-- Generator: Sketch 52.2 (67145) - http://www.bohemiancoding.com/sketch -->
    <title>2.icon_file</title>
    <desc>Created with Sketch.</desc>
    <g id="2.icon_file" stroke="none" stroke-width="1" fill="none" fill-rule="evenodd">
        <g transform="translate(2.000000, 0.000000)" fill="#9EABBE" fill-rule="nonzero" id="形状">
            <path d="M36.987289,28.329351 L36.9816543,3.31864841 C36.9816543,1.48970184 35.4997395,0.000497690802 33.6797451,0.000497651663 L3.33148019,0.000497651663 C1.51148583,0.000497651663 0.0295709453,1.4897018 0.0295709453,3.31864841 L0.0295709453,36.6587021 C0.0295709453,38.4876487 1.51148583,39.9768528 3.33148019,39.9768528 L25.8137633,39.9768528 L25.8137633,39.9825152 L36.987289,28.329351 Z M25.7179741,35.9056065 L25.6954355,30.16396 C25.7461475,28.9691993 26.427941,28.1991165 27.4365447,28.1991165 C27.4759873,28.1991165 27.5097952,28.1991165 27.5492378,28.2047788 L33.138818,28.2387531 L25.7179741,35.9056065 Z M3.33148019,37.1343414 C3.07228596,37.1343414 2.85816899,36.9191713 2.85816899,36.6587021 L2.85816899,3.31864841 C2.85816899,3.05817926 3.07228596,2.84300908 3.33148019,2.84300904 L33.6797451,2.84300904 C33.9389393,2.84300904 34.1530563,3.05817922 34.1530563,3.31864841 L34.1530563,25.4472031 L27.6788349,25.3566051 C27.5999497,25.3509427 27.5210645,25.3509427 27.4365447,25.3509427 C24.8727755,25.3509427 22.9513574,27.3497605 22.8612029,30.1016739 L22.8612029,30.1356481 L22.9457227,37.1400038 L3.33148019,37.1400038 L3.33148019,37.1343414 Z M9.46762212,12.0103914 L26.8110977,11.9650924 C27.2787743,11.9650924 28.0845303,11.3252442 28.0845303,10.5438367 C28.0845303,9.75676681 27.2787743,9.12258098 26.8110977,9.12258098 L9.46762212,9.16787996 C8.99994555,9.16787996 8.19418954,9.75676677 8.19418954,10.5438367 C8.19418954,11.3252442 8.99431088,12.0103914 9.46762212,12.0103914 Z M9.46762212,19.4111132 L26.8110977,19.3658142 C27.2787743,19.3658142 28.0845303,18.7316284 28.0845303,17.9445585 C28.0845303,17.1574886 27.2787743,16.5233028 26.8110977,16.5233028 L9.46762212,16.5686018 C8.99994555,16.5686018 8.19418954,17.1574886 8.19418954,17.9445585 C8.19418954,18.725966 8.99431088,19.4111132 9.46762212,19.4111132 Z M19.1648676,24.3430403 L9.39437159,24.3430403 C8.72948201,24.3430403 8.18855491,24.9828885 8.18855491,25.764296 C8.18855491,26.5457035 8.72948201,27.1855517 9.39437159,27.1855517 L19.1592329,27.1855517 C19.8241225,27.1855517 20.3650496,26.5457035 20.3650496,25.764296 C20.3650497,24.9828885 19.8241225,24.3430403 19.1648676,24.3430403 Z"></path>
        </g>
    </g>
</svg>