<?xml version="1.0" encoding="UTF-8"?>
<svg width="66px" height="66px" viewBox="0 0 66 66" version="1.1" xmlns="http://www.w3.org/2000/svg" xmlns:xlink="http://www.w3.org/1999/xlink">
    <!-- Generator: Sketch 52.1 (67048) - http://www.bohemiancoding.com/sketch -->
    <title>Icon</title>
    <desc>Created with Sketch.</desc>
    <g id="0.6.0" stroke="none" stroke-width="1" fill="none" fill-rule="evenodd">
        <g id="1.网络选择-初次选择" transform="translate(-768.000000, -230.000000)" fill="#B3C3E1">
            <g id="Card1-Copy-2" transform="translate(670.000000, 123.000000)">
                <g id="Card">
                    <g id="Icon" transform="translate(72.000000, 82.000000)">
                        <g transform="translate(26.000000, 25.000000)">
                            <text id="P" font-family="ArialRoundedMTBold, Arial Rounded MT Bold" font-size="13.8947368" font-weight="normal">
                                <tspan x="28.9473684" y="39.6315789">P</tspan>
                            </text>
                            <path d="M65.915563,34.3556052 C65.5818299,32.669572 64.295418,31.3333121 62.623591,30.9362426 L62.623591,30.9351426 L61.8450636,22.3646003 C63.8649187,21.0147289 64.4084034,18.2825386 63.058901,16.2621311 C62.2440864,15.0421872 60.8750658,14.3088185 59.408317,14.3066187 C58.647521,14.3112933 57.9012948,14.5157401 57.2442749,14.8994732 L36.2296722,5.26654989 C36.7139151,2.89169463 35.1817392,0.573760001 32.8073957,0.0893846711 C30.4331897,-0.394990659 28.1158888,1.13774172 27.6316459,3.51259698 C27.5986574,3.67442206 27.5747408,3.838172 27.5601709,4.00274687 L11.4442151,9.69261024 C10.690704,9.12092911 9.77170081,8.81006547 8.826032,8.80717819 C6.39684525,8.8135027 4.4327956,10.7885386 4.43911839,13.2183897 C4.44296704,14.692964 5.18506964,16.0675835 6.41567616,16.8794587 L3.75900658,36.3732628 C1.36088395,36.7208362 -0.301458862,38.9470653 0.0458819915,41.3458438 C0.393222845,43.7446222 2.61898084,45.4074196 5.01710347,45.0599837 C5.09132747,45.0492596 5.16541402,45.0366105 5.23908822,45.0220367 L10.0839914,56.3324687 C8.38137523,58.0587862 8.40034358,60.8389604 10.1261892,62.5419047 C11.8520347,64.2449865 14.6314488,64.226013 16.3339276,62.4996955 C16.5685579,62.2618387 16.7751481,61.9979965 16.9499868,61.7132558 L28.7301612,62.5546912 C29.2497292,64.9201972 31.5880603,66.4166324 33.9529195,65.8969223 C35.8683112,65.4760671 37.2712824,63.8340306 37.3885288,61.8760433 L53.1317152,57.7326613 C54.0279014,59.9912005 56.5847809,61.0952407 58.8425652,60.198947 C61.1003494,59.3026533 62.2042253,56.7449371 61.3081766,54.4865354 C60.8669562,53.3745207 59.9919376,52.4901886 58.8849003,52.0372983 L62.4619476,39.5158592 C64.8401397,39.0446828 66.3864731,36.7344476 65.915563,34.3556052 Z M59.408317,16.5065874 C60.6229791,16.5065874 61.6075468,17.4914243 61.6075468,18.7064185 C61.6075468,19.9214128 60.6229791,20.9062497 59.408317,20.9062497 C58.1936549,20.9062497 57.2090872,19.9214128 57.2090872,18.7064185 C57.2090872,17.4914243 58.1937924,16.5065874 59.408317,16.5065874 Z M25.4809366,25.0122347 L20.3248424,20.9997426 L24.4912832,15.5650596 L31.63878,16.225009 L32.0863233,22.049062 C29.6121897,22.2584585 27.2827931,23.3033783 25.4809366,25.0122347 Z M33.0176971,24.2059965 C37.8760706,24.2059965 41.8146162,28.1456192 41.8146162,33.0053213 C41.8146162,37.8650234 37.8760706,41.804646 33.0176971,41.804646 C28.1615228,41.7991465 24.226276,37.8628235 24.2207779,33.0053213 C24.2207779,28.1454817 28.1591861,24.2059965 33.0176971,24.2059965 Z M24.0381044,26.6786068 C22.7373974,28.5105162 22.0332316,30.6990733 22.0214107,32.9459258 L7.65384252,37.7349583 C7.62525254,37.7041607 7.60326024,37.6689634 7.57467025,37.6392657 L18.9886728,22.7475084 L24.0381044,26.6786068 Z M8.70191297,39.7060071 L22.2414711,35.1963532 C22.6132784,37.0201507 23.4436251,38.7191078 24.6540262,40.1327743 L18.0750303,48.906801 L8.63373684,41.9212371 C8.75551919,41.5270548 8.82039647,41.1173363 8.82616945,40.7047305 C8.82300806,40.3681563 8.78136014,40.032957 8.70191297,39.7060071 Z M26.2517666,41.6638569 C30.3351865,44.8793226 36.1164118,44.7781304 40.084922,41.4218754 L42.0114473,43.2290367 L23.1530519,52.660813 L19.8410118,50.2124009 L26.2517666,41.6638569 Z M41.6188848,39.8390969 C42.943096,38.1811116 43.7565361,36.1736282 43.9599649,34.0612403 L49.0038984,34.4638094 L44.2568609,42.1027232 L44.1117117,42.1764175 L41.6188848,39.8390969 Z M51.469235,34.6628941 L57.2158224,35.1226588 C57.2158224,35.1512566 57.2070255,35.1776546 57.2070255,35.2062524 C57.2092247,35.341542 57.2378147,35.471332 57.2499104,35.6044218 L48.0131453,40.2240673 L51.469235,34.6628941 Z M52.7821751,32.5631552 L58.7014021,23.0389861 C58.9349328,23.0800954 59.17135,23.1025062 59.4084545,23.1060809 C59.5085194,23.1060809 59.6019867,23.0829827 59.700952,23.0763832 L60.4244986,30.989176 C59.344127,31.29509 58.4219625,32.0035732 57.8481009,32.9690241 L52.7821751,32.5631552 Z M56.6724752,22.1238563 L50.311203,32.3618707 L43.9521301,31.8526097 C43.812479,30.5421978 43.4361358,29.2679456 42.8415191,28.0919983 L55.8345686,21.2516232 C56.0722229,21.5796731 56.3542741,21.873213 56.6724752,22.1238563 Z M55.0571409,19.1749826 L55.0582405,19.1749826 L41.6605327,26.2287413 C39.8555148,23.9200185 37.2031063,22.4286704 34.2931129,22.0864592 L33.8532669,16.4361928 L55.0329494,18.4072415 C55.0252521,18.5073338 55.0021601,18.6041264 55.0021601,18.7064185 C55.0121941,18.8634315 55.0304752,19.0198945 55.0571409,19.1749826 Z M35.2497778,7.23979847 L54.7316549,16.1678134 L33.6905239,14.2099636 L33.250678,8.57619591 C34.0289304,8.32651507 34.7215503,7.86345061 35.2497778,7.23979847 Z M31.9180822,2.20768462 C33.1327443,2.20768462 34.117312,3.19252154 34.117312,4.40751581 C34.117312,5.62251007 33.1327443,6.607347 31.9180822,6.607347 C30.7034201,6.607347 29.7188524,5.62251007 29.7188524,4.40751581 C29.7188524,3.19252154 30.7034201,2.20768462 31.9180822,2.20768462 Z M30.016848,8.35951254 C30.3483819,8.52449988 30.6998463,8.64576558 31.0625818,8.72028486 L31.0570837,8.72468452 L31.4628416,14.0042794 L26.0747286,13.5027179 L30.016848,8.35951254 Z M27.915484,6.21027747 C28.031081,6.46710776 28.1712819,6.71211396 28.3344372,6.94172134 L23.4851356,13.2651361 L13.1223648,12.30161 C13.0658721,12.0346055 12.9845006,11.7735131 12.8793499,11.5217699 L27.915484,6.21027747 Z M13.004706,14.4959416 L21.904989,15.3241781 L18.5907497,19.6545458 L12.7627908,15.1239935 C12.859282,14.921059 12.9401037,14.7111126 13.004706,14.4959416 Z M8.82616945,11.0070094 C10.0408316,11.0070094 11.0253992,11.9918463 11.0253992,13.2068406 C11.0253992,14.4218348 10.0408316,15.4066718 8.82616945,15.4066718 C7.61150735,15.4066718 6.62693967,14.4218348 6.62693967,13.2068406 C6.62693967,11.9918463 7.61150735,11.0070094 8.82616945,11.0070094 Z M8.54013213,17.5746054 C8.63689824,17.5834047 8.72816627,17.606503 8.826032,17.606503 C9.72854092,17.6058155 10.6086452,17.325337 11.3452497,16.8035646 L17.2523809,21.3990119 L6.02091441,36.0531874 L8.54013213,17.5746054 Z M4.42770988,42.9045616 C3.21304778,42.9045616 2.2284801,41.9197247 2.2284801,40.7047305 C2.2284801,39.4897362 3.21304778,38.5048993 4.42770988,38.5048993 C5.64237198,38.5048993 6.62693967,39.4897362 6.62693967,40.7047305 C6.62693967,41.9197247 5.64223453,42.9045616 4.42770988,42.9045616 Z M7.2238931,44.072672 C7.32175883,43.9912783 7.42732186,43.9197837 7.51749028,43.8295907 L16.7542554,50.6600665 L13.4786401,55.0289312 C13.3917705,55.0289312 13.310399,55.0036332 13.2224298,55.0036332 C12.8041638,55.0095452 12.3889217,55.0762276 11.9897615,55.201618 L7.2238931,44.072672 Z M13.224629,61.6031268 C12.0099669,61.6031268 11.0253992,60.6182898 11.0253992,59.4032956 C11.0253992,58.1883013 12.0099669,57.2034644 13.224629,57.2034644 C14.4392911,57.2034644 15.4238588,58.1883013 15.4238588,59.4032956 C15.4238588,60.6182898 14.4391537,61.6031268 13.224629,61.6031268 Z M16.1615629,56.1574446 C16.0110532,56.0141806 15.8505094,55.8817783 15.6810312,55.761475 L18.5246353,51.9678661 L20.9437881,53.7596287 L16.1615629,56.1574446 Z M28.8248655,60.3547226 L17.6087936,59.553984 C17.6087936,59.5011881 17.6241882,59.4527918 17.6241882,59.3999958 C17.6180029,58.9252448 17.5336074,58.4547559 17.3745756,58.0075027 L22.9331289,55.2236163 L29.0447885,59.7420696 C28.9562695,59.9404668 28.8828702,60.1453261 28.8248655,60.3547226 Z M33.0176971,63.802958 C31.803035,63.802958 30.8184673,62.818121 30.8184673,61.6031268 C30.8184673,60.3881325 31.803035,59.4032956 33.0176971,59.4032956 C34.2323592,59.4032956 35.2169269,60.3881325 35.2169269,61.6031268 C35.2169269,62.818121 34.2322217,63.802958 33.0176971,63.802958 Z M34.6671194,57.5334391 C33.2664849,56.9551584 31.6654457,57.1510809 30.4456978,58.0503994 L30.4456978,58.0525992 L25.1389564,54.1237007 L42.0345392,45.6719493 L34.6671194,57.5334391 Z M52.8689073,55.5304928 L52.866708,55.5348924 L36.9761732,59.7134718 C36.8286874,59.41017 36.6468386,59.1248794 36.4340631,58.863237 L44.6305925,45.675249 L53.4187147,53.9169166 C53.1304781,54.4129785 52.9435436,54.9614239 52.8689073,55.5304928 Z M59.408317,56.1035488 C59.408317,57.318543 58.4237493,58.30338 57.2090872,58.30338 C55.9944251,58.30338 55.0098575,57.318543 55.0098575,56.1035488 C55.0098575,54.8885545 55.9944251,53.9037176 57.2090872,53.9037176 C58.4237493,53.9037176 59.408317,54.8885545 59.408317,56.1035488 Z M56.6790729,51.7621819 C56.0700237,51.8328515 55.4828293,52.0315238 54.9559763,52.3451372 L45.8214754,43.7844941 L57.9876146,37.699761 C58.5319239,38.4816635 59.3152621,39.0655812 60.2198328,39.3639333 L56.6790729,51.7621819 Z M61.6075468,37.4049837 C60.3928847,37.4049837 59.408317,36.4201467 59.408317,35.2051525 C59.408317,33.9901582 60.3928847,33.0053213 61.6075468,33.0053213 C62.8222089,33.0053213 63.8067766,33.9901582 63.8067766,35.2051525 C63.8067766,36.4200093 62.8222089,37.4049837 61.6075468,37.4049837 Z" id="Shape" fill-rule="nonzero"></path>
                        </g>
                    </g>
                </g>
            </g>
        </g>
    </g>
</svg>