<?xml version="1.0" encoding="UTF-8"?>
<svg width="119px" height="30px" viewBox="0 0 119 30" version="1.1" xmlns="http://www.w3.org/2000/svg" xmlns:xlink="http://www.w3.org/1999/xlink">
    <!-- Generator: Sketch 52.2 (67145) - http://www.bohemiancoding.com/sketch -->
    <title>logo 黑</title>
    <desc>Created with Sketch.</desc>
    <defs>
        <polygon id="path-1" points="0.000100671141 -1.42108547e-14 26.2394295 -1.42108547e-14 26.2394295 29.9960892 0.000100671141 29.9960892"></polygon>
    </defs>
    <g id="0.1.0-0.2.0" stroke="none" stroke-width="1" fill="none" fill-rule="evenodd">
        <g id="✈️" transform="translate(-21.000000, -10.000000)">
            <g id="Top">
                <g id="logo-黑" transform="translate(20.000000, 10.000000)">
                    <g id="logo黑">
                        <g id="Group-3" transform="translate(1.875000, 0.000000)">
                            <mask id="mask-2" fill="white">
                                <use xlink:href="#path-1"></use>
                            </mask>
                            <g id="Clip-2"></g>
                            <path d="M22.8811409,10.3749057 L22.8811409,20.8128988 L14.0386913,26.032024 L14.0386913,29.9960892 L24.8653691,23.6060377 C25.7132718,23.1053516 26.2395302,22.1739623 26.2395302,21.1731046 L26.2395302,8.39274443 L22.8811409,10.3749057 Z M3.35823826,10.3749057 L0.000100671141,8.39274443 L0.000100671141,21.1731046 C0.000100671141,22.1739623 0.526107383,23.1053516 1.37401007,23.6060377 L12.2004362,29.9960892 L12.2004362,26.032024 L3.35823826,20.8128988 L3.35823826,10.3749057 Z M13.1198154,3.52842196 L21.9622651,8.74754717 L25.320151,6.76538593 L14.4937248,0.375334477 C13.6458221,-0.12535163 12.593557,-0.12535163 11.7456544,0.375334477 L0.91897651,6.76538593 L4.27736577,8.74754717 L13.1198154,3.52842196 Z" id="Fill-1" fill="#122039" mask="url(#mask-2)"></path>
                            <path d="M16.7661242,7.84471698 L13.1198154,9.99694683 L9.47275168,7.84471698 L6.11486577,9.82662093 L11.745906,13.1502916 C12.5938087,13.6504631 13.6460738,13.6504631 14.4937248,13.1502916 L20.1245134,9.82687822 L16.7661242,7.84471698 Z" id="Path" fill="#FCB811" mask="url(#mask-2)"></path>
                            <path d="M14.0386913,23.862813 L17.3968289,21.8809091 L17.3968289,17.5761921 L21.0433893,15.4239623 L21.0433893,11.4596398 L15.4126007,14.7830532 C14.564698,15.283482 14.0386913,16.2148714 14.0386913,17.2159863 L14.0386913,23.862813 Z" id="Path" fill="#00BEDE" mask="url(#mask-2)"></path>
                            <path d="M5.19598993,15.4239623 L8.84255034,17.5761921 L8.84255034,21.8809091 L12.2004362,23.862813 L12.2004362,17.2159863 C12.2004362,16.2148714 11.6746812,15.283482 10.8265268,14.7830532 L5.19598993,11.4596398 L5.19598993,15.4239623 Z" id="Path" fill="#EC0A6E" mask="url(#mask-2)"></path>
                        </g>
                    </g>
                    <path d="M41.6330576,8.11111111 C44.5289253,8.11111111 46.6314045,9.53968254 47.1272723,11.9603175 L43.9140493,12.6150794 C43.6760327,11.3650794 42.6446278,10.75 41.5933882,10.75 C40.5024791,10.75 39.8082643,11.3452381 39.8082643,12.0992063 C39.8082643,12.6349206 40.0462808,13.031746 40.8793386,13.2103175 L43.6363633,13.8253968 C45.9371897,14.3412698 47.2859499,15.5912698 47.2859499,17.6944444 C47.2859499,20.531746 44.7669418,22 41.81157,22 C38.8165288,22 36.3570248,20.5714286 36,17.9722222 L39.3719007,17.3174603 C39.7090908,18.6865079 40.6611568,19.281746 41.9900824,19.281746 C43.2198344,19.281746 43.9537187,18.7261905 43.9537187,17.9126984 C43.9537187,17.3174603 43.6760327,16.9404762 42.7239667,16.7420635 L39.9471073,16.1468254 C38.0429751,15.7103175 36.3768595,14.718254 36.3768595,12.297619 C36.3768595,9.71825397 38.5190082,8.11111111 41.6330576,8.11111111 Z M60.0330574,11.7420635 L60.0330574,21.702381 L56.8595038,21.702381 L56.8595038,20.9087302 C56.0859502,21.6031746 55.0545452,22 53.7652891,22 C51.1272727,22 48.9057852,19.8769841 48.9057852,16.7222222 C48.9057852,13.5873016 51.1272727,11.4444444 53.7652891,11.4444444 C55.0545452,11.4444444 56.0859502,11.8412698 56.8595038,12.5357143 L56.8595038,11.7420635 L60.0330574,11.7420635 Z M54.4198345,19.3015873 C55.7090907,19.3015873 56.8595038,18.2698413 56.8595038,16.7222222 C56.8595038,15.1944444 55.7090907,14.1428571 54.4198345,14.1428571 C53.0314048,14.1428571 52.0198346,15.1944444 52.0198346,16.7222222 C52.0198346,18.2698413 53.0314048,19.3015873 54.4198345,19.3015873 Z M75.5570243,11.4444444 C77.6793383,11.4444444 79.3652886,13.0515873 79.3652886,15.4722222 L79.3652886,21.702381 L76.2115697,21.702381 L76.2115697,16.1468254 C76.2115697,15.015873 75.4776855,14.3015873 74.5454541,14.3015873 C73.3752062,14.3015873 72.6016525,15.1547619 72.6016525,16.8214286 L72.6016525,21.702381 L69.4280989,21.702381 L69.4280989,16.1468254 C69.4280989,15.015873 68.6942147,14.3015873 67.7421486,14.3015873 C66.5917354,14.3015873 65.8380165,15.1547619 65.8380165,16.8214286 L65.8380165,21.702381 L62.6644629,21.702381 L62.6644629,11.7420635 L65.8380165,11.7420635 L65.8380165,12.6547619 C66.5123966,11.9007937 67.4842974,11.4444444 68.7735535,11.4444444 C70.1619832,11.4444444 71.3520658,12.0396825 72.0264459,13.1309524 C72.8198343,12.0992063 74.0099169,11.4444444 75.5570243,11.4444444 Z M91.7355366,11.7420635 L91.7355366,21.702381 L88.561983,21.702381 L88.561983,20.75 C87.8082641,21.5436508 86.7570244,22 85.5074377,22 C83.1867766,22 81.6396693,20.3531746 81.6396693,17.8531746 L81.6396693,11.7420635 L84.7933881,11.7420635 L84.7933881,17.1785714 C84.7933881,18.3492063 85.487603,19.1428571 86.4991732,19.1428571 C87.7487599,19.1428571 88.561983,18.2896825 88.561983,16.3650794 L88.561983,11.7420635 L91.7355366,11.7420635 Z M100.9719,11.6031746 C101.249586,11.6031746 101.447933,11.6230159 101.68595,11.6825397 L101.547107,14.8571429 L100.9719,14.8571429 C98.7504129,14.8571429 97.5404956,16.0079365 97.5404956,18.5873016 L97.5404956,21.702381 L94.366942,21.702381 L94.366942,11.7420635 L97.5404956,11.7420635 L97.5404956,13.6468254 C98.2545452,12.4563492 99.3454542,11.6031746 100.9719,11.6031746 Z M113.778512,11.7420635 L113.778512,21.702381 L110.604958,21.702381 L110.604958,20.9087302 C109.831405,21.6031746 108.8,22 107.510744,22 C104.872727,22 102.65124,19.8769841 102.65124,16.7222222 C102.65124,13.5873016 104.872727,11.4444444 107.510744,11.4444444 C108.8,11.4444444 109.831405,11.8412698 110.604958,12.5357143 L110.604958,11.7420635 L113.778512,11.7420635 Z M108.165289,19.3015873 C109.454545,19.3015873 110.604958,18.2698413 110.604958,16.7222222 C110.604958,15.1944444 109.454545,14.1428571 108.165289,14.1428571 C106.776859,14.1428571 105.765289,15.1944444 105.765289,16.7222222 C105.765289,18.2698413 106.776859,19.3015873 108.165289,19.3015873 Z M118.155372,7 C119.226446,7 120,7.83333333 120,8.80555556 C120,9.81746032 119.226446,10.5714286 118.155372,10.5714286 C117.084298,10.5714286 116.330579,9.81746032 116.330579,8.80555556 C116.330579,7.83333333 117.084298,7 118.155372,7 Z M119.742149,21.702381 L116.568595,21.702381 L116.568595,11.7420635 L119.742149,11.7420635 L119.742149,21.702381 Z" id="Samurai" fill="#122039"></path>
                </g>
            </g>
        </g>
    </g>
</svg>