<?xml version="1.0" encoding="UTF-8"?>
<svg width="113px" height="24px" viewBox="0 0 113 24" version="1.1" xmlns="http://www.w3.org/2000/svg" xmlns:xlink="http://www.w3.org/1999/xlink">
    <!-- Generator: Sketch 52.2 (67145) - http://www.bohemiancoding.com/sketch -->
    <title>Group</title>
    <desc>Created with Sketch.</desc>
    <defs>
        <polygon id="path-1" points="8.05369128e-05 -1.42108547e-14 20.9915436 -1.42108547e-14 20.9915436 23.9968714 8.05369128e-05 23.9968714"></polygon>
    </defs>
    <g id="0.1.0-0.2.0" stroke="none" stroke-width="1" fill="none" fill-rule="evenodd">
        <g id="1.网络选择-初次选择（英）" transform="translate(-21.000000, -10.000000)">
            <g id="Group" transform="translate(20.000000, 10.000000)">
                <g id="logo白">
                    <g id="Group-3" transform="translate(1.500000, 0.000000)">
                        <mask id="mask-2" fill="white">
                            <use xlink:href="#path-1"></use>
                        </mask>
                        <g id="Clip-2"></g>
                        <path d="M18.3049128,8.29992453 L18.3049128,16.650319 L11.230953,20.8256192 L11.230953,23.9968714 L19.8922953,18.8848302 C20.5706174,18.4842813 20.9916242,17.7391698 20.9916242,16.9384837 L20.9916242,6.71419554 L18.3049128,8.29992453 Z M2.6865906,8.29992453 L8.05369128e-05,6.71419554 L8.05369128e-05,16.9384837 C8.05369128e-05,17.7391698 0.420885906,18.4842813 1.09920805,18.8848302 L9.76034899,23.9968714 L9.76034899,20.8256192 L2.6865906,16.650319 L2.6865906,8.29992453 Z M10.4958523,2.82273756 L17.5698121,6.99803774 L20.2561208,5.41230875 L11.5949799,0.300267581 C10.9166577,-0.100281304 10.0748456,-0.100281304 9.39652349,0.300267581 L0.735181208,5.41230875 L3.42189262,6.99803774 L10.4958523,2.82273756 Z" id="Fill-1" fill="#FFFFFF" mask="url(#mask-2)"></path>
                        <path d="M13.4128993,6.27577358 L10.4958523,7.99755746 L7.57820134,6.27577358 L4.89189262,7.86129674 L9.39672483,10.5202333 C10.075047,10.9203705 10.9168591,10.9203705 11.5949799,10.5202333 L16.0996107,7.86150257 L13.4128993,6.27577358 Z" id="Path" fill="#FCB811" mask="url(#mask-2)"></path>
                        <path d="M11.230953,19.0902504 L13.9174631,17.5047273 L13.9174631,14.0609537 L16.8347114,12.3391698 L16.8347114,9.16771184 L12.3300805,11.8264425 C11.6517584,12.2267856 11.230953,12.9718971 11.230953,13.772789 L11.230953,19.0902504 Z" id="Path" fill="#00BEDE" mask="url(#mask-2)"></path>
                        <path d="M4.15679195,12.3391698 L7.07404027,14.0609537 L7.07404027,17.5047273 L9.76034899,19.0902504 L9.76034899,13.772789 C9.76034899,12.9718971 9.33974497,12.2267856 8.66122148,11.8264425 L4.15679195,9.16771184 L4.15679195,12.3391698 Z" id="Path" fill="#EC0A6E" mask="url(#mask-2)"></path>
                    </g>
                </g>
                <path d="M35.6330576,6.11111111 C38.5289253,6.11111111 40.6314045,7.53968254 41.1272723,9.96031746 L37.9140493,10.6150794 C37.6760327,9.36507937 36.6446278,8.75 35.5933882,8.75 C34.5024791,8.75 33.8082643,9.3452381 33.8082643,10.0992063 C33.8082643,10.6349206 34.0462808,11.031746 34.8793386,11.2103175 L37.6363633,11.8253968 C39.9371897,12.3412698 41.2859499,13.5912698 41.2859499,15.6944444 C41.2859499,18.531746 38.7669418,20 35.81157,20 C32.8165288,20 30.3570248,18.5714286 30,15.9722222 L33.3719007,15.3174603 C33.7090908,16.6865079 34.6611568,17.281746 35.9900824,17.281746 C37.2198344,17.281746 37.9537187,16.7261905 37.9537187,15.9126984 C37.9537187,15.3174603 37.6760327,14.9404762 36.7239667,14.7420635 L33.9471073,14.1468254 C32.0429751,13.7103175 30.3768595,12.718254 30.3768595,10.297619 C30.3768595,7.71825397 32.5190082,6.11111111 35.6330576,6.11111111 Z M54.0330574,9.74206349 L54.0330574,19.702381 L50.8595038,19.702381 L50.8595038,18.9087302 C50.0859502,19.6031746 49.0545452,20 47.7652891,20 C45.1272727,20 42.9057852,17.8769841 42.9057852,14.7222222 C42.9057852,11.5873016 45.1272727,9.44444444 47.7652891,9.44444444 C49.0545452,9.44444444 50.0859502,9.84126984 50.8595038,10.5357143 L50.8595038,9.74206349 L54.0330574,9.74206349 Z M48.4198345,17.3015873 C49.7090907,17.3015873 50.8595038,16.2698413 50.8595038,14.7222222 C50.8595038,13.1944444 49.7090907,12.1428571 48.4198345,12.1428571 C47.0314048,12.1428571 46.0198346,13.1944444 46.0198346,14.7222222 C46.0198346,16.2698413 47.0314048,17.3015873 48.4198345,17.3015873 Z M69.5570243,9.44444444 C71.6793383,9.44444444 73.3652886,11.0515873 73.3652886,13.4722222 L73.3652886,19.702381 L70.2115697,19.702381 L70.2115697,14.1468254 C70.2115697,13.015873 69.4776855,12.3015873 68.5454541,12.3015873 C67.3752062,12.3015873 66.6016525,13.1547619 66.6016525,14.8214286 L66.6016525,19.702381 L63.4280989,19.702381 L63.4280989,14.1468254 C63.4280989,13.015873 62.6942147,12.3015873 61.7421486,12.3015873 C60.5917354,12.3015873 59.8380165,13.1547619 59.8380165,14.8214286 L59.8380165,19.702381 L56.6644629,19.702381 L56.6644629,9.74206349 L59.8380165,9.74206349 L59.8380165,10.6547619 C60.5123966,9.90079365 61.4842974,9.44444444 62.7735535,9.44444444 C64.1619832,9.44444444 65.3520658,10.0396825 66.0264459,11.1309524 C66.8198343,10.0992063 68.0099169,9.44444444 69.5570243,9.44444444 Z M85.7355366,9.74206349 L85.7355366,19.702381 L82.561983,19.702381 L82.561983,18.75 C81.8082641,19.5436508 80.7570244,20 79.5074377,20 C77.1867766,20 75.6396693,18.3531746 75.6396693,15.8531746 L75.6396693,9.74206349 L78.7933881,9.74206349 L78.7933881,15.1785714 C78.7933881,16.3492063 79.487603,17.1428571 80.4991732,17.1428571 C81.7487599,17.1428571 82.561983,16.2896825 82.561983,14.3650794 L82.561983,9.74206349 L85.7355366,9.74206349 Z M94.9719004,9.6031746 C95.2495864,9.6031746 95.4479335,9.62301587 95.68595,9.68253968 L95.547107,12.8571429 L94.9719004,12.8571429 C92.7504129,12.8571429 91.5404956,14.0079365 91.5404956,16.5873016 L91.5404956,19.702381 L88.366942,19.702381 L88.366942,9.74206349 L91.5404956,9.74206349 L91.5404956,11.6468254 C92.2545452,10.4563492 93.3454542,9.6031746 94.9719004,9.6031746 Z M107.778512,9.74206349 L107.778512,19.702381 L104.604958,19.702381 L104.604958,18.9087302 C103.831405,19.6031746 102.8,20 101.510744,20 C98.8727273,20 96.6512398,17.8769841 96.6512398,14.7222222 C96.6512398,11.5873016 98.8727273,9.44444444 101.510744,9.44444444 C102.8,9.44444444 103.831405,9.84126984 104.604958,10.5357143 L104.604958,9.74206349 L107.778512,9.74206349 Z M102.165289,17.3015873 C103.454545,17.3015873 104.604958,16.2698413 104.604958,14.7222222 C104.604958,13.1944444 103.454545,12.1428571 102.165289,12.1428571 C100.776859,12.1428571 99.7652893,13.1944444 99.7652893,14.7222222 C99.7652893,16.2698413 100.776859,17.3015873 102.165289,17.3015873 Z M112.155372,5 C113.226446,5 114,5.83333333 114,6.80555556 C114,7.81746032 113.226446,8.57142857 112.155372,8.57142857 C111.084298,8.57142857 110.330579,7.81746032 110.330579,6.80555556 C110.330579,5.83333333 111.084298,5 112.155372,5 Z M113.742149,19.702381 L110.568595,19.702381 L110.568595,9.74206349 L113.742149,9.74206349 L113.742149,19.702381 Z" id="Samurai" fill="#FFFFFF"></path>
            </g>
        </g>
    </g>
</svg>