<?xml version="1.0" encoding="UTF-8"?>
<svg width="24px" height="24px" viewBox="0 0 24 24" version="1.1" xmlns="http://www.w3.org/2000/svg" xmlns:xlink="http://www.w3.org/1999/xlink">
    <!-- Generator: Sketch 52.2 (67145) - http://www.bohemiancoding.com/sketch -->
    <title>logo黑</title>
    <desc>Created with Sketch.</desc>
    <defs>
        <polygon id="path-1" points="8.05369128e-05 -1.42108547e-14 20.9915436 -1.42108547e-14 20.9915436 23.9968714 8.05369128e-05 23.9968714"></polygon>
    </defs>
    <g id="logo黑" stroke="none" stroke-width="1" fill="none" fill-rule="evenodd">
        <g id="Group-3" transform="translate(1.500000, 0.000000)">
            <mask id="mask-2" fill="white">
                <use xlink:href="#path-1"></use>
            </mask>
            <g id="Clip-2"></g>
            <path d="M18.3049128,8.29992453 L18.3049128,16.650319 L11.230953,20.8256192 L11.230953,23.9968714 L19.8922953,18.8848302 C20.5706174,18.4842813 20.9916242,17.7391698 20.9916242,16.9384837 L20.9916242,6.71419554 L18.3049128,8.29992453 Z M2.6865906,8.29992453 L8.05369128e-05,6.71419554 L8.05369128e-05,16.9384837 C8.05369128e-05,17.7391698 0.420885906,18.4842813 1.09920805,18.8848302 L9.76034899,23.9968714 L9.76034899,20.8256192 L2.6865906,16.650319 L2.6865906,8.29992453 Z M10.4958523,2.82273756 L17.5698121,6.99803774 L20.2561208,5.41230875 L11.5949799,0.300267581 C10.9166577,-0.100281304 10.0748456,-0.100281304 9.39652349,0.300267581 L0.735181208,5.41230875 L3.42189262,6.99803774 L10.4958523,2.82273756 Z" id="Fill-1" fill="#122039" mask="url(#mask-2)"></path>
            <path d="M13.4128993,6.27577358 L10.4958523,7.99755746 L7.57820134,6.27577358 L4.89189262,7.86129674 L9.39672483,10.5202333 C10.075047,10.9203705 10.9168591,10.9203705 11.5949799,10.5202333 L16.0996107,7.86150257 L13.4128993,6.27577358 Z" id="Path" fill="#FCB811" mask="url(#mask-2)"></path>
            <path d="M11.230953,19.0902504 L13.9174631,17.5047273 L13.9174631,14.0609537 L16.8347114,12.3391698 L16.8347114,9.16771184 L12.3300805,11.8264425 C11.6517584,12.2267856 11.230953,12.9718971 11.230953,13.772789 L11.230953,19.0902504 Z" id="Path" fill="#00BEDE" mask="url(#mask-2)"></path>
            <path d="M4.15679195,12.3391698 L7.07404027,14.0609537 L7.07404027,17.5047273 L9.76034899,19.0902504 L9.76034899,13.772789 C9.76034899,12.9718971 9.33974497,12.2267856 8.66122148,11.8264425 L4.15679195,9.16771184 L4.15679195,12.3391698 Z" id="Path" fill="#EC0A6E" mask="url(#mask-2)"></path>
        </g>
    </g>
</svg>