<?xml version="1.0" encoding="UTF-8"?>
<svg width="8px" height="8px" viewBox="0 0 8 8" version="1.1" xmlns="http://www.w3.org/2000/svg" xmlns:xlink="http://www.w3.org/1999/xlink">
    <!-- Generator: Sketch 52.2 (67145) - http://www.bohemiancoding.com/sketch -->
    <title>restore_white</title>
    <desc>Created with Sketch.</desc>
    <g id="Page-1" stroke="none" stroke-width="1" fill="none" fill-rule="evenodd">
        <g id="7.钱包-普通钱包创建成功" transform="translate(-925.000000, -10.000000)" fill="#FFFFFF" fill-rule="nonzero">
            <g id="最小/大/关闭" transform="translate(908.000000, 10.000000)">
                <g id="缩小" transform="translate(17.000000, 0.000000)">
                    <path d="M3.5004878,4.2497561 L1.25268293,4.2497561 C1.10282927,4.2497561 1.00292683,4.34965854 1.00292683,4.4995122 C1.00292683,4.64936585 1.10282927,4.74926829 1.25268293,4.74926829 L2.90107317,4.74926829 L1.20273171,6.44760976 L1.55239024,6.79726829 L3.25073171,5.09892683 L3.25073171,6.74731707 C3.25073171,6.89717073 3.35063415,6.99707317 3.5004878,6.99707317 C3.65034146,6.99707317 3.7502439,6.89717073 3.7502439,6.74731707 L3.7502439,4.4995122 C3.7502439,4.42458537 3.72526829,4.37463415 3.67531707,4.32468293 C3.62536585,4.27473171 3.57541463,4.2497561 3.5004878,4.2497561 Z M6.74731707,3.25073171 L5.09892683,3.25073171 L6.79726829,1.55239024 L6.44760976,1.20273171 L4.74926829,2.90107317 L4.74926829,1.25268293 C4.74926829,1.10282927 4.64936585,1.00292683 4.4995122,1.00292683 C4.34965854,1.00292683 4.2497561,1.10282927 4.2497561,1.25268293 L4.2497561,3.5004878 C4.2497561,3.57541463 4.27473171,3.62536585 4.32468293,3.67531707 C4.37463415,3.72526829 4.42458537,3.7502439 4.4995122,3.7502439 L6.74731707,3.7502439 C6.89717073,3.7502439 6.99707317,3.65034146 6.99707317,3.5004878 C6.99707317,3.37560976 6.89717073,3.25073171 6.74731707,3.25073171 Z M6.99707317,0.00390243902 L1.00292683,0.00390243902 C0.453463415,0.00390243902 0.00390243902,0.453463415 0.00390243902,1.00292683 L0.00390243902,6.99707317 C0.00390243902,7.54653659 0.453463415,7.99609756 1.00292683,7.99609756 L6.99707317,7.99609756 C7.54653659,7.99609756 7.99609756,7.54653659 7.99609756,6.99707317 L7.99609756,1.00292683 C7.99609756,0.453463415 7.54653659,0.00390243902 6.99707317,0.00390243902 Z M7.49658537,6.99707317 C7.49658537,7.27180488 7.27180488,7.49658537 6.99707317,7.49658537 L1.00292683,7.49658537 C0.728195122,7.49658537 0.503414634,7.27180488 0.503414634,6.99707317 L0.503414634,1.00292683 C0.503414634,0.728195122 0.728195122,0.503414634 1.00292683,0.503414634 L6.99707317,0.503414634 C7.27180488,0.503414634 7.49658537,0.728195122 7.49658537,1.00292683 L7.49658537,6.99707317 Z" id="Shape"></path>
                </g>
            </g>
        </g>
    </g>
</svg>