<?xml version="1.0" encoding="UTF-8"?>
<svg width="10px" height="10px" viewBox="0 0 10 10" version="1.1" xmlns="http://www.w3.org/2000/svg" xmlns:xlink="http://www.w3.org/1999/xlink">
    <!-- Generator: Sketch 52.1 (67048) - http://www.bohemiancoding.com/sketch -->
    <title>4.icon_network</title>
    <desc>Created with Sketch.</desc>
    <g id="4.icon_network" stroke="none" stroke-width="1" fill="none" fill-rule="evenodd">
        <g id="网络-(2)" transform="translate(0.000000, 1.000000)" fill="#24272B" fill-rule="nonzero">
            <path d="M2.49679644,5.77229237e-16 L0.217052381,4.07382647 L2.49679644,8.00656804 L7.4903782,8.00656804 L9.70778807,4.07382647 L7.49038932,7.3530326e-16 L2.49679644,5.77229237e-16 Z M2.74647386,7.57719502 L0.786693043,4 L2.74648498,0.418275862 L7.25956618,0.418275862 L9.20336265,4 L7.25955506,7.5771839 L2.74647386,7.57719502 Z" id="Shape"></path>
            <path d="M6.87561735,4.48995551 C6.71978865,4.48995551 6.57740823,4.54718576 6.46805339,4.6416129 L4.95112347,3.77479422 C4.98559779,3.66985111 5.00311844,3.56008232 5.00302558,3.4496218 C5.00306888,3.35851501 4.99115781,3.26779634 4.96759733,3.17978865 L6.02631813,2.65043382 C6.1385762,2.75870968 6.29119021,2.82542825 6.4594772,2.82542825 C6.8042158,2.82542825 7.08367075,2.54596218 7.08367075,2.20123471 C7.08367075,1.85649611 6.80420467,1.57704116 6.4594772,1.57704116 C6.1147386,1.57704116 5.83528365,1.85650723 5.83528365,2.20123471 C5.83528365,2.22734149 5.8370634,2.25300334 5.84017798,2.27826474 L4.78137931,2.80766407 C4.59091212,2.56510567 4.29500556,2.4092881 3.96269188,2.4092881 C3.38813126,2.4092881 2.92235818,2.87506118 2.92235818,3.4496218 C2.92235818,3.89278087 3.1994772,4.27114572 3.58984427,4.42107898 L3.43805339,5.33181313 C3.14506118,5.38318131 2.92234705,5.63870968 2.92234705,5.94641824 C2.92234705,6.29115684 3.20181313,6.57061179 3.5465406,6.57061179 C3.8912792,6.57061179 4.17073415,6.29113459 4.17073415,5.94641824 C4.17073415,5.71123471 4.04062291,5.5065406 3.84852058,5.40011123 L4.00034483,4.48918799 C4.29669633,4.47863181 4.5614683,4.34416018 4.74440489,4.13596218 L6.26149055,5.00285873 C6.2548221,5.03957399 6.251442,5.07681091 6.25139043,5.11412681 C6.25139043,5.45886541 6.53085651,5.73832036 6.87558398,5.73832036 C7.22032258,5.73832036 7.49977753,5.45885428 7.49977753,5.11412681 C7.49979978,4.76941046 7.22034483,4.48994438 6.87560623,4.48994438 L6.87561735,4.48995551 Z" id="Path"></path>
        </g>
    </g>
</svg>