<?xml version="1.0" encoding="UTF-8"?>
<svg width="16px" height="16px" viewBox="0 0 16 16" version="1.1" xmlns="http://www.w3.org/2000/svg" xmlns:xlink="http://www.w3.org/1999/xlink">
    <!-- Generator: Sketch 50.2 (55047) - http://www.bohemiancoding.com/sketch -->
    <title>6.icon_return</title>
    <desc>Created with Sketch.</desc>
    <defs></defs>
    <g id="6.icon_return" stroke="none" stroke-width="1" fill="none" fill-rule="evenodd">
        <path d="M8,15.9969524 C3.58483117,15.9969524 0.00304761905,12.4151688 0.00304761905,8 C0.00304761905,3.58483117 3.58483117,0.00304761905 8,0.00304761905 C12.4151688,0.00304761905 15.9969524,3.58483117 15.9969524,8 C15.9969524,12.4151688 12.4151688,15.9969524 8,15.9969524 Z M8,1.00488312 C4.13451082,1.00488312 1.00488312,4.13451082 1.00488312,8 C1.00488312,11.8654892 4.13451082,14.9951169 8,14.9951169 C11.8654892,14.9951169 14.9951169,11.8654892 14.9951169,8 C14.9951169,4.13451082 11.8654892,1.00488312 8,1.00488312 Z M11.5019913,8.49648485 L6.20910823,8.49648485 L8.26597403,10.5533506 C8.46102165,10.7483983 8.46102165,11.0675671 8.26597403,11.2626147 C8.07092641,11.4576623 7.75175758,11.4576623 7.55670996,11.2626147 L4.72851948,8.43442424 C4.60439827,8.31030303 4.56893506,8.15071861 4.59553247,7.9911342 C4.56893506,7.84041558 4.60439827,7.67196537 4.72851948,7.54784416 L7.55670996,4.71965368 C7.75175758,4.52460606 8.07092641,4.52460606 8.26597403,4.71965368 C8.46102165,4.9147013 8.46102165,5.23387013 8.26597403,5.42891775 L6.20910823,7.48578355 L11.5019913,7.48578355 C11.7768312,7.48578355 11.9984762,7.70742857 11.9984762,7.9822684 C11.9984762,8.27483983 11.7768312,8.49648485 11.5019913,8.49648485 Z" fill="#24272B" fill-rule="nonzero"></path>
    </g>
</svg>