<?xml version="1.0" encoding="UTF-8"?>
<svg width="105px" height="24px" viewBox="0 0 105 24" version="1.1" xmlns="http://www.w3.org/2000/svg" xmlns:xlink="http://www.w3.org/1999/xlink">
    <!-- Generator: Sketch 52.1 (67048) - http://www.bohemiancoding.com/sketch -->
    <title>Group</title>
    <desc>Created with Sketch.</desc>
    <defs>
        <polygon id="path-1" points="8.05369128e-05 -1.42108547e-14 20.9915436 -1.42108547e-14 20.9915436 23.9968714 8.05369128e-05 23.9968714"></polygon>
    </defs>
    <g id="Symbols" stroke="none" stroke-width="1" fill="none" fill-rule="evenodd">
        <g id="侧面-copy" transform="translate(-21.000000, -18.000000)">
            <g id="侧面" transform="translate(-1.000000, 0.000000)">
                <g id="标头" transform="translate(1.000000, 0.000000)">
                    <g id="logo-侧面" transform="translate(20.000000, 18.000000)">
                        <g id="Group">
                            <path d="M35.0965759,6.03703704 C37.7166467,6.03703704 39.6188898,7.37037037 40.067532,9.62962963 L37.1603303,10.2407407 C36.944982,9.07407407 36.0118061,8.5 35.0606846,8.5 C34.0736716,8.5 33.4455725,9.05555556 33.4455725,9.75925926 C33.4455725,10.2592593 33.6609207,10.6296296 34.4146397,10.7962963 L36.9090906,11.3703704 C38.9907906,11.8518519 40.2110976,13.0185185 40.2110976,14.9814815 C40.2110976,17.6296296 37.9319949,19 35.2580871,19 C32.548288,19 30.3230224,17.6666667 30,15.2407407 L33.0507673,14.6296296 C33.355844,15.9074074 34.2172371,16.462963 35.4195984,16.462963 C36.5322311,16.462963 37.1962217,15.9444444 37.1962217,15.1851852 C37.1962217,14.6296296 36.944982,14.2777778 36.0835889,14.0925926 L33.5711923,13.537037 C31.8484061,13.1296296 30.3409681,12.2037037 30.3409681,9.94444444 C30.3409681,7.53703704 32.2791026,6.03703704 35.0965759,6.03703704 Z M51.7441948,9.42592593 L51.7441948,18.7222222 L48.8728844,18.7222222 L48.8728844,17.9814815 C48.1730025,18.6296296 47.2398266,19 46.0733568,19 C43.68658,19 41.6766628,17.0185185 41.6766628,14.0740741 C41.6766628,11.1481481 43.68658,9.14814815 46.0733568,9.14814815 C47.2398266,9.14814815 48.1730025,9.51851852 48.8728844,10.1666667 L48.8728844,9.42592593 L51.7441948,9.42592593 Z M46.6655646,16.4814815 C47.8320344,16.4814815 48.8728844,15.5185185 48.8728844,14.0740741 C48.8728844,12.6481481 47.8320344,11.6666667 46.6655646,11.6666667 C45.4093663,11.6666667 44.4941361,12.6481481 44.4941361,14.0740741 C44.4941361,15.5185185 45.4093663,16.4814815 46.6655646,16.4814815 Z M65.7896887,9.14814815 C67.7098775,9.14814815 69.2352611,10.6481481 69.2352611,12.9074074 L69.2352611,18.7222222 L66.3818964,18.7222222 L66.3818964,13.537037 C66.3818964,12.4814815 65.7179059,11.8148148 64.8744585,11.8148148 C63.8156628,11.8148148 63.1157809,12.6111111 63.1157809,14.1666667 L63.1157809,18.7222222 L60.2444705,18.7222222 L60.2444705,13.537037 C60.2444705,12.4814815 59.5804799,11.8148148 58.7190868,11.8148148 C57.6782368,11.8148148 56.9963006,12.6111111 56.9963006,14.1666667 L56.9963006,18.7222222 L54.1249902,18.7222222 L54.1249902,9.42592593 L56.9963006,9.42592593 L56.9963006,10.2777778 C57.6064541,9.57407407 58.4857929,9.14814815 59.6522627,9.14814815 C60.908461,9.14814815 61.9852024,9.7037037 62.5953559,10.7222222 C63.3131835,9.75925926 64.3899248,9.14814815 65.7896887,9.14814815 Z M80.4273903,9.42592593 L80.4273903,18.7222222 L77.5560799,18.7222222 L77.5560799,17.8333333 C76.8741437,18.5740741 75.9230221,19 74.7924436,19 C72.6927979,19 71.2930341,17.462963 71.2930341,15.1296296 L71.2930341,9.42592593 L74.1463988,9.42592593 L74.1463988,14.5 C74.1463988,15.5925926 74.7744979,16.3333333 75.6897281,16.3333333 C76.8203066,16.3333333 77.5560799,15.537037 77.5560799,13.7407407 L77.5560799,9.42592593 L80.4273903,9.42592593 Z M88.7841004,9.2962963 C89.0353401,9.2962963 89.214797,9.31481481 89.4301452,9.37037037 L89.3045254,12.3333333 L88.7841004,12.3333333 C86.7741831,12.3333333 85.6794961,13.4074074 85.6794961,15.8148148 L85.6794961,18.7222222 L82.8081857,18.7222222 L82.8081857,9.42592593 L85.6794961,9.42592593 L85.6794961,11.2037037 C86.3255409,10.0925926 87.3125538,9.2962963 88.7841004,9.2962963 Z M100.371035,9.42592593 L100.371035,18.7222222 L97.4997243,18.7222222 L97.4997243,17.9814815 C96.7998424,18.6296296 95.8666666,19 94.7001967,19 C92.31342,19 90.3035027,17.0185185 90.3035027,14.0740741 C90.3035027,11.1481481 92.31342,9.14814815 94.7001967,9.14814815 C95.8666666,9.14814815 96.7998424,9.51851852 97.4997243,10.1666667 L97.4997243,9.42592593 L100.371035,9.42592593 Z M95.2924045,16.4814815 C96.4588743,16.4814815 97.4997243,15.5185185 97.4997243,14.0740741 C97.4997243,12.6481481 96.4588743,11.6666667 95.2924045,11.6666667 C94.0362062,11.6666667 93.120976,12.6481481 93.120976,14.0740741 C93.120976,15.5185185 94.0362062,16.4814815 95.2924045,16.4814815 Z M104.331051,5 C105.300118,5 106,5.77777778 106,6.68518519 C106,7.62962963 105.300118,8.33333333 104.331051,8.33333333 C103.361984,8.33333333 102.680047,7.62962963 102.680047,6.68518519 C102.680047,5.77777778 103.361984,5 104.331051,5 Z M105.766706,18.7222222 L102.895396,18.7222222 L102.895396,9.42592593 L105.766706,9.42592593 L105.766706,18.7222222 Z" id="Samurai" fill="#1D2337"></path>
                            <g id="logo白">
                                <g id="Group-3" transform="translate(1.500000, 0.000000)">
                                    <mask id="mask-2" fill="white">
                                        <use xlink:href="#path-1"></use>
                                    </mask>
                                    <g id="Clip-2"></g>
                                    <path d="M18.3049128,8.29992453 L18.3049128,16.650319 L11.230953,20.8256192 L11.230953,23.9968714 L19.8922953,18.8848302 C20.5706174,18.4842813 20.9916242,17.7391698 20.9916242,16.9384837 L20.9916242,6.71419554 L18.3049128,8.29992453 Z M2.6865906,8.29992453 L8.05369128e-05,6.71419554 L8.05369128e-05,16.9384837 C8.05369128e-05,17.7391698 0.420885906,18.4842813 1.09920805,18.8848302 L9.76034899,23.9968714 L9.76034899,20.8256192 L2.6865906,16.650319 L2.6865906,8.29992453 Z M10.4958523,2.82273756 L17.5698121,6.99803774 L20.2561208,5.41230875 L11.5949799,0.300267581 C10.9166577,-0.100281304 10.0748456,-0.100281304 9.39652349,0.300267581 L0.735181208,5.41230875 L3.42189262,6.99803774 L10.4958523,2.82273756 Z" id="Fill-1" fill="#1D2337" mask="url(#mask-2)"></path>
                                    <path d="M13.4128993,6.27577358 L10.4958523,7.99755746 L7.57820134,6.27577358 L4.89189262,7.86129674 L9.39672483,10.5202333 C10.075047,10.9203705 10.9168591,10.9203705 11.5949799,10.5202333 L16.0996107,7.86150257 L13.4128993,6.27577358 Z" id="Path" fill="#FCB811" mask="url(#mask-2)"></path>
                                    <path d="M11.230953,19.0902504 L13.9174631,17.5047273 L13.9174631,14.0609537 L16.8347114,12.3391698 L16.8347114,9.16771184 L12.3300805,11.8264425 C11.6517584,12.2267856 11.230953,12.9718971 11.230953,13.772789 L11.230953,19.0902504 Z" id="Path" fill="#00BEDE" mask="url(#mask-2)"></path>
                                    <path d="M4.15679195,12.3391698 L7.07404027,14.0609537 L7.07404027,17.5047273 L9.76034899,19.0902504 L9.76034899,13.772789 C9.76034899,12.9718971 9.33974497,12.2267856 8.66122148,11.8264425 L4.15679195,9.16771184 L4.15679195,12.3391698 Z" id="Path" fill="#EC0A6E" mask="url(#mask-2)"></path>
                                </g>
                            </g>
                        </g>
                    </g>
                </g>
            </g>
        </g>
    </g>
</svg>