<?xml version="1.0" encoding="UTF-8"?>
<svg width="15px" height="15px" viewBox="0 0 15 15" version="1.1" xmlns="http://www.w3.org/2000/svg" xmlns:xlink="http://www.w3.org/1999/xlink">
    <!-- Generator: Sketch 50.2 (55047) - http://www.bohemiancoding.com/sketch -->
    <title>5.icon_positioning</title>
    <desc>Created with Sketch.</desc>
    <defs></defs>
    <g id="5.icon_positioning" stroke="none" stroke-width="1" fill="none" fill-rule="evenodd">
        <path d="M7.5,1 C4.46496445,1 2.00460071,3.41035742 2.00460071,6.38505957 C2.00460071,7.87164258 2.62007938,9.21752344 3.61396327,10.1925234 L7.5,14 L11.3860237,10.1925234 C12.4191698,9.18119308 12.9980037,7.81178667 12.9953993,6.38505957 C12.9953993,3.41035742 10.5350225,1 7.5,1 Z M7.5,8.77705957 C6.85010794,8.77544261 6.22751703,8.52230847 5.76929925,8.07338811 C5.31108146,7.62446776 5.05480483,7.01656696 5.05689218,6.38352344 C5.05501627,5.75068424 5.31141117,5.14306099 5.76962848,4.69442922 C6.22784578,4.24579745 6.85031784,3.99293891 7.5,3.99152344 C8.1498898,3.99314376 8.77247736,4.24627938 9.23069233,4.69519937 C9.6889073,5.14411936 9.94518214,5.75201825 9.94309479,6.38505957 C9.94517861,7.01802834 9.68887738,7.6258455 9.23064038,8.07464182 C8.77240338,8.52343814 8.14981581,8.77640277 7.5,8.77782129 L7.5,8.77705957 Z" stroke="#FFBA00" fill-rule="nonzero"></path>
    </g>
</svg>