<?xml version="1.0" encoding="UTF-8"?>
<svg width="16px" height="16px" viewBox="0 0 16 16" version="1.1" xmlns="http://www.w3.org/2000/svg" xmlns:xlink="http://www.w3.org/1999/xlink">
    <!-- Generator: Sketch 52.1 (67048) - http://www.bohemiancoding.com/sketch -->
    <title>61.icon_vote3</title>
    <desc>Created with Sketch.</desc>
    <g id="61.icon_vote3" stroke="none" stroke-width="1" fill="none" fill-rule="evenodd">
        <g id="投票" fill="#9EABBE" fill-rule="nonzero">
            <path d="M14.4808005,2.69063776 L12.3140248,2.69063776 L12.3140248,1.18518406 C12.3140248,1.11770913 12.306082,1.05963803 12.2911935,1.00945193 C12.2921573,0.997398217 12.292689,0.984827456 12.292689,0.971513436 C12.292689,0.569539913 11.8128339,0.0154246312 11.3994453,0.0154246312 L4.83441305,0.0154246312 C4.00763586,0.0154246312 3.51797692,0.653140323 3.51797692,1.45708737 L3.51797692,2.69070239 L1.52703844,2.69070239 C0.700261258,2.69070239 0.0112027262,3.19918807 0.0112027262,4.0031028 L0.0112027262,14.5891704 C0.0112027262,15.3931174 0.700294491,15.9985498 1.52703844,15.9985498 L14.4808005,15.9985498 C15.3075776,15.9985498 15.9966694,15.3931174 15.9966694,14.5891704 L15.9966694,4.00303817 C15.9966694,3.19909112 15.3075776,2.69063776 14.4808005,2.69063776 Z M4.69656146,1.32776041 C4.69656146,1.19374769 4.83441305,1.05983192 4.97226463,1.05983192 L11.0356407,1.05983192 L11.0356407,6.54902129 L4.69656146,6.54902129 L4.69656146,1.32776041 Z M14.8228372,14.6537369 C14.8228705,14.7877819 14.6851518,14.7877819 14.547267,14.7877819 L1.46057191,14.7877819 C1.32272032,14.7877819 1.18500167,14.6537369 1.18500167,14.6537369 L1.18500167,4.00303817 C1.18500167,3.8691224 1.32268709,3.8691224 1.46057191,3.8691224 L3.55606225,3.8691224 L3.55606225,6.58611957 L2.49166721,6.58611957 C2.17013537,6.60676923 1.94046027,6.75248019 1.94046027,7.15445371 C1.94046027,7.55642723 2.21613021,7.69522266 2.49166721,7.69522266 L13.240535,7.69522266 C13.6539236,7.69522266 13.9296267,7.52411165 13.9296267,7.12213813 C13.9296267,6.72016461 13.6539236,6.54902129 13.240535,6.54902129 L12.314058,6.54902129 L12.314058,3.8691224 L14.5473002,3.8691224 C14.6851518,3.8691224 14.8228705,4.00303817 14.8228705,4.00303817 L14.8228705,14.6537369 L14.8228372,14.6537369 Z" id="Shape"></path>
            <path d="M8.96856484,2.42736271 L7.59058071,4.04013646 L6.86825568,3.46701961 C6.59268544,3.33313616 6.14593065,3.26850499 6.00824523,3.53643348 C5.73254205,3.80449123 5.79900858,4.17414918 6.07471176,4.30806495 L7.72839906,5.61581191 L9.93316037,3.10214438 C10.2088635,2.83405431 10.1042452,2.46439637 9.82870822,2.33038365 C9.69085663,2.06245516 9.24423477,2.15940191 8.96856484,2.42736271 Z" id="Path"></path>
        </g>
    </g>
</svg>