<?xml version="1.0" encoding="UTF-8"?>
<svg width="16px" height="16px" viewBox="0 0 16 16" version="1.1" xmlns="http://www.w3.org/2000/svg" xmlns:xlink="http://www.w3.org/1999/xlink">
    <!-- Generator: Sketch 52.1 (67048) - http://www.bohemiancoding.com/sketch -->
    <title>61.icon_node2</title>
    <desc>Created with Sketch.</desc>
    <g id="61.icon_node2" stroke="none" stroke-width="1" fill="none" fill-rule="evenodd">
        <g id="工作节点数" fill="#525768" fill-rule="nonzero">
            <path d="M1.07401445,9.39636364 C1.24855991,9.36727273 1.36492355,9.28 1.48128719,9.19272727 C1.59765083,9.07636363 1.65583264,8.96 1.62674173,8.81454545 L1.62674173,8.69818181 C1.62674173,6.45818181 2.87765083,4.39272727 4.82674173,3.28727273 C4.97219628,3.2 5.03037809,3.08363638 5.08855991,2.96727273 C5.11765081,2.82181819 5.11765081,2.67636364 5.03037809,2.56 C4.94310536,2.41454545 4.85583264,2.32727273 4.71037809,2.29818181 C4.53583264,2.24 4.419469,2.26909091 4.27401445,2.35636364 C1.94674173,3.66545455 0.521287187,6.10909091 0.521287187,8.72727273 L0.521287187,8.96 C0.550378094,9.19272727 0.783105375,9.39636364 1.07401445,9.39636364 Z M10.819469,3.31636364 C12.7976508,4.42181819 14.0485599,6.48727273 14.0485599,8.72727273 L14.0485599,8.81454545 C14.019469,8.96 14.0485599,9.07636364 14.1358326,9.16363636 C14.2521963,9.30909091 14.3685599,9.39636362 14.5721963,9.39636364 L14.6303781,9.39636364 C14.8921963,9.39636364 15.1249235,9.19272728 15.1540145,8.90181819 L15.1540145,8.69818181 C15.1540145,6.08 13.7285599,3.63636362 11.4012872,2.35636364 C11.2558326,2.26909091 11.139469,2.26909091 10.9649235,2.29818181 C10.819469,2.32727272 10.7321963,2.44363636 10.6158326,2.56 C10.5285599,2.70545455 10.499469,2.85090909 10.5576508,2.96727273 C10.6158326,3.14181819 10.7031054,3.25818183 10.819469,3.31636364 Z M11.2558326,13.9345455 L11.1103781,13.9345455 L10.9649235,13.9927273 C9.04492355,15.0981818 6.51401445,15.0981818 4.59401445,13.9927273 L4.53583264,13.9636364 L4.36128719,13.9636364 C4.04128719,13.9636364 3.83765083,14.1963636 3.83765081,14.5163636 C3.83765081,14.72 3.92492355,14.8654545 4.099469,15.0109091 C5.20492355,15.6509091 6.48492355,16 7.82310536,16 C9.13219627,16 10.4412872,15.6509091 11.5467417,14.9818182 C11.8085599,14.7781818 11.8667417,14.6327273 11.8667417,14.4872727 C11.8085599,14.1963636 11.5758326,13.9345455 11.2558326,13.9345455 Z" id="Shape"></path>
            <path d="M15.619469,11.5781818 C15.5031054,11.0545455 15.1540145,10.5890909 14.6885599,10.3272727 C14.339469,10.0945455 13.9612872,10.0945455 13.699469,10.0945455 C13.1758326,10.0945455 12.7103781,10.2981818 12.3321963,10.6472727 L12.3031054,10.6763636 L10.6449235,9.71636364 L10.6449235,9.68727273 C10.7612872,9.33818183 10.819469,9.01818183 10.819469,8.72727273 C10.819469,7.33090909 9.83037809,6.13818183 8.43401445,5.84727273 L8.40492355,5.84727273 L8.40492355,3.89818181 L8.43401445,3.89818181 C9.27765081,3.66545455 9.859469,2.88 9.859469,1.97818181 C9.80128719,0.901818187 8.92855991,0 7.82310536,0 C6.71765081,0 5.84492355,0.901818187 5.84492355,2.00727273 C5.84492355,2.88 6.39765081,3.63636364 7.27037809,3.92727273 L7.299469,3.92727273 L7.299469,5.81818181 L7.24128719,5.81818181 C5.84492355,6.08 4.85583264,7.30181817 4.85583264,8.69818181 C4.85583264,9.04727272 4.91401445,9.36727272 5.03037809,9.65818181 L5.03037809,9.68727273 L3.37219627,10.6472727 L3.34310536,10.6181818 C2.96492355,10.2981818 2.44128717,10.0945455 1.97583264,10.0945455 C1.56855991,10.0945455 1.19037809,10.24 0.986741734,10.3272727 C0.521287187,10.56 0.201287187,10.9963636 0.0849235469,11.52 C-0.0314400938,12.0436364 -0.0314400938,12.5963636 0.230378094,13.0327273 C0.521287187,13.6727273 1.19037809,14.0509091 1.94674173,14.0509091 C2.41219628,14.0509091 2.76128719,13.8763636 2.93583264,13.8181818 C3.69219628,13.4109091 4.07037809,12.5381818 3.83765081,11.6363636 L3.83765081,11.6072727 L5.46674173,10.6763636 L5.49583264,10.7054545 C6.04855991,11.3454545 6.89219628,11.7236364 7.70674173,11.7236364 C8.579469,11.7236364 9.36492355,11.3745455 9.94674173,10.7054545 L9.97583264,10.6763636 L11.6049235,11.6072727 L11.6049235,11.6363636 C11.4303781,12.4509091 11.779469,13.2945455 12.5067417,13.7890909 C12.7976508,13.9927273 13.2631054,14.1090909 13.699469,14.1090909 C13.7867417,14.1090909 13.8740145,14.1090909 13.9321963,14.08 C14.5431054,13.9927273 15.0085599,13.7018182 15.3576508,13.1490909 C15.7358326,12.5090909 15.7358326,12.1018182 15.619469,11.5781818 Z M2.84855991,12.2763636 C2.79037809,12.5090909 2.61583264,12.6836364 2.41219627,12.8 C2.26674172,12.9163636 2.15037808,12.9454545 1.94674173,12.9454545 C1.62674173,12.9454545 1.30674173,12.7418182 1.16128719,12.48 C1.04492355,12.2763636 0.986741734,12.0436364 1.04492355,11.8109091 C1.10310536,11.5781818 1.24855991,11.4036364 1.48128719,11.2581818 C1.62674173,11.1709091 1.74310538,11.1127273 1.91765081,11.1127273 C2.23765081,11.1127273 2.55765081,11.3163636 2.70310536,11.5781818 C2.87765081,11.8109091 2.87765081,12.0727273 2.84855991,12.2763636 Z M6.89219627,2.00727273 C6.89219627,1.51272728 7.299469,1.10545455 7.79401445,1.10545455 C8.28855991,1.10545455 8.69583264,1.51272727 8.69583264,2.00727273 C8.69583264,2.50181819 8.28855991,2.90909092 7.79401445,2.90909091 C7.299469,2.90909089 6.89219627,2.47272727 6.89219627,2.00727273 Z M7.82310536,10.56 C6.80492355,10.56 5.93219627,9.74545455 5.93219627,8.69818181 C5.93219627,7.65090908 6.77583263,6.83636363 7.82310536,6.83636364 C8.84128717,6.83636364 9.71401445,7.65090909 9.71401445,8.69818181 C9.68492355,9.71636362 8.87037809,10.56 7.82310536,10.56 Z M14.4849235,12.48 C14.3103781,12.7709091 14.0485599,12.9163636 13.7576508,12.9163636 C13.5831054,12.9163636 13.379469,12.8872727 13.2340145,12.7709091 C13.0303781,12.6254545 12.8558326,12.4509091 12.7976508,12.1890909 C12.739469,11.9854545 12.7685599,11.7818182 12.9140145,11.6072727 C13.0885599,11.3163636 13.379469,11.1418182 13.6703781,11.1127273 L13.7576508,11.1127273 C13.9321963,11.1127273 14.1067417,11.1418182 14.2812872,11.3163636 C14.6303781,11.6072727 14.6885599,12.0436364 14.4849235,12.48 Z" id="Shape"></path>
        </g>
    </g>
</svg>