<?xml version="1.0" encoding="UTF-8"?>
<svg width="8px" height="8px" viewBox="0 0 8 8" version="1.1" xmlns="http://www.w3.org/2000/svg" xmlns:xlink="http://www.w3.org/1999/xlink">
    <!-- Generator: Sketch 52.2 (67145) - http://www.bohemiancoding.com/sketch -->
    <title>close</title>
    <desc>Created with Sketch.</desc>
    <g id="Page-1" stroke="none" stroke-width="1" fill="none" fill-rule="evenodd">
        <g id="7.钱包-普通钱包创建成功" transform="translate(-960.000000, -10.000000)" fill="#24272B" fill-rule="nonzero">
            <g id="最小/大/关闭" transform="translate(908.000000, 10.000000)">
                <g id="关闭" transform="translate(51.000000, 0.000000)">
                    <path d="M8.69204845,7.99251741 C8.61026249,7.99247744 8.53184095,7.96017952 8.47402966,7.90272637 L1.0472836,0.527124378 C0.926875141,0.407545113 0.926875141,0.213668817 1.0472836,0.0940895522 C1.16769205,-0.025489713 1.36291273,-0.025489713 1.48332118,0.0940895522 L8.91070848,7.47032836 C8.99783292,7.55828981 9.02345419,7.68951008 8.97574909,7.80343619 C8.92804398,7.9173623 8.81628655,7.99184656 8.69204845,7.99251741" id="Shape"></path>
                    <path d="M1.26530239,7.99251741 C1.14029432,7.99308384 1.02735826,7.91850575 0.979527573,7.80380407 C0.931696884,7.68910239 0.958473554,7.55706363 1.0472836,7.46969154 L8.47467089,0.0940895522 C8.59655188,-0.0160163682 8.78405074,-0.0115454809 8.90047036,0.104242688 C9.01688997,0.220030857 9.02111592,0.406244889 8.91006725,0.527124378 L1.48332118,7.90272637 C1.42554992,7.96023893 1.34710241,7.99254753 1.26530239,7.99251741" id="Shape"></path>
                </g>
            </g>
        </g>
    </g>
</svg>