<?xml version="1.0" encoding="UTF-8"?>
<svg width="24px" height="24px" viewBox="0 0 24 24" version="1.1" xmlns="http://www.w3.org/2000/svg" xmlns:xlink="http://www.w3.org/1999/xlink">
    <!-- Generator: Sketch 52.2 (67145) - http://www.bohemiancoding.com/sketch -->
    <title>63.icon_vote</title>
    <desc>Created with Sketch.</desc>
    <g id="63.icon_vote" stroke="none" stroke-width="1" fill="none" fill-rule="evenodd">
        <g fill="#18C2E9" fill-rule="nonzero" id="Shape">
            <path d="M17.293125,12.8927713 L22.0209375,8.16251392 L13.8630469,0 L3.10242188,10.7664888 L5.22773438,12.8927713 L0,12.8927713 L0,24 L24,24 L24,12.8927713 L17.293125,12.8927713 Z M13.8630469,1.45043091 L20.5713281,8.16251392 L11.2603125,17.4785718 L4.55203125,10.7664888 L13.8630469,1.45043091 Z M22.9750781,22.9749663 L1.02492188,22.9749663 L1.02492188,13.9185085 L6.25265625,13.9185085 L10.3485938,18.0167673 L5.50054688,18.0167673 L5.50054688,19.04227 L18.7361719,19.04227 L18.7361719,18.0167673 L12.1722656,18.0167673 L16.2682031,13.9185085 L22.9750781,13.9185085 L22.9750781,22.9749663 Z"></path>
            <polygon points="15.9356687 8.64287551 15.3628719 8 11.857178 11.9345977 10.0072593 9.858351 9.43427734 10.5012265 11.857178 13.2205566"></polygon>
        </g>
    </g>
</svg>