<?xml version="1.0" encoding="UTF-8"?>
<svg width="14px" height="14px" viewBox="0 0 14 14" version="1.1" xmlns="http://www.w3.org/2000/svg" xmlns:xlink="http://www.w3.org/1999/xlink">
    <!-- Generator: Sketch 52.1 (67048) - http://www.bohemiancoding.com/sketch -->
    <title>63.icon_Sand timer</title>
    <desc>Created with Sketch.</desc>
    <g id="63.icon_Sand-timer" stroke="none" stroke-width="1" fill="none" fill-rule="evenodd">
        <g transform="translate(2.000000, 1.000000)" fill="#0077FF">
            <path d="M9.59235276,11.142795 L9.15562039,11.142795 L9.15562039,9.84546182 C9.15562039,8.1567281 8.20541517,6.69661722 6.82540075,6.0000067 C8.20542818,5.30338278 9.15562039,3.8432719 9.15562039,2.15455157 L9.15562039,0.857218438 L9.59235276,0.857218438 C9.81749897,0.857218438 10,0.665322054 10,0.428609219 C10,0.191896384 9.81749897,0 9.59235276,0 L0.407660254,0 C0.182527062,0 1.30134794e-05,0.191896384 1.30134794e-05,0.428609219 C1.30134794e-05,0.665322054 0.182527062,0.857218438 0.407660254,0.857218438 L0.837365343,0.857218438 L0.837365343,2.15455157 C0.837365343,3.8432719 1.78755755,5.30338278 3.16757197,6.0000067 C1.78754454,6.69661722 0.83735233,8.15671471 0.83735233,9.84544843 L0.83735233,11.1427816 L0.407647241,11.1427816 C0.182514048,11.1427816 0,11.3346646 0,11.5713908 C0,11.808117 0.182514048,12 0.407647241,12 L9.59233975,12 C9.81748595,12 9.99998699,11.808117 9.99998699,11.5713908 C9.99998699,11.3346646 9.81749897,11.142795 9.59235276,11.142795 Z M1.67038418,2.12801798 L1.67038418,0.857218438 L8.34689772,0.857218438 L8.34689772,2.12801798 C8.34689772,4.02560494 6.85229961,5.56388342 5.00864095,5.56388342 C3.16496928,5.56388342 1.67038418,4.02560494 1.67038418,2.12801798 Z M8.34689772,11.142795 L1.67038418,11.142795 L1.67038418,9.87198202 C1.67038418,7.97439506 3.16496928,6.43612997 5.00864095,6.43612997 C6.85229961,6.43612997 8.34689772,7.97440846 8.34689772,9.87198202 L8.34689772,11.142795 Z" id="Shape" fill-rule="nonzero"></path>
            <path d="M5.000817,3.70156933 C5.000817,3.44670954 4.79763872,3.24009879 4.54701299,3.24009879 C3.53127745,3.24009879 2.7356222,2.43098739 2.7356222,1.3980921 C2.7356222,1.14323231 2.53244392,0.936607152 2.28181818,0.936607152 C2.03119244,0.936607152 1.828,1.14321791 1.828,1.3980921 C1.828,2.94852997 3.02233294,4.16305428 4.54701299,4.16305428 C4.79763872,4.16305428 5.000817,3.95642912 5.000817,3.70156933 Z" id="Path"></path>
        </g>
    </g>
</svg>