<?xml version="1.0" encoding="UTF-8"?>
<svg width="16px" height="16px" viewBox="0 0 16 16" version="1.1" xmlns="http://www.w3.org/2000/svg" xmlns:xlink="http://www.w3.org/1999/xlink">
    <!-- Generator: Sketch 52.1 (67048) - http://www.bohemiancoding.com/sketch -->
    <title>73.icon_join 3</title>
    <desc>Created with Sketch.</desc>
    <g id="73.icon_join-3" stroke="none" stroke-width="1" fill="none" fill-rule="evenodd">
        <g id="8.icon_esc" transform="translate(8.000000, 8.000000) scale(-1, 1) translate(-8.000000, -8.000000) " fill="#0077FF">
            <path d="M13.376,2.08758621 C11.9017931,0.745793103 10.0038621,0.0131034483 8.00882759,0.0131034483 L8,0.0131034483 C3.59503448,0.0131034483 0.0110344828,3.59710345 0.0110344828,8.00206897 C0.0110344828,12.4070345 3.59503448,15.9910345 8,15.9910345 C9.9862069,15.9910345 11.8841379,15.2583448 13.3583448,13.9253793 L13.3671724,13.9165517 C13.5878621,13.7135172 13.5966897,13.3692414 13.4024828,13.1485517 C13.3053793,13.0426207 13.1729655,12.9808276 13.0228966,12.972 C12.8816552,12.9631724 12.7404138,13.0161379 12.6344828,13.1132414 C11.3633103,14.2608276 9.72137931,14.8964138 8.00882759,14.8964138 C4.20413793,14.8964138 1.10565517,11.797931 1.10565517,7.99324138 C1.10565517,4.18855172 4.19531034,1.09889655 8,1.09889655 L8.00882759,1.09889655 C9.7302069,1.09889655 11.3721379,1.73448276 12.6433103,2.89089655 C12.8551724,3.08510345 13.1729655,3.07627586 13.376,2.89089655 L13.376,2.86441379 L13.4289655,2.83793103 C13.6055172,2.61724138 13.5878621,2.2817931 13.376,2.08758621 Z" id="Path"></path>
            <path d="M15.830069,7.49006897 L13.3230345,4.90358621 C13.1111724,4.69172414 12.7668966,4.69172414 12.5550345,4.90358621 C12.3431724,5.11544828 12.3431724,5.45972414 12.5550345,5.67158621 L14.249931,7.41062069 L5.28993103,7.41062069 C4.9897931,7.41062069 4.74262069,7.6577931 4.74262069,7.95793103 C4.74262069,8.25806897 4.9897931,8.50524138 5.28993103,8.50524138 L14.2411034,8.50524138 L12.5462069,10.2442759 C12.3343448,10.4561379 12.3343448,10.8004138 12.5462069,11.0122759 C12.758069,11.2241379 13.1023448,11.2241379 13.3142069,11.0122759 L15.8212414,8.43462069 C15.936,8.31986207 15.9889655,8.1697931 15.9801379,8.01089655 L15.9801379,7.99324138 L15.9801379,7.90496552 C15.9977931,7.75489655 15.9448276,7.60482759 15.830069,7.49006897 Z" id="Path"></path>
        </g>
    </g>
</svg>