<?xml version="1.0" encoding="UTF-8"?>
<svg width="16px" height="16px" viewBox="0 0 16 16" version="1.1" xmlns="http://www.w3.org/2000/svg" xmlns:xlink="http://www.w3.org/1999/xlink">
    <!-- Generator: Sketch 52.2 (67145) - http://www.bohemiancoding.com/sketch -->
    <title>8.icon_reduce 2</title>
    <desc>Created with Sketch.</desc>
    <g id="8.icon_reduce-2" stroke="none" stroke-width="1" fill="none" fill-rule="evenodd">
        <g id="8.icon_reduce" fill="#9EABBE">
            <path d="M14.8571429,8 C14.8571429,4.21290457 11.7870954,1.14285714 8,1.14285714 C4.21290457,1.14285714 1.14285714,4.21290457 1.14285714,8 C1.14285714,11.7870954 4.21290457,14.8571429 8,14.8571429 C11.7870954,14.8571429 14.8571429,11.7870954 14.8571429,8 Z M16,8 C16,12.418278 12.418278,16 8,16 C3.581722,16 5.07530526e-16,12.418278 0,8 C-5.07530526e-16,3.581722 3.581722,1.01506105e-15 8,0 C12.418278,1.26882631e-15 16,3.581722 16,8 Z" id="Shape" fill-rule="nonzero"></path>
            <path d="M4.63238095,8.53333333 C4.31258178,8.53333333 4.05333333,8.29455187 4.05333333,8 C4.05333333,7.70544813 4.31258178,7.46666667 4.63238095,7.46666667 L11.5809524,7.46666667 C11.9007516,7.46666667 12.16,7.70544813 12.16,8 C12.16,8.29455187 11.9007516,8.53333333 11.5809524,8.53333333 L4.63238095,8.53333333 Z" id="Path"></path>
        </g>
    </g>
</svg>