<?xml version="1.0" encoding="UTF-8"?>
<svg width="12px" height="12px" viewBox="0 0 12 12" version="1.1" xmlns="http://www.w3.org/2000/svg" xmlns:xlink="http://www.w3.org/1999/xlink">
    <!-- Generator: Sketch 52.2 (67145) - http://www.bohemiancoding.com/sketch -->
    <title>1.icon_query</title>
    <desc>Created with Sketch.</desc>
    <g id="1.icon_query" stroke="none" stroke-width="1" fill="none" fill-rule="evenodd">
        <g transform="translate(6.000000, 6.000000) scale(-1, 1) translate(-6.000000, -6.000000) " fill="#9EABBE" fill-rule="nonzero" id="Shape">
            <path d="M11.707792,10.2930777 L8.8369892,7.42153487 C8.80358184,7.3883029 8.76666077,7.36292649 8.73140195,7.33527116 C9.2163492,6.59103045 9.49950087,5.7045451 9.49950087,4.74966542 C9.49950087,2.1263101 7.37372804,0 4.74975044,0 C2.12724589,0 0,2.1263101 0,4.74966542 C0,7.3733961 2.12724589,9.4992236 4.74975044,9.4992236 C5.70427917,9.4992236 6.59179047,9.21531075 7.33718537,8.73027675 C7.3643356,8.76636408 7.38924246,8.80225032 7.42209573,8.83520078 L10.2932635,11.7071055 C10.4893019,11.9025428 10.7445871,12 11.0002507,12 C11.2561035,12 11.5115779,11.9025696 11.7074271,11.7075747 C12.0974634,11.3166332 12.0974634,10.6837109 11.707792,10.2930777 M4.74975044,7.99941463 C2.95826741,7.99941463 1.49999303,6.54135006 1.49999303,4.74966542 C1.49999303,2.9582489 2.95828092,1.49982238 4.74975044,1.49982238 C6.54121995,1.49982238 7.99949433,2.9582489 7.99949433,4.74966542 C7.99949433,6.54133665 6.54121995,7.99941463 4.74975044,7.99941463"></path>
        </g>
    </g>
</svg>