<?xml version="1.0" encoding="UTF-8"?>
<svg width="24px" height="24px" viewBox="0 0 24 24" version="1.1" xmlns="http://www.w3.org/2000/svg" xmlns:xlink="http://www.w3.org/1999/xlink">
    <!-- Generator: Sketch 52.2 (67145) - http://www.bohemiancoding.com/sketch -->
    <title>63.icon_vote copy 4</title>
    <desc>Created with Sketch.</desc>
    <g id="63.icon_vote-copy-4" stroke="none" stroke-width="1" fill="none" fill-rule="evenodd">
        <g id="详情-(1)" transform="translate(2.000000, 1.000000)" fill="#18C2E9" fill-rule="nonzero">
            <path d="M18.6152853,0 L1.39246502,0 C0.631512939,-4.64993204e-17 0.0146393972,0.615608469 0.0146393972,1.375 L0.0146393972,20.625 C0.0146393972,21.3843915 0.631512939,22 1.39246502,22 L18.6152853,22 C19.3762373,22 19.9931109,21.3843915 19.9931109,20.625 L19.9931109,1.375 C19.9931109,0.615608469 19.3762373,4.64993204e-17 18.6152853,0 Z M18.6152853,20.625 L1.39246502,20.625 L1.39246502,1.375 L18.6152853,1.375 L18.6152853,20.625 Z" id="Shape"></path>
            <path d="M4.83702906,6.545 L14.998493,6.545 C15.378969,6.545 15.6874058,6.23719577 15.6874058,5.8575 C15.6874058,5.47780423 15.378969,5.17 14.998493,5.17 L4.83702906,5.17 C4.45655302,5.17 4.14811625,5.47780423 4.14811625,5.8575 C4.14811625,6.23719577 4.45655302,6.545 4.83702906,6.545 Z M4.83702906,11.59125 L13.6344456,11.59125 C14.0149217,11.59125 14.3233584,11.2834458 14.3233584,10.90375 C14.3233584,10.5240542 14.0149217,10.21625 13.6344456,10.21625 L4.83702906,10.21625 C4.45655302,10.21625 4.14811625,10.5240542 4.14811625,10.90375 C4.14811625,11.2834458 4.45655302,11.59125 4.83702906,11.59125 Z M4.83702906,15.85375 L12.9455328,15.85375 C13.3260089,15.85375 13.6344456,15.5459458 13.6344456,15.16625 C13.6344456,14.7865542 13.3260089,14.47875 12.9455328,14.47875 L4.83702906,14.47875 C4.45655302,14.47875 4.14811625,14.7865542 4.14811625,15.16625 C4.14811625,15.5459458 4.45655302,15.85375 4.83702906,15.85375 Z" id="Shape"></path>
        </g>
    </g>
</svg>