<?xml version="1.0" encoding="UTF-8"?>
<svg width="14px" height="14px" viewBox="0 0 14 14" version="1.1" xmlns="http://www.w3.org/2000/svg" xmlns:xlink="http://www.w3.org/1999/xlink">
    <!-- Generator: Sketch 52.2 (67145) - http://www.bohemiancoding.com/sketch -->
    <title>63.icon_tickets</title>
    <desc>Created with Sketch.</desc>
    <g id="63.icon_tickets" stroke="none" stroke-width="1" fill="none" fill-rule="evenodd">
        <path d="M12.1428571,3.14649833 L12.1428571,2.45025276 C12.1428571,2.12209891 11.8874286,1.85714286 11.5714286,1.85714286 L2.42857143,1.85714286 C2.114,1.85714286 1.85714286,2.12358241 1.85714286,2.45054945 L1.85714286,3.3262043 C2.86623409,3.59725804 3.57110798,4.63189501 3.57110798,5.71428571 C3.57110798,6.79667642 2.86623409,7.88013789 1.85714286,8.15119164 L1.85714286,8.97831869 C1.85714286,9.30647252 2.11257143,9.57142857 2.42857143,9.57142857 L11.5714286,9.57142857 C11.886,9.57142857 12.1428571,9.30498902 12.1428571,8.97802197 L12.1428571,8.15119164 C11.1571429,7.88771911 10.4285714,6.8203956 10.4285714,5.71428572 C10.4285714,4.60817583 11.1571429,3.40997085 12.1428571,3.14649833 Z M13,7.46153846 L13,8.99999999 C13,9.68 12.4612,10.2307692 11.8,10.2307692 L2.20000001,10.2307692 C1.537,10.2307692 1.00000001,9.68092307 1,8.99999999 L1,7.46153846 C1.99411255,7.46153846 2.8,6.63498723 2.8,5.61538462 C2.8,4.595782 1.99411255,3.76923077 1,3.76923077 L1,2.23076923 C1,1.55076922 1.5388,1 2.20000001,1 L11.8,1 C12.463,1 13,1.54984616 13,2.23076923 L13,3.76923077 C12.3569219,3.76923076 11.7626933,4.12110569 11.4411542,4.69230768 C11.1196152,5.26350967 11.1196152,5.96725956 11.4411542,6.53846155 C11.7626933,7.10966354 12.3569219,7.46153848 13,7.46153846 Z M2.8,11.7692308 L2.8,11.1538462 L11.2,11.1538462 L11.2,11.7692308 L2.8,11.7692308 Z M4.00000001,13 L4.00000001,12.3846154 L9.99999999,12.3846154 L9.99999999,13 L4.00000001,13 Z M7.1704,6.94861538 L8.1718,7.38953846 C8.2663,7.43138461 8.2597,7.4363077 8.2501,7.33076923 L8.1511,6.21692307 L8.9311,5.30123076 L7.77609999,5.032 L7.1701,3.9876923 L6.56410001,5.032 L5.4091,5.30123076 L6.1894,6.21661538 L6.0823,7.4276923 L7.1704,6.94861538 Z M6.058,8.10769231 C5.7373,8.24892308 5.4271,8.01723077 5.4586,7.66123076 L5.5684,6.42338461 L4.77130001,5.488 C4.54180001,5.21907693 4.6618,4.84492307 5.0002,4.76553846 L6.1801,4.49046153 L6.7996,3.42276922 C6.97809999,3.11507692 7.3621,3.11538461 7.5406,3.42276922 L8.1598,4.49046153 L9.3397,4.76553846 C9.67960001,4.84492307 9.7978,5.21907691 9.5686,5.48830769 L8.77149999,6.42338461 L8.8474,7.27476922 C8.8981,7.84461537 8.44750001,8.18092307 7.9348,7.95507691 L7.1698,7.61846154 L6.058,8.10769231 Z" fill="#18C2E9" fill-rule="nonzero"></path>
    </g>
</svg>