<?xml version="1.0" encoding="UTF-8"?>
<svg width="14px" height="14px" viewBox="0 0 14 14" version="1.1" xmlns="http://www.w3.org/2000/svg" xmlns:xlink="http://www.w3.org/1999/xlink">
    <!-- Generator: Sketch 52.1 (67048) - http://www.bohemiancoding.com/sketch -->
    <title>63.icon_fare</title>
    <desc>Created with Sketch.</desc>
    <g id="63.icon_fare" stroke="none" stroke-width="1" fill="none" fill-rule="evenodd">
        <g transform="translate(2.000000, 1.000000)" fill="#0077FF" fill-rule="nonzero" id="Shape">
            <path d="M5,12 L3.25825472,11.00625 L1.64976415,11.9238281 L1.51650943,11.9238281 C1.3125,11.9238281 1.11320755,11.8839844 0.925707547,11.8054687 C0.745283019,11.7292969 0.58254717,11.6214844 0.444575472,11.4820312 C0.306603774,11.3449219 0.196933962,11.1832031 0.120283019,11.0039062 C0.0412735849,10.8175781 0.00117924528,10.6207031 0.00117924528,10.4167969 L0.00117924528,1.50585938 C0.00117924528,1.30195312 0.0412735849,1.10507812 0.120283019,0.91875 C0.196933962,0.739453125 0.306603774,0.577734375 0.445754717,0.440625 C0.583726415,0.30234375 0.746462264,0.19453125 0.926886792,0.118359375 C1.1120283,0.03984375 1.31132075,0 1.51533019,0 L8.48349057,0 C8.6875,0 8.88679245,0.03984375 9.07429245,0.118359375 C9.25471698,0.19453125 9.41745283,0.30234375 9.55542453,0.441796875 C9.69339623,0.57890625 9.80306604,0.740625 9.87971698,0.919921875 C9.95872642,1.10625 9.99882075,1.303125 9.99882075,1.50703125 L9.99882075,10.4179688 C9.99882075,10.621875 9.95872642,10.81875 9.87971698,11.0050781 C9.80306604,11.184375 9.69339623,11.3460938 9.55424528,11.4832031 C9.41627358,11.6214844 9.25353774,11.7292969 9.07311321,11.8054687 C8.88679245,11.8839844 8.6875,11.9238281 8.48349057,11.9238281 L8.35023585,11.9238281 L6.74174528,11.00625 L5,12 Z M6.74174528,9.86015625 L8.59551887,10.9183594 C8.625,10.9113281 8.65448113,10.9019531 8.68396226,10.8902344 C8.74528302,10.8644531 8.80070755,10.8269531 8.84787736,10.7800781 C8.89622642,10.7320312 8.93278302,10.678125 8.95872642,10.6160156 C8.98584906,10.5539062 8.99882075,10.4859375 8.99882075,10.4167969 L8.99882075,1.50585937 C8.99882075,1.43671875 8.98584906,1.36875 8.95872642,1.30664062 C8.93278302,1.24570312 8.89504717,1.190625 8.84787736,1.14375 C8.7995283,1.09570312 8.74528302,1.059375 8.68396226,1.03359375 C8.62028302,1.00664062 8.55306604,0.99375 8.48349057,0.99375 L1.51533019,0.99375 C1.44575472,0.99375 1.37853774,1.00664062 1.31485849,1.03359375 C1.25353774,1.059375 1.19811321,1.096875 1.1509434,1.14375 C1.10259434,1.19179687 1.06603774,1.24570312 1.04009434,1.3078125 C1.0129717,1.36992187 1,1.43789062 1,1.50703125 L1,10.4179687 C1,10.4871094 1.0129717,10.5550781 1.04009434,10.6171875 C1.06603774,10.678125 1.10377358,10.7332031 1.1509434,10.7800781 C1.19929245,10.828125 1.25353774,10.8644531 1.31485849,10.8902344 C1.34316038,10.9019531 1.37264151,10.9113281 1.40330189,10.9183594 L3.25707547,9.86015625 L5,10.8539062 L6.74174528,9.86015625 Z"></path>
            <path d="M4.5,3.64335937 L2.5,3.64335937 C2.2240566,3.64335937 2,3.42070312 2,3.14648437 C2,2.87226562 2.2240566,2.64960937 2.5,2.64960937 L4.5,2.64960937 C4.7759434,2.64960937 5,2.87226562 5,3.14648437 C5,3.42070312 4.7759434,3.64335937 4.5,3.64335937 Z M6.99882075,5.7140625 L2.5,5.7140625 C2.2240566,5.7140625 2,5.49140625 2,5.2171875 C2,4.94296875 2.2240566,4.7203125 2.5,4.7203125 L7,4.7203125 C7.2759434,4.7203125 7.5,4.94296875 7.5,5.2171875 C7.49882075,5.49140625 7.2759434,5.7140625 6.99882075,5.7140625 Z"></path>
        </g>
    </g>
</svg>